<?xml version="1.0" standalone="no"?>
<!DOCTYPE svg PUBLIC "-//W3C//DTD SVG 1.1//EN" "http://www.w3.org/Graphics/SVG/1.1/DTD/svg11.dtd" >
<svg>
<metadata>
Created by FontForge 20120731 at Thu Oct 19 19:51:16 2017
 By convertio
Digitized data copyright (c) 2001 Agfa Monotype Corporation. All rights reserved. COPYRIGHT ESSELTE LETRASET LTD., 1990. PapyrusTM is a trademark of Esselte Corp.
</metadata>
<defs>
<font id="Papyrus" horiz-adv-x="0" >
  <font-face 
    font-family="Papyrus"
    font-weight="400"
    font-stretch="normal"
    units-per-em="2048"
    panose-1="2 11 6 2 4 2 0 2 3 3"
    ascent="1638"
    descent="-410"
    x-height="911"
    cap-height="1350"
    bbox="-1152 -1235 4006 2494"
    underline-thickness="138"
    underline-position="-410"
    unicode-range="U+0009-FB02"
  />
<missing-glyph horiz-adv-x="748" 
d="M68 0v1365h544v-1365h-544zM136 68h408v1229h-408v-1229z" />
    <glyph glyph-name="fi" unicode="fi" horiz-adv-x="999" 
d="M946 1409q0 -20 -12 -29l-72 -53l-28 -29l-54 -36q-56 -39 -63 -39q-4 0 -10.5 6.5t-6.5 13.5q0 22 13 35l100 98l55 74q17 6 27 6q21 0 36 -13t15 -34zM887 1866l-10 -23l-31 -33l-21 -28l-26 -17l-27 -14l-88 43q-55 25 -76 25q-16 0 -84 -25q-71 -28 -92 -96l-26 -80
l-25 -47l-14 -66l-17 -22l6 -29l11 -6l-5 -211l-20 -25v-28v-23l23 -59l-9 -41l9 -103q0 -26 -21 -26q-8 0 -12 2l4 -23l37 -24l6 -39l24 -14h31l109 -7l80 13l86 8q18 1 36 9t33.5 21t22.5 17q33 20 41 20q18 0 43 -34q-18 -42 -21 -76l-6 -100l-20 -41l24 -29l-4 -31v-221
l-6 -135l14 -66v-35l4 -67q-2 -13 -61 -60l-49 -38q-14 -13 -31 -13q-14 0 -24.5 8t-10.5 17q0 20 17 63l10 27l-12 10l16 168l6 17l25 4v32q0 33 -5 45.5t-24 22.5l2 29l-2 10v16l12 82l-14 17v55q14 8 14 18l-2 19l-26 4v33l2 24v41l-49 14l-179 -16l-22 8q-34 12 -60 15
q-36 0 -36 -56l14 -149q0 -13 -23 -27l-6 -41q0 -16 23 -39l4 -28l8 -117l6 -41q-3 -12 -12 -12l-14 2q-12 0 -14.5 -6.5t-4.5 -20.5h12l-2 -8l27 -37v-25l-2 -28l4 -25l4 -24l-18 -9v-28l-90 -39l-78 -10l-15 10v10l11 23l10 69l14 43l6 45l-6 52q27 28 27 53l-23 90l4 92
l3 201l6 22q45 8 45 29q0 14 -11 14l-38 4l-33 13l-47 2l-33 4l-21 2l-30 -6q-41 -13 -37 -13q-17 0 -17 21l27 41l35 47q13 10 41 10q24 0 47 -6l53 29l-4 10l10 43l-2 106q0 27 23 50l-35 47l2 22l-4 221l14 58l35 59q0 11 -22 25q12 72 67.5 153.5t118.5 118.5l125 76
l27 18l34 4l66 17l33 -10l75 2q19 -1 34.5 -10t37.5 -31l14 8z" />
    <glyph glyph-name="fl" unicode="fl" horiz-adv-x="1034" 
d="M911 84l-16 -25l6 -24l-20 -4l-66 -41l-27 -4l-30 -19l-15 -2q-18 0 -18 12v25l-6 45l14 109l2 139q0 43 25 84l-12 31l-17 36q0 18 25 58q10 20 10 33q0 14 -31 26l4 17l-8 4v14v16l14 70l3 172l20 80q-4 19 -25 35v47l-6 180q0 17 29 68l14 26q-37 17 -37 31l7 39
l-21 18l-2 39l-2 49l16 58l-16 59l2 41l-18 146v8l-7 4q-52 35 -94 35q-26 0 -86 -25q-63 -23 -90 -96l-29 -80l-22 -47l-14 -66l-17 -22l6 -29l11 -6l-5 -211l-20 -25l2 -28l-4 -23l25 -59l-9 -41l9 -103q0 -30 -33 -30l4 -21q34 -16 37 -24l6 -39q0 -17 45 -17
q49 0 121 15q50 16 73 16l35 -2l25 -39l-23 -14q-46 -31 -55.5 -37.5t-17.5 -11.5l-43 -33l-31 4l-45 6l-55 14q-18 0 -30.5 -14t-12.5 -33l16 -176q0 -12 -25 -24l-4 -19q0 -15 21 -39l6 -28l6 -117l8 -41q-3 -12 -12 -12l-14 2q-16 -9 -19 -27h10l-2 -8l29 -37v-25l-4 -28
l4 -25l6 -24l-18 -9v-28l-90 -39l-80 -10l-13 10v10l11 23l8 69l16 43l6 45l-6 52q27 28 27 53l-23 90l2 92l2 197l7 22q47 6 47 29q0 14 -11 14l-38 2l-33 15h-47l-33 6h-21q-22 0 -30 -4q-27 -13 -37 -13q-6 0 -11.5 5.5t-5.5 13.5l5 12l20 29l37 49q17 10 39 10
q16 0 47 -8l53 29l-2 12l10 65l-4 88q3 30 23 50l-33 47l2 22l-6 221q0 31 16 58l35 59q0 9 -22 25q10 71 65.5 152.5t120.5 119.5l125 76l27 18l34 4l66 17l33 -10l75 2l23 -4l45 32l16 2l15 -20l2 -45l8 -29l2 -14l-2 -27l-4 -71v-15l2 -39l-4 -28l-25 -52l-2 -20
q21 -1 25 -6t4 -29l2 -22q0 -9 -7 -18t-18 -15l-2 -25v-28l19 -29l-8 -191v-137l-27 -53l12 -76l-18 -49l18 -23l17 -18l6 -324l-23 -28l4 -41l-10 -66l10 -22h27v-37l18 -160l-2 -53z" />
    <glyph glyph-name=".notdef" horiz-adv-x="748" 
d="M68 0v1365h544v-1365h-544zM136 68h408v1229h-408v-1229z" />
    <glyph glyph-name=".null" 
 />
    <glyph glyph-name="nonmarkingreturn" horiz-adv-x="465" 
 />
    <glyph glyph-name="controlHT" unicode="&#x9;" horiz-adv-x="465" 
 />
    <glyph glyph-name="controlCR" unicode="&#xd;" horiz-adv-x="465" 
 />
    <glyph glyph-name="space" unicode=" " horiz-adv-x="465" 
 />
    <glyph glyph-name="exclam" unicode="!" horiz-adv-x="535" 
d="M354 528l-14 -14l-21 -47q-7 -14 -40 -35l-19 10l-49 -4l-16 11q-19 8 -19 24l2 8l39 60l10 100l6 39h23q8 13 8 25q0 11 -10 26l-27 -6l-6 86l23 66l-8 26l-9 17l-4 118l-2 27l-10 2v20l31 -2l8 11q-12 19 -39 24v10l2 64l-10 57l4 25q-25 18 -36 34t-11 36q0 38 46 71
t95 33l18 -2l11 14q21 -12 24 -22l-6 -29l-4 -47l-10 -23l10 -57l-16 -4l6 -49l8 -10v-23l4 -29l-6 -49l4 -24l-16 -52l2 -12l6 -6l-2 -22l-8 -140l-9 -35l2 -28l19 -35l-2 -37l-2 -47q-3 -5 -17 -18l27 -60l6 -55zM399 80l-8 -14l-16 -31l-62 -43l-16 -21l-31 15l-26 34
l-39 35l-21 35q-5 3 -22 6l-21 6q3 19 15 25l63 39l35 33q12 6 22 8l27 -25l72 -51q23 -15 28 -51z" />
    <glyph glyph-name="quotedbl" unicode="&#x22;" horiz-adv-x="666" 
d="M543 1276l-2 -19l-2 -108l-13 -53l-6 -35l8 -6l2 -51l-6 -50l-18 -63l2 -8l-6 -4l-2 4l-47 -27l-13 14l-16 95l2 131l-27 37l-18 2v43l37 24l86 70q9 6 20 6zM285 1276l-2 -19v-108l-15 -53l-6 -35l10 -6v-51l-6 -50l-16 -63v-8l-4 -4l-4 4l-45 -27l-15 14l-16 95l2 131
l-25 37l-18 2l-2 43l39 24l84 70q12 6 22 6z" />
    <glyph glyph-name="numbersign" unicode="#" horiz-adv-x="1251" 
d="M904 941l43 -7q11 -2 22 -3.5t23 -3.5q2 0 4.5 -0.5t4.5 -0.5q2 -1 4 -1q32 0 64 18.5t51 47.5q23 0 35 -3.5t16 -10.5l-15 -41l-22 -27q-37 -44 -77 -75q-34 -25 -63 -25l-54 12l-16 -8l-15 -2q-11 0 -19.5 1.5t-10.5 4.5l-8 10l-2 -3q-2 -3 -5 -9t-8 -17q0 -1 0.5 -1.5
t0.5 -1.5l-2 -4t-3 -12t-1 -13q-1 -6 -2 -10t-4.5 -7.5t-10.5 -7.5t-20 -10l9 -1l4 -7l-20 -45h-6q4 -10 4 -12q0 -3 -6 -13l-4 -8q-3 -6 -8.5 -19.5t-16.5 -36.5l-17 -49l-12 -26h-15l142 -22h5t4 -1q1 0 2 -0.5t2 -0.5q32 0 64.5 18.5t49.5 47.5q46 0 52 -14l-14 -41
l-23 -27q-19 -23 -38.5 -41.5t-39.5 -33.5q-33 -25 -62 -25l-54 12l-16 -8l-15 -2q-26 0 -30 6l-25 29q-6 -8 -15 -12.5t-20 -4.5q-1 0 -4 -5.5t-5 -9.5l-19 -40l-24 -11h9l2 -6v-5q0 -4 -10 -20q-6 -16 -13.5 -31.5t-14.5 -31.5q0 -7 -2 -14t-4 -13l-26 -62l-20 -2h9
q0 -1 -0.5 -1.5t-0.5 -1.5l-3 -30l-8 -32q0 -6 -2 -14q0 -8 -8.5 -17t-10.5 -17q-50 -22 -85 -22q-26 0 -39 6t-28 26l16 29l3 8l49 74h6l7 27l39 83l8 24q2 8 10.5 18.5t16.5 15.5l5 5h-11l-2 17l37 67h13l-78 13l-145 -13h11l-30 -69l-24 -11h9l2 -6v-5q0 -4 -10 -20
q-6 -16 -13.5 -31.5t-14.5 -31.5q0 -7 -2 -14t-4 -13l-26 -62l-20 -2h9q0 -1 -0.5 -1.5t-0.5 -1.5l-3 -30l-8 -32q0 -6 -2 -14q0 -8 -8.5 -17t-10.5 -17q-50 -22 -85 -22q-26 0 -39 6t-28 26l16 29l3 8l49 74h6l7 27l39 83l8 24q2 8 10.5 18.5t16.5 15.5l5 5h-11l-2 17
l37 68h7q-3 0 -4 1q-2 0 -3 0.5t-2 0.5l-42 6h-5t-5 1q-1 0 -2 0.5t-2 0.5l-60 -21l-9 1q-18 -21 -45 -21q-24 0 -39 22q4 13 21 35q22 22 49 44t50 38l28 18l59 2q7 2 15 4.5t14 4.5l28 -15l12 29q2 7 6.5 15.5t11.5 16.5q13 14 13 21v4l-7 7l19 34l8 27v7l18 34l1 3
q6 18 14 26l12 9l2 3l16 2h-17q-4 8 -4 17v5.5t1 5.5q0 1 0.5 2t0.5 3t1 6v7q4 0 11.5 0.5t9.5 0.5q5 0 6 1h-7l-5 22h8l-104 12q-1 0 -2 0.5t-3 0.5q-6 2 -10 2l-63 -22l-8 1q-18 -20 -42 -20q-23 0 -39 24q2 6 6 13.5t11 15.5q23 23 51 46t52 40l29 18l58 2q7 2 15 4.5
t14 4.5l24 -13l36 -9l-2 -11h-7q10 -8 10 -10t5 -2q0 3 1.5 6.5t2.5 7.5l29 63q2 8 5 18.5t5 18.5l9 -4q-1 7 -2.5 14t-2.5 14l7 22l6 24l21 57q0 9 2 19.5t4 21.5q2 8 2.5 19t2.5 22l9 -10l8 9l-13 16q2 16 7.5 26t16 16t27 9t41.5 4l29 4l40 -15q0 -38 -2 -51.5t-5 -21.5
l-24 -49l-11 -53l-74 -173h-11l10 -4q10 8 22 12.5t23 4.5q17 0 22 -4l23 -13l75 -4l28 -4l24 55q2 8 5 18.5t5 18.5l9 -4q-1 7 -2.5 14t-2.5 14l7 22l6 24l21 57q0 9 2 19.5t4 21.5q2 8 2.5 19t2.5 22l9 -10l8 9l-13 16q0 28 14 39t34 11q11 0 29.5 -5.5t36 -14.5
t30.5 -21.5t13 -25.5q0 -11 -4.5 -23t-10 -24.5l-11 -25t-8.5 -22.5zM425 534q15 3 31 3q14 0 25 -5q20 16 43 16q8 0 14 -1t9 -3l23 -13q15 -1 26 -2t27 -2l14 33q2 7 6.5 15.5t11.5 16.5q13 14 13 21v4l-7 7l19 34l8 27v7l18 34l1 3q6 18 14 26l12 9l2 3l16 2h-17
q-4 8 -4 17v5.5t1 5.5q0 1 0.5 2t0.5 3t1 6v7q4 0 11.5 0.5t9.5 0.5q5 0 6 1h-7l-5 24l12 1l-14 4l-9 4l-15 -9l-92 15l-41 -4q-10 -2 -18.5 -2.5t-17.5 -1.5l-21 -50q0 -1 0.5 -1.5t0.5 -1.5l-2 -4z" />
    <glyph glyph-name="dollar" unicode="$" horiz-adv-x="1094" 
d="M979 512q0 -16 -12 -37l-9 8l-12 -4l4 -35q0 -66 -80 -153l-26 -37l-35 -23l-107 -90l-38 -16q-49 -21 -99 -21l-6 -24l4 -152q0 -20 -47 -41q-24 0 -37 17h-14l-2 51l6 45l10 33l-10 22q-5 11 -21 23t-26 12l-62 -4l-84 35l-24 4l-19 4l-10 33l-6 2l-10 16h-14l-43 -12
l-31 22l-23 19q-49 44 -49 57q0 5 4 21l6 14l4 33l19 33l4 26q25 -7 36 -15.5t19 -29.5v-16l19 -15q32 -24 40.5 -33t14.5 -28l25 -10l24 -21l66 -20l43 -27q37 -22 61 -22q49 0 49 84l2 18l-2 39l8 195h-8l-2 26v109l-10 43l-16 8l-23 24q-7 8 -47 11l-29 2l-18 20l-17 4
l-30 -10l-51 27l-17 12l-41 33l-12 16l2 21l-8 63l12 35l14 25l13 -3q21 0 37 33q-19 19 -19 31q0 15 33 27l22 8l-4 24l27 23q49 43 78 43l22 -2q17 22 24 27t44 16l20 6l2 63l-4 35l-12 35q0 18 39 25l4 4l39 4l2 -51v-45q0 -27 10 -46.5t27 -19.5l26 6l23 4l51 -8l88 -12
q4 -15 10.5 -19t20.5 -6l2 -10q0 -34 -96 -88l-17 22v15l-14 -2l-6 8q-55 0 -121 16l-8 -14l4 -55l-20 -43l6 -21h14v-145l59 -23q3 -17 10 -23t23 -7l12 18l41 -6l17 -21q87 -8 150 -50.5t81 -104.5h-22l-2 -17l6 -4v-12l41 -21l6 -24zM498 983l-2 27l-17 16q0 30 10 45
l-4 16l4 15l-30 6q-54 0 -117 -78q-47 -54 -47 -78l4 -10l10 -16l27 -11l45 -38q19 -17 78 -17h24l6 62l-6 53zM838 485l-7 11l-51 36l-16 48l-25 20l-18 49l-16 6q-15 0 -31 -24l-25 6l-86 20h-10l-2 -45l2 -32q0 -19 -27 -29l-2 -8l15 -23l14 -6l6 -127h-14v-14l-15 -4
q5 -23 10 -30.5t23 -14.5l-2 -23l-8 -63l-2 -45l16 -27l37 -2l25 26l92 58q18 11 47 59q22 43 25 76l4 57l6 25l24 -6z" />
    <glyph glyph-name="percent" unicode="%" horiz-adv-x="1561" 
d="M848 1128l-4 -28v-90q0 -8 -30 -60t-60 -96q-12 -16 -37 -18l-8 -11v-12l-19 -18l-31 -29l-79 -45l-7 -14l-10 -5l-71 -20l-56 -12l-43 -15l-49 19l-18 -2l-13 2l-24 14l-17 -2q-23 0 -47 47q-19 8 -30.5 16.5t-23.5 26.5t-30 49l11 4l-5 31h-14l-6 47l4 21l-8 8l22 49
l-2 25l-6 18l6 19q26 0 31 12l41 74q16 26 55 34l-2 9h-8l19 16l38 41l56 37l28 14l2 14l27 9l53 18l37 2l70 25l16 -9l107 -18l20 -10l35 -60l16 -18l11 2l18 -4l6 -23q20 -68 29 -84zM1229 1341l-39 -79q-22 -33 -55 -33l-13 -21l-6 -30l-31 -48l-18 -20l4 -20l-10 -21
l-41 -59l-8 -27l-37 -18v-33l-14 -23l-64 -90l-61 -125l-23 -30l-53 -78l-12 -23l-23 -4l-2 -6l6 -6l-16 -60q-46 -17 -49 -41l-7 -51l-32 -55l-21 -59l-31 -41l-12 -66l-37 -39l2 -31l-22 -41q-16 -19 -26.5 -28t-24.5 -12l-41 -11l-58 -24q-30 4 -30 26q0 12 14 29l31 53
l6 13l43 14q14 7 14 47q6 8 9 11.5t5 6.5l17 25l24 18l-12 23l10 20q21 39 52 62v22l38 25q0 34 13.5 58t58.5 75q19 18 23 37l6 33l33 22l32 66l52 84l6 22l16 4l16 -10v17l-12 12q4 25 7.5 30t43.5 41q18 15 21 31l2 43l33 51l10 48l45 63l4 61l35 31v33q4 29 55 74l19 16
l18 2l78 31l6 2q11 0 33 -19zM1438 440l-4 -49v-57l-41 -76l-56 -72q-17 -15 -47 -24l4 -19l-20 -16l-76 -53l-33 -17l-14 -12q-16 -16 -55 -22l-129 -33l-31 22l-12 -8l-54 25l-28 6l-21 10l-8 23l-33 32l-18 25h-17l-10 39l8 4l-8 31h-10l-8 80l-2 10q20 17 20 28l-6 39
l-2 23l41 10l20 35l15 41l33 31l16 22l22 17l87 73l32 15l6 14l33 14l78 13q16 2 66 26l20 -8l68 -18l28 -13l6 6q32 -8 37 -18l27 -51l39 -23l29 -86zM752 1014l-9 39l5 22l-15 4l-20 39l8 17l-12 18l-11 -2l-24 18l-51 33l8 21l-15 20l-28 -18l-39 22l-29 2l-33 4l-12 -2
l-22 -8l-35 -4q-37 -45 -51 -47l-29 -6l-43 -47l-29 -29q-12 -14 -12 -45v-10l-27 -13v-38l9 -5l2 -24q3 -38 7.5 -48t26.5 -24l-10 -33l14 -30q24 0 34.5 -4.5t23.5 -18.5l24 -20l-2 -15l25 -8l78 -22l20 -2l21 6l67 18l25 17l33 12l14 18l25 23l10 20l26 17l19 41l22 32
v27zM1343 356l-12 15l8 16l2 23l-24 18l-17 18q15 15 15 25q0 7 -15 25l-24 -9q-12 23 -23 33t-34 17v34l-19 9q-10 -21 -26 -21l-5 8h-12l-12 17l-82 10l-19 -12l-34 -9l-23 -22l-45 -21l-22 -14l-15 -16q-24 -27 -36.5 -42.5t-17 -22.5t-6 -13t-5.5 -31q-25 -8 -25 -26
l2 -15v-6l10 -4l4 -18l-4 -15v-20q0 -22 7 -34.5t30 -27.5q-12 -15 -12 -24q0 -23 25 -23l16 2l51 -41q0 -12 3 -17.5t14 -10.5l20 4q54 -29 80 -29q35 0 80 20l73 35l52 58l22 14l29 57l20 23l-10 14z" />
    <glyph glyph-name="ampersand" unicode="&#x26;" horiz-adv-x="1602" 
d="M1534 690q0 -72 -27 -139l-20 -10l-57 -58l-56 -32l-28 -5l-19 -14l-63 -16q-31 -9 -31 -35l12 -41l-18 -14l-6 -27q-3 -28 -8 -35.5t-17 -7.5l-33 6q0 -22 15 -39l-19 -24l-22 -17l-19 -22l-65 -39l-13 -19l-41 -12l-79 -47l-86 -37l-97 -29l-78 -8l-65 -14l-27 2l-2 -8
h-33l-28 18q-12 -10 -12 -22h-17h-8q-45 0 -66 9.5t-32 33.5l-11 -2l-12 12h-8l-4 -21q-20 0 -29 3.5t-31 19.5q-43 34 -66 61.5t-40 65.5q12 24 12 31l-2 12l-14 14l-39 21l-6 24l2 17q15 0 21 4.5t14 19.5l-15 17l-14 -2q-18 0 -18 32q0 27 12 52l31 65l20 43l18 21l21 34
l20 13l35 41l35 16l33 51l37 35l6 23l61 28l19 19l16 16q-37 15 -48 29t-13 45l-41 -8l-66 73l6 27q0 15 -22 27l22 49l-8 4v16q0 20 5.5 31.5t21.5 26.5q17 1 23 5.5t16 22.5q10 21 42 46.5t58 31.5l6 23l41 4l25 24l121 47l53 33l69 2l97 19q43 -3 57 -43l29 -9l12 -45
q15 -15 18 -28q0 -17 -28 -31l-19 10l-71 17l-27 10l-25 -10l-30 16l-4 -12l-25 -6l-37 10l-57 -17l-2 7l-29 6l-18 -6l-58 -21l-24 -14l-19 -6l-84 -70q-10 -4 -22 -12q-5 -5 -23 -72l-8 -22l25 -25l22 -16l4 -21l31 -20l27 -19l139 -33l27 -10l22 2l115 -4l51 19l55 2
l43 10l41 -12l-33 -80l-30 -13q-39 -11 -49.5 -17t-18.5 -24l-35 11l-18 16l-21 10l-30 -12l-29 10l-14 -10l-56 6l-55 -29l-43 5l-25 -9l17 -24l-39 -6l-57 -35l-41 -21l-76 -90q-10 -10 -39 -16q-3 -20 -31 -78l-16 -57v-37l-8 -19l10 -22l8 -57l19 -33l10 -27l22 -22
l19 -31l69 -70q9 -9 22 -20t24 -16.5t24 -8.5l61 -14l72 -6l33 2l4 -10l23 4h55l31 14l28 8l105 41l32 6l7 19q61 36 87.5 58.5t53.5 68.5l18 30l6 47l7 37q-2 21 -45 56l-72 55q-27 28 -39 36t-41 15l-49 25l-33 6l-53 -14l-35 -9q-16 -4 -27 -26l-24 -45l-23 -23l11 -47
v-2q0 -5 -11 -16q-13 -11 -30 -11q-9 0 -15 6l-12 13l-27 16q-14 11 -14 35q0 30 16 43l45 39l60 51l67 25l97 41l41 8l39 -2l77 -23l56 -30l4 -21l12 -27l20 -8l9 19l-9 16l25 -12l62 -39l45 -21q42 0 127 56q30 18 32 28l15 84q0 27 -47 84q8 14 14.5 19.5t19.5 9.5l33 12
l19 -18l8 -12l45 -19q11 -9 22 -39h27z" />
    <glyph glyph-name="quotesingle" unicode="'" horiz-adv-x="408" 
d="M285 1276l-2 -19v-108l-15 -53l-6 -35l10 -6v-51l-6 -50l-16 -63v-8l-4 -4l-4 4l-45 -27l-15 14l-16 95l2 131l-25 37l-18 2l-2 43l39 24l84 70q12 6 22 6z" />
    <glyph glyph-name="parenleft" unicode="(" horiz-adv-x="891" 
d="M868 -119l-6 -6l-16 4l-27 -53l8 -19q13 -17 13 -30t-37 -53l-27 14l-43 31l-57 32l-21 17q-18 6 -51 35l-16 14v8l-25 25l-43 51l-14 14l-23 35l17 10v8q-26 6 -41 21q-35 41 -53 106l-13 45l-28 68l-9 21l6 6l5 20l-11 6l11 13l-17 6l-6 35l-27 77l-2 70l-12 29l4 37
l-6 69l4 49l-4 25l6 43l10 102l25 37l-2 27q0 14 5 23t17 16l17 61l33 70l16 61l14 19l25 53l16 16l13 43l41 25l53 59l47 39l33 49l69 52l37 34q22 19 43 19q12 0 27 -10q-4 -12 -4 -11l14 -47l-10 -22l-19 -37l-26 -19l-66 -10l-37 -18l-16 -19l-39 -30l-41 -50l-59 -49
l-21 -49l-67 -111l-19 -67l-18 -51l-2 -29l-23 -111l10 -71l3 -19l-5 -22l-10 -19l15 -73l-5 -23l17 -65l-4 -29l32 -82l3 -35l36 -65l7 -33l18 -37l4 -12l-2 -11l8 -10l-2 -28l4 -21l58 -45l41 -57l28 -35q-12 -18 -12 -29q0 -19 16 -22l41 -4l66 -45q17 -10 65 -13l25 -2
q15 -20 18 -41z" />
    <glyph glyph-name="parenright" unicode=")" horiz-adv-x="891" 
d="M598 616l-6 -43l-10 -102l-25 -37l2 -26q0 -27 -22 -39l-17 -62l-33 -69l-16 -62l-14 -18l-25 -54l-16 -16l-13 -43l-41 -25l-53 -59l-47 -39l-33 -49l-69 -51l-37 -35q-21 -18 -43 -18q-11 0 -27 10l4 10l-14 47l10 23l19 37l26 18l66 10l37 19l16 18l39 31l41 49l59 49
l21 49l67 111l19 67l18 52l2 28l23 111l-10 72l-2 18l4 23l10 18l-14 74l4 22l-17 66l4 28l-32 82l-2 35l-37 66l-6 32l-19 37l-4 13l2 10l-8 10l2 29l-4 20l-58 45l-40 58l-29 34q12 20 12 29q0 20 -16 23l-41 4l-66 45q-18 9 -65 12l-25 2q-15 22 -18 41l6 6l16 -4l27 53
l-8 19q-13 17 -13 31q0 12 37 53l27 -15l43 -30l57 -33l21 -16q18 -7 51 -35l16 -15v-8l25 -24l43 -52l14 -14l23 -35l-17 -10v-8q26 -4 41 -21q34 -38 54 -106l12 -45l29 -68l8 -20l-6 -6l-5 -21l11 -6l-11 -12l17 -6l6 -35l27 -78l2 -70l12 -28l-4 -37l6 -70l-4 -49z" />
    <glyph glyph-name="asterisk" unicode="*" horiz-adv-x="770" 
d="M702 1042l-4 -10l-43 2l-34 17h-84l4 -25l-15 -4l-39 2h-4q-22 0 -59 -27l4 -14l25 4q26 -38 47 -47q18 -13 23 -18.5t5 -16.5l-4 -20l27 4q25 0 44 -13t19 -28q0 -8 -2.5 -12t-14 -13.5t-46.5 -34.5q-16 -11 -45 -51l-12 -20l-11 6l-20 65q6 17 6 25q0 19 -33 64
l-22 -13q-3 44 -13 65t-39 38l-16 -6v-13l10 -4q-12 -90 -65 -108q14 -29 14 -45q0 -21 -10.5 -35.5t-26.5 -14.5q-12 0 -18 7l-68 47l-61 18v14l16 13q11 8 21 15t17 8.5t18 2.5l57 52l-21 16q44 22 61 39t25 47l-14 4l-6 -12l-29 4q-34 1 -50.5 3t-23.5 6.5t-32 23.5
q-11 -33 -41 -33q-17 0 -34 9t-17 17l2 15q18 27 21 45.5t5 101.5h17l20 -22l31 -39q15 -19 57 -31l4 -8l8 4l7 18q49 -49 98 -49h14v15l-14 4l-8 34l-13 58q0 10 17 35l-4 12q-49 13 -49 63q0 10 16 29l39 -4l33 2q49 3 88 18q8 -5 8 -16v-8l-23 -41q-19 -27 -24.5 -38.5
t-5.5 -27.5v-26h20l-6 -25l-14 -63l4 -25l10 -6l10 18l29 17q41 23 50 27t20 4l22 -3q6 68 55 68q12 0 18 -10.5t19 -61.5q5 -20 37 -63z" />
    <glyph glyph-name="plus" unicode="+" horiz-adv-x="1044" 
d="M616 993v-45l10 -29l2 -14l-2 -27l-4 -72l2 -38q0 -21 -4 -29l-24 -51l-3 -21q21 -2 25 -7v-1l19 5l35 -2l116 16l9 2h6l33 -6l40 -8l50 -90l32 -41l2 -17l-20 -14h-45l-29 -10l-14 -2l-27 2l-72 4l-38 -2q-21 0 -29 4l-51 24l-21 3q-2 -16 -5 -22l7 -10l-6 -190l-2 -37
l-27 -104l-104 -4l-6 131q0 20 26 67l15 27q-37 16 -37 30q0 9 8 39l-23 17l-2 41v2l-16 -10l-190 6l-37 2l-104 27l-4 104l131 6q20 0 67 -26l27 -15q16 37 30 37q9 0 39 -8l17 23l41 2h3l-6 28l2 35l-16 116l-2 9v6l6 33l8 40l90 50l41 32l17 2z" />
    <glyph glyph-name="comma" unicode="," horiz-adv-x="571" 
d="M410 -18l-4 -21l-13 -18v-86q0 -24 -20 -52q-30 -40 -35 -61l10 -12l-12 -17q-16 -21 -34 -45.5t-30 -37t-41 -31.5l-14 -4l-47 4l-33 -2l-31 10q6 19 12 24.5t27 8.5l7 8l12 -4q13 0 39 24q21 3 38.5 13t20.5 20l6 18l35 35l14 72l13 20l-11 7v8l3 14l6 14l-11 29
l-22 76q-3 11 -37 22l-14 17q-14 21 -20 24.5t-31 3.5l-25 5v18l25 25l38 32l25 35l29 23q29 -7 41 -13.5t28 -23.5l25 -27l10 -57l19 -86z" />
    <glyph glyph-name="hyphen" unicode="-" horiz-adv-x="942" 
d="M874 532l-14 -22l-8 -23l-37 -34l-16 -19l-31 -14l-61 -47q-20 -11 -35 -11q-21 0 -29 5l-31 10l-12 2l-45 -6l-18 -2l-27 6q-62 12 -74 12h-4l-76 -4h-2l-63 16l-17 7q-18 0 -24 -2l-35 -9l-14 6l-19 -18q-21 6 -35 6q-17 0 -43 -31q-34 3 -34 23q0 25 36 53l74 56
l51 30l60 4l39 6l30 -12l15 -2h12q1 -16 9.5 -28.5t21.5 -12.5q16 0 28 31q23 0 37 12l29 -12l113 -4l86 -15l86 21l22 -4l39 45z" />
    <glyph glyph-name="period" unicode="." horiz-adv-x="571" 
d="M420 86l-29 -55l-16 -13q-12 -9 -21 -16t-14.5 -14t-9.5 -17q-26 0 -37 11l-98 94l-23 4l-22 8l10 18l22 19l49 35l25 28l20 13q52 -36 70 -45l29 -13q28 -11 45 -57z" />
    <glyph glyph-name="slash" unicode="/" horiz-adv-x="1083" 
d="M1083 1546l-12 -12l-18 -41l-41 -70l-29 -94l-143 -270l-15 -55l-96 -158q-8 -45 -12 -58.5t-11.5 -18t-41.5 -17.5l12 -23l-12 -31q-25 9 -27 9q-16 0 -16 -39l12 -6q3 -9 3 -13t-3 -10l-15 -25l-38 -63l-31 -76l-17 -29q-8 7 -14 7q-4 0 -18 -17q-2 -5 -13 -14l15 -21
l-10 -20q-37 -3 -37 -20q0 -3 2 -9q6 -12 14 -22l-74 -140l-37 -14q8 -18 8 -28q0 -9 -6 -17l-55 -92l-18 -57l-19 -31l-12 -27l-20 4l-9 -10l-6 -24l-6 -44l-16 -47l-2 -22q-17 -8 -23 -16t-10 -23q-53 -18 -98 -18q-26 0 -39.5 5t-28.5 23l20 27l21 35l57 73h27l8 17
l12 45l66 110l18 47q9 22 17 27l22 14l-4 33l86 127l12 27l11 26q17 3 22.5 7t5.5 16q0 3 -2 25l41 81q8 26 25 43q33 28 33 41q0 8 -11 17l25 37l20 55l29 45q17 35 21 39.5t24 13.5q2 1 8 3.5t11 4.5l-15 25q-2 2 -2 9q0 6 4 24q39 3 39 18l-10 37l23 43l6 21q16 -4 20 -4
q12 0 15.5 10.5t5.5 54.5l12 41l39 72l10 24l12 -4l17 31l-6 45l10 27l14 49l33 69l10 54l4 20l19 4q-4 8 -4 10q-2 4 -2 10t8 11l18 -10v18q-2 7 -22 25q7 33 30.5 45.5t81.5 15.5l43 6l29 -12z" />
    <glyph glyph-name="zero" unicode="0" horiz-adv-x="1358" 
d="M1290 723l-4 -27l-10 -55l2 -33l-21 -51l-8 -27q-43 -6 -43 -32q0 -17 11 -41l14 -6l-4 -35l-27 -62l-24 -67l-66 -74l-25 -33l-20 -10l-49 -31l-43 -24l-33 -45l-31 -2l-22 -19l-62 -31l-18 -16l-10 4l-56 -20l-61 10q-18 0 -43 -21l-109 25l-6 10l-22 -4l-6 6l-2 -6
l-41 12l-9 17l-4 -15q-58 19 -90.5 40.5t-68.5 66.5q-18 5 -27 16l-8 33q-1 17 -5.5 23t-21.5 14l-8 -10l-16 -2q-6 15 -15.5 27t-23.5 24l-13 29q-32 76 -37 106l-12 8l-2 27l-12 24l-2 29l-8 37l10 51l-6 25l12 18l14 -2l19 17l-13 36l5 23l-15 -16q-18 15 -18 26
q0 22 8 41l14 51l27 17l29 22l-17 10q0 27 8 39l43 82l35 62l25 22l14 17l25 -2q12 21 30 28q-16 3 -16 15q0 9 27 22l69 49q36 33 62 41q21 8 28 27h7q9 0 24 -12l21 12l100 63l100 7l52 4q28 0 49 -13l39 -20l30 -2q0 -23 4.5 -31.5t24.5 -23.5l14 38l17 -8l73 -20l11 -15
l-4 -18l38 -10l15 -21l51 -43q11 -11 31 -53q14 -31 14 -45l-4 -16q23 -18 37 -44.5t35 -91.5l6 -18l-15 -16l-16 8q19 -20 25 -43h12zM1141 547v8q0 11 -5 17.5t-18 11.5q8 65 8 110q0 93 -12 129l-22 60l-7 22l17 19l-27 41l-12 -23q-29 26 -36 39.5t-9 46.5l-27 12
q-16 -8 -24 -8q-10 0 -15.5 5.5t-25.5 35.5l4 21q0 13 -10 16l-48 14l-10 17l-31 14l-32 21l-45 -7l-62 11l-28 2q-8 1 -23 1q-32 0 -58 -5.5t-32 -12.5l-16 -12l-78 -29q-38 -22 -82 -82l-31 -26l-29 -64l-36 -45l-11 -45l-28 -57l-11 -90l-14 -51v-31l2 -111
q10 -66 49 -123l45 -59q29 -39 29 -45v-4l-6 -31l4 -16l14 -19l25 -6l10 14l19 -12l67 -43l25 -4l22 -8l-6 -21q6 -12 11 -16.5t18 -7.5l18 2l-4 18q50 -30 74 -30l47 -2l57 -9l60 23l94 14l22 15l43 45l31 16l31 49l49 47l22 70l29 33l-2 43l14 26l2 11q0 13 -18 28l14 8
q0 14 15 19z" />
    <glyph glyph-name="one" unicode="1" horiz-adv-x="516" 
d="M350 1212l-4 -32l-18 -64l12 -74l2 -30q-31 -5 -31 -33q0 -15 8 -24t27 -17l-6 -43l-16 -12v-52l4 -30q0 -3 -0.5 -4.5t-1.5 -3.5l-9 -64l23 -61l-10 -72l12 -72l-6 -16l-2 -21l-12 -16l14 -47v-33l4 -55l-6 -21l-2 -20l-21 -25l-2 -14v-14l17 -21q12 -13 14 -20t2 -27
l-2 -51l-4 -37l6 -45q-26 -26 -73 -46t-83 -20q-26 0 -26 56v2l4 55l22 14q-14 34 -14 64q18 13 18 31l-14 18l2 33l2 47l19 27q10 13 10 28q0 8 -2 10l-17 43l3 25v8q0 11 6 17l24 22q4 2 4 8l-4 19l-22 55l2 96l-17 31q-10 20 -10 35l10 168l11 94l-2 45q-3 52 -13 80
l-114 -2q-11 9 -11 18q0 27 11 31l108 55l80 74q26 27 63 27q10 0 31 -6l-2 -29v-8z" />
    <glyph glyph-name="two" unicode="2" horiz-adv-x="1038" 
d="M1067 131q0 -10 -4 -18l-31 -50l-14 -26l-51 -14l-52 -39q-16 -11 -30 -11q-31 0 -58 13q-45 16 -65 16h-2l-66 -4l-114 12l-134 -4h-24l-19 23l-10 -11l-24 7l-2 -17l-93 -2l-4 27l-10 8l-22 -2l-7 -29l-45 -4l-36 -12q-32 -10 -68 -10q-82 0 -82 18v10l18 11l25 22
q12 12 33 12h8q17 42 30.5 54t43.5 12q9 20 35 31q-13 14 -13 26q0 6 4 10l58 50l39 47l26 28l25 45l78 82l14 33l27 41l32 90l133 201q21 30 25 67l14 101l2 18q-16 21 -22 33.5t-12 38.5q-25 17 -35.5 27t-22.5 28l6 19q-14 24 -41 26l-2 -26l-26 10q-95 38 -124 47.5
t-65 9.5q-53 0 -84 -22l-59 -45l-25 -11l-49 27q4 16 6.5 22t22.5 33l12 21h13q8 0 10 2l10 12l68 33l24 22q29 29 125 29q34 0 92 -10q18 -31 29 -31t24 21q14 -3 19 -8.5t8 -20.5q11 -8 21 -8q8 0 26 12l25 -10q49 -19 55 -27l14 -22l54 -31q23 -13 55 -61l10 -25v-51
l6 -31l2 -8q0 -32 -32 -45l-2 -17l-11 -6q13 -17 13 -26q0 -16 -11 -29l-139 -205l-57 -102l-15 -10l-30 -52l-137 -186l-46 -66l-26 -45q-6 -18 -11.5 -24t-25.5 -15q-4 -8 -4 -18q0 -4 6 -16l12 -2l82 6l86 -21h21q22 0 63 8l17 -12h41l94 2h10l20 -8l23 -2l59 6l23 -10
l35 4l78 -4q30 0 69 41l35 -8v-6v-19z" />
    <glyph glyph-name="three" unicode="3" horiz-adv-x="975" 
d="M893 530l-4 -41l-10 -34v-33q0 -20 -19 -60l-16 -22l-19 -8l-94 -187l-37 -32l-24 -45l-47 -43q-37 -34 -50 -74l-28 -23l-41 -22l-19 -21l-34 -20l-74 -62q-20 -16 -39 -20l-41 -8l-27 -37q-8 -12 -63 -33l-35 -18l-16 8q-31 14 -56 14h-14q-18 13 -18 31q0 21 16 24
l68 21l28 16h25l61 31l45 8l66 41l72 47l24 31l14 -4q8 0 25 14l-6 19l98 94l-2 16l-8 2l8 19l72 108q39 63 39 125v21q15 20 20 49l-12 14l-4 8l10 39l-16 41l-13 43q0 5 -12 23q14 22 14 33q0 10 -16 18l10 10l-12 31l-14 -4l6 14l-17 10q-19 -8 -26 -30q-50 46 -82 59
l-12 43h-11l-14 -18l-14 2l-9 -17q-37 15 -65 15q-18 0 -39 -8q-7 10 -18 12l-33 -2h-35l-100 -70l-29 -6l-57 -18h-21v16l12 18l19 37l45 19l31 47l65 39q14 12 21 28l10 33l20 23l7 22l10 21l-10 10l8 20l53 66l16 47l21 43q6 15 6 31q0 27 -52 27q-17 0 -50 -5l-123 15
l-41 6l-41 4h-2q-12 0 -29 -10q-45 -27 -61 -27q-27 0 -27 23t23 32l75 41l70 45l57 -14l121 4l31 -12l72 4l69 -10l25 8l22 -6l17 12q40 29 53 29q7 0 10.5 -4.5t3.5 -10.5q0 -43 -22 -100.5t-52 -91.5l-26 -31l-117 -176l-22 -27h12h12l19 -8l65 2l27 -8l67 -2l52 -29
l51 -8l28 -18l60 -25l31 -18l14 -25q14 -26 24.5 -41.5t14.5 -22t4 -10.5q0 -20 -33 -45q20 -11 23 -24q12 -31 12 -97z" />
    <glyph glyph-name="four" unicode="4" horiz-adv-x="1348" 
d="M1358 745l-21 -12q-29 -21 -45 -41l-12 4l-20 -20v-25l-17 -6q-2 -16 -20 -27l-15 3l-51 -3l-80 21l-108 -18l-70 4l-29 -7q-14 -39 -14 -63v-121l-4 -49l10 -33l-28 -4l10 -31l-15 -2q6 -16 12 -21.5t21 -8.5l-2 -31q14 -14 14 -53l3 -33l-3 -41q0 -16 11 -33l-6 -18
q1 -2 1.5 -4t0.5 -6l-19 -27l-39 -19l-39 -28l-24 -4l-29 -31l-20 -12q-35 0 -35 37q0 22 29 43l-5 8l15 35l-2 36l26 50l-4 118l4 131l-4 27l4 14l-2 27l27 66l-10 30l-31 -8q6 15 6 23q0 2 -8 26l-19 2l-127 -8l-88 8l-24 -8l-43 6l-21 -10q-4 -2 -10 -2l-33 4l-53 6
l-31 27h-4q-11 0 -16 -8l-19 -21q-5 -8 -20 -8l-53 2l-150 -4h-10q14 58 25 63l24 13l19 18l45 25l43 39l30 16l35 25l60 30l47 35l53 29l33 33l47 22l47 45l35 21l14 28l35 25l24 47l41 57l11 21q37 11 45 26l14 27l18 18l50 82q13 15 36 15q14 0 35 -17l-6 -20
q21 -31 21 -78v-20l-7 -68l3 -14l-7 -7l13 -18l-11 -31l-2 -45l-8 -32l2 -19l8 -6l5 -37l2 -57q0 -28 -7 -45l-20 -64q-4 -8 -4 -16q0 -17 12 -29t27 -12q12 0 20 2l11 -21q15 2 20 21l16 4l86 -4l70 10l37 -4l39 8l55 21l12 8l9 2l16 -6l18 6l21 16l16 2h6q19 0 19 -28v-11
zM778 911q0 11 -2 13l-31 59l-6 92l-22 17l-35 -52l-29 -6l-110 -98l-207 -139q-32 -21 -37 -66l23 -14l43 6l135 -27l51 13h2q9 0 82 -17q20 -4 29 -4q25 0 49 27l39 -4l8 22v60l2 18q-10 27 -10 37q0 13 8 33q18 18 18 30z" />
    <glyph glyph-name="five" unicode="5" horiz-adv-x="1004" 
d="M936 1337l-18 -26q-42 -61 -46 -66.5t-12 -25.5l-16 -2q-36 -31 -66 -41q-35 22 -43 22h-84l-33 6l-139 -10l-20 2l-23 -10l-10 26v-32l-16 -6l-21 -11l-20 -45l-27 -51l-18 -43l-9 -27l21 -6l133 -20l35 -10h90l41 -5l-4 -8l18 -10l13 14l71 -28l-2 -17l10 -6v-16
q0 -25 19 -25q12 0 37 25q18 -3 20 -6l17 -23l59 -53q14 -17 14 -41v-4l-4 -43l10 -31l-6 -43v-39l-16 -41l-19 -72l-26 -24l-39 -90l-53 -74l-21 -43l-59 -76l-51 -59l-60 -47l-35 -33q-12 -21 -28 -33.5t-49 -42.5l-19 -16l-2 -27l-18 -12l-25 -18l-18 -31l-19 -19l-14 -4
l-6 6l-29 -34l-39 -27l-51 -35l-37 -22l-22 -21q-7 -6 -15 -6t-31 12l-14 -8l-33 6l-28 10h-11h-12l-8 9q6 45 23 45l43 4l73 26l23 5l14 14l21 12l12 17h14l6 8l21 -4q24 0 35 22l12 33l57 43l95 84l38 24l21 37l51 50l14 18q31 8 37 22l15 35l30 45l13 45l63 125l10 101
l11 20l-7 23v28l-14 39l33 25l-25 8q-14 -11 -16 -31q-11 23 -20 32t-48 36l-16 12l2 27q-20 20 -41 20v6l-16 -8l-4 10l-23 3l-82 30l-102 19l-23 6l10 6v14q0 18 -16 27l-25 -41l-81 -4l-54 -55l-26 -9q-49 -22 -66 -22q-10 0 -18 7t-8 17q0 16 24 37l49 41l31 31
q30 43 36 51.5t9 11t16 9.5l7 22l10 29l55 92l21 74l14 30l4 29l51 31l4 18l13 21l16 4l59 -2l27 6l129 4h21l10 -10l24 8l35 12l105 6l38 27q17 8 35 8l19 -2z" />
    <glyph glyph-name="six" unicode="6" horiz-adv-x="1081" 
d="M1040 1599q0 -10 -6 -28l-14 -4l-8 -41l-23 -6q-48 -14 -59 -25l-27 -31l-37 -10l-65 -70q-17 -16 -41 -18l-12 -23l-23 -28l-37 -47q-18 -24 -57 -41q-15 -38 -43 -70l-68 -78l-45 -53l-67 -104l-19 -25l-14 -33q-3 -7 -23 -16l-8 -23l-31 -39l-12 -32l-10 -19
q-12 -24 -12 -39v-2l6 -57l-41 -94l-6 -27l10 -6q-21 -56 -21 -72l-2 -71l-16 -52l33 -34l43 -95l14 -26q24 -10 34 -17.5t15 -17t8 -27.5q17 -6 21 -6t20 8l107 -45q11 8 16 8q10 0 23 -10q15 15 18 15l31 2l84 51l31 14l26 27l47 41q34 29 45 96q31 9 31 23q0 13 -20 30
q10 24 10 41q0 33 -45 86l18 35q-26 16 -41 16l-12 -2l-66 66l-12 4l6 23q0 8 -6 14t-16 6q-11 0 -29 -18l-20 6l-93 2l-38 12l-27 -4l-31 -4l-16 -19l-15 11l-47 -11h-2q-12 0 -12 17q0 12 14 26q117 105 215 105h91h30l8 -12l23 2q17 0 27 -31q22 14 36 14q22 0 43 -11.5
t25 -23.5l16 -45l19 -16h14q24 0 27 -14l10 -47l29 -97l-2 -47q-3 -80 -47 -133l-37 -45l-37 -65l-41 -25l-17 -27q-17 -26 -135 -104q-24 -16 -35 -23.5t-30 -15.5t-42.5 -14t-74.5 -19l-84 -20h-2l-47 12l-80 20l-51 21l-21 14v25l-24 14l-41 49l-21 17q-10 10 -28 43
l12 6l-10 37l-8 -2l-11 59v21q23 27 23 49v8l-6 59l6 41l-8 29l14 16l53 117l39 33l2 41q0 17 15 35l40 53l60 115q16 33 53 45v16q28 18 31 25l24 53l31 41l43 57l33 31l14 22l10 -2v17l21 18l39 57l86 89l37 51l41 28l135 140l51 26l57 39h11q14 0 22 -9t8 -22z" />
    <glyph glyph-name="seven" unicode="7" horiz-adv-x="940" 
d="M1051 1343q-55 -52 -82 -88.5t-37 -70.5l-8 -29l-41 -53l-31 -33q-26 -27 -31 -65l-18 -11l-10 -20l-25 -33l-8 -25l-23 -41l-2 -14l-28 -26l-11 -31q-11 -30 -28 -55l-41 -58l-146 -260l-10 -16l-10 4l-10 -25h8l-15 -26l-59 -109l-37 -53l-6 -21q-10 -10 -18 -10h-13
l2 -35q0 -20 -8 -28l-47 -43l-6 -54l-27 -47l-14 -55q-12 -34 -41 -57l-6 -56q-12 -27 -37 -55v-16q0 -22 -9 -35.5t-34 -38.5l-25 -25l-24 4l-21 -14q-42 -29 -57 -29q-20 0 -39 15q5 23 41 86q17 26 25.5 31.5t29.5 5.5l13 26l8 27q3 14 28 47l15 16q-8 6 -8 17q0 8 4 12
l51 72l6 18q6 16 35 31q-2 8 -2 22q0 9 4 17l80 119l12 55l33 18l2 27l24 31l11 28l41 62l18 39l14 4l13 28l10 33l88 141l47 93q49 61 49 69l2 17l27 49l43 88l45 74l10 55l19 16l-2 25q0 19 14 47l-23 16l-40 -4l-103 2l-31 -2l-36 -2l-3 10l7 -2v7l-11 2l9 8
q-16 12 -29 12q-23 0 -31 -35l-39 6l-51 -6q-2 16 -14 23q-15 -2 -18 -6t-3 -17h-26h-56l-45 -4l-108 -53q-2 -2 -8 -2q-28 0 -31 41l14 16l49 49l76 54l27 28l71 27l19 6q6 1 11 1.5t11 0.5q19 0 56 -10l43 -14l71 -3l37 -18l25 -6l-10 24h14l12 -2l23 -4l61 17l109 -4
l24 6v-23l45 -14q14 10 19 20l6 15l70 35l26 24q16 8 31 8q12 0 20 -9.5t13 -25.5z" />
    <glyph glyph-name="eight" unicode="8" horiz-adv-x="1016" 
d="M938 500l-6 -23l-8 -84q-4 -21 -39 -82q-20 -35 -39 -47l-72 -51l-53 -66l-43 -28l-21 -23l-36 -18l-29 -23l-39 -18l-18 -23l-27 -4l-109 -35l-65 2l-19 -8q-19 19 -29.5 25t-37.5 14l-4 -10l-21 -4q-26 0 -55 16l-49 25l-31 51l-39 20q-9 14 -16 52l-19 102l-2 12l8 13
l7 41l4 32l18 25l35 68l12 18h10l9 -8q20 17 20 26q0 4 -10 21q6 31 22 47q37 44 82 76l45 28l19 15q12 -12 29 -12h8l2 22q17 17 37 25l8 16l-25 12l-35 11l-36 49l-31 24l-10 15l4 12l-29 67q-2 3 -2 9q0 11 16 39l17 -2q16 0 16 12t-20 26q15 58 63 103l150 137l8 10
l37 23q33 21 55.5 28.5t73.5 16.5l20 4l19 -12q25 -17 39 -17h4l47 11l28 -25l60 -37l14 -18q-8 -12 -8 -19t12 -22l13 2q26 0 26 -35l-2 -19l-8 -2l4 -24q6 -28 6 -45q0 -21 -13 -55t-33 -63.5t-40 -45.5l-10 6q-22 -20 -29 -55l6 -8l-14 -2q-11 -15 -17.5 -18.5
t-41.5 -20.5l-17 -9l2 -18l19 -8q78 -26 86 -39l22 -39l64 -66l12 -22q-10 -26 -10 -41q0 -22 10.5 -33t38.5 -22zM766 1057l-18 18l-13 23q-27 48 -104 76l-6 20l-27 6q-8 4 -18 4q-12 0 -15 -26l-12 2l-55 -17l-54 -16l-26 -10l-29 -43l-4 -25l-18 -25l-11 -20v-16l9 -35
l36 -62l-2 -34q8 -23 27 -23q14 0 23 23q23 -19 45 -21l2 -25l10 -4l45 11l63 -4q17 0 64 16l10 16l19 23l22 14q9 6 12.5 17t9 45.5t11.5 68.5zM807 338q0 21 -37 24l10 41l-10 9l-2 18v66q0 16 -35 16q-18 39 -55 76l8 24l-33 23h-43l-71 45l-23 -2l-59 2l-13 -16
q-19 0 -37 -6.5t-57 -24.5l-53 -25l-27 -22l-51 -51q-30 -51 -45 -93q-14 -33 -14 -98v-33v-22l-13 -2q0 -32 15 -43l24 -11l70 -61q28 -25 86 -33l20 -16l11 4q22 -39 49 -39q17 0 22 25l82 -9l41 23l82 43l45 45l21 10l43 97q15 -9 28 -9q21 0 21 25z" />
    <glyph glyph-name="nine" unicode="9" horiz-adv-x="1081" 
d="M1026 989l-2 -22l-27 -56l4 -65l-10 -47l4 -25l-26 -14v-17q0 -19 -17 -51l-65 -119q-20 -20 -23 -27t-6 -36q-17 -18 -21.5 -28.5t-21.5 -57.5l-24 -12q-21 -67 -76 -138q-23 -27 -35 -47l-21 6l-34 -51l6 -4v-24l-37 -33l-47 -49l-17 -27l-141 -168q-33 -38 -51 -50.5
t-41 -16.5q2 -5 2 -11q0 -11 -31 -49l-32 -33l-15 -12l-39 -8q-8 -21 -19 -31.5t-34 -21.5q-3 -1 -6 -2.5t-6 -3.5q-38 -23 -62 -23q-8 0 -32 6l-11 19q-21 7 -39 24q14 29 21 29l33 4l30 14l68 27q20 12 51 41l37 26l27 33l14 -8l37 31l18 33l53 51l27 32l31 23l2 18l18 15
l15 14l26 14l-4 17l15 18q33 42 47 59t23 29t36 54l12 4q5 26 15.5 39.5t36.5 25.5q8 30 18 45l72 101l-2 32l18 37q16 26 20 56l3 30l34 68l6 22l-4 7l-2 20l25 109l-14 81l8 39l-8 21h-13l-14 31q-15 35 -25.5 48t-40.5 33l-24 19l2 20q0 25 -41 33q-18 -12 -31 -12
q-23 0 -76 31l-10 -15l-28 13l-7 -2l-39 -15l-8 4l-2 21l-6 -29l-22 -12l-56 -31l-24 -14l-47 -45l-23 -17q-27 -21 -33 -47l-18 -49l-25 -20q-4 -2 -4 -9q0 -13 17 -26q-9 -30 -9 -43q0 -19 7 -27l30 -55l19 -35l53 -57q33 -33 72 -33q16 -31 41 -31l86 -2l38 -10l23 -4
q16 0 28.5 6t26.5 20l21 -8l14 -2l23 -12q-13 -23 -23 -32.5t-37 -29.5l-41 -28l-20 -6l-94 -25h-58l-22 -2l-23 16l-22 -6l-23 -8l-14 6l-21 8l-10 17l-18 6l-19 -6q-30 8 -39.5 13.5t-33.5 29.5q-34 35 -50 76t-32 120l-7 31l5 21l10 75l24 41l23 41l31 33l10 31l18 10
l15 16l39 31l34 43q19 25 84 64q102 59 132 78t73 53l8 -2l66 12l88 -31l102 -28l11 -17q7 -10 45 -26q45 -21 51 -48l8 -49l31 -55l10 -55z" />
    <glyph glyph-name="colon" unicode=":" horiz-adv-x="571" 
d="M420 580l-29 -56l-16 -12q-26 -20 -32 -26t-13 -21q-27 0 -37 10l-98 94l-23 4l-22 9l10 18l22 18l49 35l25 29l20 12q60 -40 70 -45l29 -12q28 -11 45 -57zM420 92l-29 -55l-16 -12q-21 -16 -30.5 -26t-14.5 -22q-26 0 -37 11l-98 94l-23 4l-22 8l10 19l22 18l49 35
l25 29l20 12q52 -36 70 -45l29 -12q29 -13 45 -58z" />
    <glyph glyph-name="semicolon" unicode=";" horiz-adv-x="571" 
d="M420 590l-12 -19l-17 -32l-47 -41l-16 -23l-25 2l-24 25l-52 41l-26 32q-5 9 -49 17l6 20l28 21l43 31l23 26l24 17l19 -13l76 -43q34 -20 49 -61zM410 0q0 -10 -4 -18l-13 -21v-84q0 -26 -20 -53q-27 -37 -29 -41.5t-6 -20.5l10 -10l-12 -16q-30 -50 -46 -68t-59 -47
l-14 -6l-47 6l-33 -2l-31 8q6 21 11.5 26t27.5 7l7 8l12 -4q15 0 39 27q53 8 59 30l6 19l35 35l14 71l13 21l-11 6v10l3 13l6 14l-11 31l-22 73q-3 15 -37 23l-14 16q-14 23 -19.5 26t-31.5 5l-25 2v20l25 23l38 35l25 35l29 20q33 -8 44 -14.5t25 -22.5l25 -26l10 -56
l19 -88z" />
    <glyph glyph-name="less" unicode="&#x3c;" horiz-adv-x="1149" 
d="M314 567v-9l20 -10l31 -40l7 -5v7q8 -2 22 -2h12l18 -7q9 -1 18 -7t30 -24l15 -13v-16q0 1 0.5 2t0.5 3v23l39 -18q3 -11 7.5 -14.5t23.5 -8.5v-14l13 15q23 -14 36.5 -21t19.5 -10l8 -4q0 -1 1 -1q1 -1 4 -1l31 -18l38 -19l20 -6q1 0 5 2l25 -32v6l16 9l3 -1l6 -3t11 -4
l62 -26q17 -8 32.5 -16t30.5 -21l8 7l33 -13l61 -20q21 -6 21 -50q0 -15 -0.5 -24t-2.5 -9l-39 -25v13l-16 -25l-25 -9l-21 -26l-135 107v4q-1 -1 -5 -1q-3 0 -6 -0.5t-5 -0.5h-6q-8 14 -33 28t-66 31l-29 29v-4l-25 6h-3q-1 0 -2 1l-84 32l-16 5q0 11 -9 20.5t-18 11.5
l-28 5l-33 18q-7 2 -12.5 5t-11.5 5q-12 5 -38 13q-6 6 -13 12q-6 5 -13 11t-14 11q-5 4 -14.5 6.5t-21.5 2.5l-6 -2l-24 11l-31 11l-75 41l-49 18l-51 9l43 61q0 3 -0.5 7t-0.5 7l6 2v-10l19 18l44 17l54 28l48 20l17 9l13 -2q26 0 46 17q17 14 23.5 20t7.5 7l61 21l32 18
l29 7q12 5 20 12t8 18l16 5l75 32l28 2l8 5v-4l32 32q41 17 64.5 30t31.5 26h21v6l138 106l22 -28q2 -2 5.5 -3.5t15.5 -4.5l19 -14l38 -20q3 -2 3 -37q0 -20 -5 -32.5t-16 -15.5l-30 -12q-11 -6 -29 -8l-28 -14l-5 -4l-9 6q-13 -8 -30 -18t-32 -16l-58 -22q-23 -10 -26 -13
q0 1 -15 11v9l-25 -31l-4 2l-16 -5l-40 -18l-31 -22l-10 1l-63 -39l-11 14v-14q-19 -3 -23.5 -6.5t-6.5 -13.5l-42 -20v14l-15 -12q-17 -17 -25 -23t-16 -6h-7q-3 -2 -8 -5t-9 -5q-12 0 -22 -1t-13 -3v8l-10 -12v8q-13 -23 -20 -31.5t-8 -9.5z" />
    <glyph glyph-name="equal" unicode="=" horiz-adv-x="942" 
d="M387 494q4 -41 31 -41q14 0 28 30q21 0 37 11l29 -11l113 -4l86 -16l86 24l22 -6l39 45l14 -18l-12 -23l-8 -22l-37 -35l-16 -18l-31 -15l-61 -47q-21 -10 -35 -10q-13 0 -29 4l-31 10l-12 2l-45 -6l-18 -2l-27 6q-49 13 -74 13h-4l-76 -5h-2l-63 17l-17 6q-20 0 -24 -2
l-37 -8l-12 6l-21 -19q-20 7 -33 7q-18 0 -43 -31q-36 4 -36 22q0 27 38 54l74 55l49 29l62 6l39 6l30 -12l15 -2h12zM397 844q4 -41 31 -41q14 0 29 31q20 0 37 10l28 -10l113 -5l86 -16l86 25l22 -7l39 46l15 -19l-13 -22l-8 -23l-37 -35l-16 -18l-31 -15l-61 -47
q-21 -10 -35 -10q-12 0 -29 4l-30 10l-13 3l-45 -7l-18 -2l-27 6q-49 13 -74 13h-4l-75 -4h-2l-64 16l-16 6q-21 0 -25 -2l-37 -8l-12 6l-21 -18q-20 6 -32 6q-19 0 -43 -31q-37 4 -37 23q0 26 39 53l73 55l50 29l61 6l39 6l31 -12l14 -2h12z" />
    <glyph glyph-name="greater" unicode="&#x3e;" horiz-adv-x="1149" 
d="M770 579q-1 1 -8 9.5t-20 31.5v-8l-10 12v-8q-3 2 -13 3t-22 1q-4 2 -9 5t-8 5h-7q-8 0 -16 6t-25 23l-15 12v-14l-42 20q-2 10 -6.5 13.5t-23.5 6.5v14l-11 -14l-63 39l-10 -1l-31 22l-40 18l-16 5l-4 -2l-25 31v-9q-15 -10 -15 -11q-3 3 -26 13l-58 22q-15 6 -32 16
t-30 18l-9 -6l-5 4l-28 14q-18 2 -29 8l-30 12q-11 3 -16 15.5t-5 32.5q0 35 3 37l38 20l19 14q12 3 15.5 4.5t5.5 3.5l22 28l138 -106v-6h21q8 -13 31.5 -26t64.5 -30l32 -32v4l8 -5l28 -2l75 -32l16 -5q0 -11 8 -18t20 -12l29 -7l32 -18l61 -21q1 -1 7.5 -7t23.5 -20
q20 -17 46 -17l13 2l17 -9l48 -20l54 -28l44 -17l19 -18v10l6 -2q0 -3 -0.5 -7t-0.5 -7l43 -61l-51 -9l-49 -18l-75 -41l-31 -11l-24 -11l-6 2q-12 0 -21.5 -2.5t-14.5 -6.5q-8 -5 -14.5 -11t-12.5 -11q-7 -6 -13 -12q-26 -8 -38 -13q-6 -2 -11.5 -5t-12.5 -5l-33 -18
l-28 -5q-9 -2 -18 -11.5t-9 -20.5l-16 -5l-84 -32q-1 -1 -2 -1h-3l-25 -6v4l-29 -29q-41 -17 -66 -31t-33 -28h-6q-2 0 -5 0.5t-6 0.5q-4 0 -5 1v-4l-135 -107l-21 26l-25 9l-16 25v-13l-39 25q-2 0 -2.5 9t-0.5 24q0 44 21 50l61 20l33 13l8 -7q15 13 30.5 21t32.5 16
l62 26q7 2 11 4l6 3l3 1l16 -9v-6l25 32q4 -2 5 -2l20 6l38 19l31 18q3 0 4 1q1 0 1 1l8 4q6 3 19 10t37 21l13 -15v14q19 5 23.5 8.5t7.5 14.5l39 18v-23q0 -2 0.5 -3t0.5 -2v16l15 13q21 18 30 24t18 7l18 7h12q14 0 22 2v-7l7 5l31 40l20 10v9z" />
    <glyph glyph-name="question" unicode="?" horiz-adv-x="987" 
d="M909 1122q0 -22 -24 -61h-19l-20 -19l2 -22l-21 -19l-36 -43l-66 -53l-18 -18l-17 6q-12 6 -16 6q-11 0 -31 -20q16 -7 16 -19q0 -6 -2 -8l-94 -111q-8 -8 -8 -20q0 -33 37 -70l-19 -8q2 -29 25 -49q-21 -37 -45 -37h-4l-57 10q-42 7 -46 23l-8 31l-12 16l-2 16v9l18 10
v16l2 14l33 31l62 92l63 60q57 51 74 59q43 24 47 35l10 43l23 51l-8 25l-7 10q-12 21 -20 36t-12 19q-7 4 -7 6l-12 17l-20 -4l-99 37l-22 4l6 26l-18 8q-9 0 -27 -14l-4 -14l-17 2l-96 -6l-49 4q-28 -2 -108 -49q-27 -17 -27 -27q0 -13 12 -33l8 -18l-16 -21
q-38 -48 -41 -49l-18 -8l-29 -18q-4 -5 -12 -5l-17 3q-25 3 -32 10t-7 30q0 41 17 60l30 35l15 20l35 23l69 59l66 31l43 22l39 4l45 21h45l31 8q20 -10 26 -10l29 8l129 -4q33 0 47 -14l35 -27q9 -9 57 -18l23 -5q9 -19 43 -67q28 -42 28 -68zM645 84l-20 -21l-15 -24
l-55 -37l-14 -18q-23 6 -27 10l-29 35l-39 37l-26 36q0 2 -0.5 2h-1.5l-35 15l4 16l23 15l57 34l27 25l22 12l27 -26l88 -66q5 -5 8 -23z" />
    <glyph glyph-name="at" unicode="@" horiz-adv-x="1245" 
d="M861 887q-7 -38 -7 -68l-3 -5l-7 -6q0 -5 0.5 -10.5t1.5 -10.5v-12v-28l4 -30v-19l3 -23v-38l6 -33v-30l6 -20h8q2 -14 2 -24.5t2 -14.5l2 -7q2 -7 5 -12.5t5 -11.5l32 -28l27 -4l9 -2l7 1h4q1 0 3 2q5 6 9.5 11.5t7.5 10.5q-1 -1 2 0.5t6 2.5q1 2 1.5 4t1.5 2q0 -1 1 1
t2 5l3 9q2 5 4.5 12t4.5 13v32l27 10l2 7l10 8l6 31q-7 14 -10.5 23t-3.5 17l3 65q0 5 -1 14.5t-1 13.5q21 11 21 17q0 17 -26 22l-49 8v91l-2 9h-4l-45 54l-24 15l-23 19l-18 7l-8 12h-4q-21 0 -36 10l-53 29l-99 15h-65l-30 -8l-32 -5l-32 -20l-16 6l-13 -4l-75 -41
l-13 -2q-9 -11 -18.5 -20t-17.5 -11l-15 -6l-55 -55q-2 -2 -3.5 -2.5t-3.5 -2.5q-25 -20 -50 -63l-9 -19l-15 -3q-2 -11 -4.5 -22.5t-4.5 -19.5l-9 -9l-6 -22l-27 4q-4 -9 -10 -13q16 -12 16 -30v-44l7 -67v-14l28 -44q-23 -12 -23 -14q0 -4 8 -4h5q1 0 6.5 0.5t8.5 0.5
l32 -38l-3 -11l-3 -5l30 -30l35 -18l44 -36q9 -2 20.5 -4.5t19.5 -4.5l22 -24l120 -44q4 0 8.5 -0.5t8.5 -0.5l121 -17q4 0 8.5 -1t9.5 -1l13 2l25 7l67 -3l26 5l48 18l27 8l14 -12l13 48q20 -18 29 -32.5t9 -24.5q0 -29 -36 -46q-26 -12 -47 -20t-35 -11l-15 -3
q-47 -9 -67 -9l-24 2l-21 -3l-21 12l-13 -5q-13 -8 -23 -8h-13q-6 10 -10 16.5t-8 8.5q-39 -19 -63 -19q-10 0 -20 5q-6 0 -9.5 0.5t-6.5 1.5q-11 2 -22.5 6.5t-22.5 6.5q-9 0 -20.5 -0.5t-19.5 -0.5l-14 11l-19 -2l-20 3l-113 28l-24 20l-32 10l-32 35q-9 3 -21 3h-50
q23 52 23 54q0 9 -49 16v9l-3 2l-9 15q-2 2 -5.5 4.5t-4.5 4.5v19q-3 8 -6.5 20t-7.5 21l-12 70l4 60l4 17l4 36l34 87l2 14q8 18 19 31t25 24v6l43 48q10 -5 14 -5l6 16t4 14l13 16q8 18 25 27l20 9q6 9 15 18l49 34l8 4q17 11 27 16.5t17 5.5l4 -1q4 4 8.5 9t7.5 9l13 3
q31 11 62 23.5t62 23.5q12 6 31 6q12 0 32 -6l4 17l41 -6l35 8l50 -2l26 5l25 -3q4 0 10 0.5t11 0.5l24 -7l39 -8l28 -15l86 -33l8 -7l20 -12v-22q20 -3 31 -23v-8q0 -9 4 -13q6 3 16 3q23 0 39 -19l10 -12l27 -24l3 -18q3 -6 8 -10.5t7 -8.5l8 -27q-7 -8 -9.5 -12t-3.5 -6
l41 -41l3 -19l12 -32q0 -7 -3 -23l14 -76l-6 -10q-2 -9 -5 -16t-5 -17q0 -8 0.5 -18.5t0.5 -17.5l-18 -34q-8 3 -10.5 4t-4.5 1q3 -2 3 -6q0 -9 -71 -91l-47 -38l-49 -34h-27q-7 -2 -8 -3l-11 -4h-24l-15 -1l-22 5h-19l-9 11q-3 1 -9 1l-15 12l-28 33l-4 10q-15 5 -23.5 10
t-14.5 10q-1 -1 -2 -1t-3 -1l-13 -4q-60 -29 -200 -29q-39 0 -59 11q-13 0 -25 5.5t-23 8.5q0 2 -0.5 3t-0.5 3q-11 4 -19.5 8t-13.5 8q-6 2 -15.5 13t-24.5 27q7 13 7 16h-1q-1 0 -3 2l-18 15l-10 52v13q0 8 1 17.5t4 18.5q0 1 -0.5 2t-0.5 2v9l36 81q10 25 35 28l5 26
l22 19q5 6 11 12t9 11l14 9l10 8q11 7 27 7q2 0 3 -0.5t2 -0.5h1q5 0 9 -0.5t9 -1.5v13l30 15l23 5q8 5 15 5l15 -1l27 10l21 -12l3 6l41 -9h5q4 -2 11 -4.5t14 -6.5q5 4 10 6.5t11 6.5l51 29q31 -2 49 -29zM735 649q0 19 17 28q-9 5 -10.5 12.5t-1.5 18.5l4 21q0 1 -1 3
t-1 3q0 5 -0.5 12.5t-0.5 12.5v6l-4 6l-7 -1l-12 1l-85 21h-12q-4 0 -7.5 1t-6.5 1h-6q-5 -2 -10.5 -4t-9.5 -4h-20q-6 -5 -13.5 -11t-12.5 -8l-17 -2l-22 -20q-5 -3 -6 -3.5t-3 -3.5l-2 -19l-22 -23l-16 -23q-5 -8 -5 -14q0 -2 1 -5t3 -6l4 -10l8 -33l13 -24l1 -2
q11 -18 26 -32.5t27 -20.5l23 -10l12 -2h11l27 -9h68q5 2 7.5 2t7.5 1l33 10l10 5l14 13l-2 4t-1 3l5 14v6q0 1 0.5 2.5t0.5 3.5l-3 39l1 3l1 13z" />
    <glyph glyph-name="A" unicode="A" horiz-adv-x="1503" 
d="M1503 53q0 -4 -4 -12l-39 -33l-41 -59h-33l-20 -4l-2 18l-12 25l2 20l-2 19q-15 28 -17 49h-16l-8 22l-35 68l-6 35l-51 88q-9 18 -9 41q1 4 1.5 7t0.5 9q-18 9 -28 25q-36 60 -43 98l-35 16q-9 -45 -35 -45h-4l-104 19l-37 -2l-27 4l-143 -19l-84 4l-45 -12l-35 12
l-27 7q-13 -17 -22 -22t-23 -5h-6l-88 6l-33 -8l-43 -2q-22 -5 -49 -68l-18 -39l-11 -4q-29 -77 -75 -145l-2 -21l-15 -22l-55 -123q-6 -18 -45 -27l2 -16q-12 -2 -33 -2q-29 0 -61 22l39 68l28 35l23 37l14 22l14 19v8q41 6 41 37v24l31 37l43 94l25 35l28 62l33 63l39 66
l41 39q4 4 4 10q0 8 -10 18q18 13 26 21.5t15 23.5l-12 19l12 20l16 47q3 6 25 25l-2 10l45 115l35 94q10 26 45 64l-8 22l6 27q6 29 11.5 40t19 16t34.5 9l6 15l-10 30q-4 12 -4 17q0 14 12 20l68 45l14 31q21 26 56 29l12 -41h12l-4 -11l14 -30l29 -37l37 -68l20 -55
l25 -45l-25 -8q0 -11 9 -19q36 -21 36 -39l-2 -18l23 -25l27 -45l14 -24l2 -8l-8 -19l4 -20l14 -19l29 -24l35 -70l18 -31v-24q39 -34 39 -52q0 -2 -4 -14l20 -20l45 -76q6 -9 9.5 -15.5t12 -21t11.5 -20.5q17 -26 19.5 -34t3.5 -28q35 -17 35 -39q0 -2 -3 -4l-4 -43
q0 2 4 -14l41 -21l13 -18l6 -19q4 -15 33 -30v-23l34 -35l33 -55l17 -20q12 -15 19 -32t7 -24zM1092 567l-9 8l4 7l-4 10h-20q-12 14 -19 76l-2 20l-38 10l-48 95h-14l-61 120l8 23l-6 25l-47 24l-72 143q-4 11 -47 46l-12 -9l-13 -41l-8 -2q-12 -42 -18 -52t-25 -28
q-26 -23 -29 -47l-4 -24l-45 -99q-7 -18 -13 -31t-8 -17t-7 -11t-11 -12l-8 -21q-8 -20 -13 -24.5t-22 -5.5l-2 -23q-4 -51 -16.5 -75t-42.5 -44l18 -28q-12 -1 -18 -7t-10 -20l-7 -25l17 -2l33 -10l26 4l23 -8l4 8l18 2l129 -8l82 6l33 -14q7 7 10.5 8.5t21.5 3t56 6.5
l27 4l-4 -10l8 -4q9 0 22 16l27 2q53 5 80 7.5t33 4t18.5 8t24.5 15.5z" />
    <glyph glyph-name="B" unicode="B" horiz-adv-x="1481" 
d="M1407 467q0 -6 -2 -8l-10 -62v-30l-31 -48l-37 -75l-12 -21q-22 15 -29 15l-22 -9l2 -30l-21 -2l23 -13l4 -12l-72 -59l-59 -41q-48 -35 -84 -45q-50 -35 -93.5 -52.5t-93.5 -23.5t-135 -6q-100 0 -150.5 9.5t-121.5 41.5l-14 -21l-43 17l-25 -12q-28 20 -59 24l-7 12h-8
h-12l-66 -6q-9 3 -24 25l-39 6l6 -18l-18 -13q-28 -18 -35 -18q-9 0 -21 6l-6 35l-2 14l27 19l80 34l30 43l17 25l6 190l4 21l-12 29l22 65l-18 -6l-2 45q0 28 8 70l18 8l4 8l-16 51l12 35l-20 49l10 82l-4 23h-14l-11 34l5 27l-9 10l2 15l-4 57l4 51l-8 29l6 18l4 13l-4 14
q-8 14 -10.5 25.5t-5.5 56.5l-2 29q16 8 16 22l-2 14q-28 3 -55 23l-35 -4l-4 10h-8v14l20 19l56 20l20 19q21 18 49 18l37 -4l43 4l25 -8l161 6l15 -14l20 -6l8 8l37 8l82 -8l84 -6q55 -3 94 -29l19 14l37 -8l24 -6h31l27 -6q53 -33 53 -51q0 -30 -21 -62l-10 -24l-16 2
q-23 0 -23 -21l-2 -35l-43 -18l-35 -33l-96 -51l-31 -27v-10l29 -14l29 -23l26 -10l9 8l65 -20q0 -47 19 -47q16 0 32 16l25 2q22 0 32 -6.5t17 -22.5h16l15 -14l16 6l113 -61v-21l20 -10q47 -21 47 -43q0 -14 -8 -31q24 -26 35 -26l16 6q41 -53 41 -82q0 -7 -16 -21l6 -6
l-2 -20q39 -52 39 -80zM840 1221q-96 53 -142 53l-28 -4l-23 14l-24 -4l-101 10l-45 -6q-64 -3 -115 -22l-2 -19l7 -74l-31 -49l-2 -8l2 -8v-14l39 -11l4 -22q4 -46 4 -56q0 -20 -12 -43q35 9 43 15l12 6l78 2q4 1 7 1.5t8.5 2t11.5 3.5t10 3l26 8q18 -14 29 -14q10 0 16 6
l35 33l98 29q22 9 47.5 33.5t34.5 46.5q13 26 13 88zM1219 399l-2 11l-15 88q-11 66 -15.5 84.5t-21.5 35.5q-26 31 -26 35l-11 29l-12 16l-37 11l-20 2q-42 41 -53 45l-148 49l-27 18l-47 6l-34 39q-15 15 -35 15q-14 0 -19 -17l-22 8l-2 -14l-19 -2l-20 10l-49 11h-45
l-45 10l-66 6q-18 0 -53 -18l12 -84l-27 -31l2 -31q6 -54 8 -61.5t15 -28.5l-4 -55l2 -64l4 -24q0 -34 -14 -56q0 -29 14 -51l-33 -31l2 -41l29 -12l4 -20l6 -70l19 -61q-8 -35 -78 -41l-6 -15q25 -5 36 -11t25 -21l27 -5l74 -14l77 -6l103 -23l96 5l129 -2q17 0 33 8l33 12
l32 14l37 33l55 35q23 14 46 63l30 66l19 29l8 41z" />
    <glyph glyph-name="C" unicode="C" horiz-adv-x="1516" 
d="M1509 150q0 -18 -8 -31l-10 -19l-14 -45q-12 -14 -27 -14l-51 -4l-119 -41l-131 -8l-139 -29q-19 -4 -54 -4q-84 0 -131 8l-24 4q-8 43 -47 43q-18 0 -41 -20l4 -13l-195 56l-6 14l-12 -4q-19 0 -60 31l-53 41l-37 26l-16 23l-82 76l-2 26q20 0 20 13q0 11 -10 15t-41 9
l-22 4v25q-20 9 -28.5 19t-20.5 32l8 8l-8 8h-15l-65 176l10 7l2 10l-14 59l-2 60q0 40 20 73q4 0 5 -0.5t1 -1.5q12 0 23 25q-11 26 -11 35q0 13 9 28l65 134l37 24l16 35l23 16l20 19l48 16l38 53q24 27 68 43l74 27l49 23l41 24l98 35q61 22 82 24h66l176 19l59 2l23 -2
l35 -14l51 2l43 -21l24 2q24 0 39 -11.5t15 -31.5q0 -21 -21 -37l-35 -20l-14 -14q-10 -5 -18 -5q-9 0 -13 2l-80 37l-20 2q2 2 2 3v1q0 9 -14 23l-13 2l-55 -8l-74 14l-88 -6l-49 4h-14q-32 0 -60 -10l-65 -27l-31 -2l-45 -24l-37 -13l-69 -39l-21 5l-29 -23l2 -31
q-64 -32 -79 -49l-82 -88l-17 -12l8 -8l-8 -21q-9 -32 -14.5 -40t-24.5 -17l15 -15v-20l-13 -39l-2 -125l-6 -24l10 -25l25 -49l-6 -15l-21 -4l9 -20l41 -47l20 -58l14 -18l6 -22l41 -62l11 -20l18 -17l29 -47l18 -12q15 -15 23 -29l20 -2q21 -18 31 -41l20 -6l78 -35l31 -8
l29 -27q10 -10 88 -26l141 -31q32 -6 57 -6h17l78 6l116 -2l52 25l88 20l43 25l77 28l54 35h8q22 0 22 -24z" />
    <glyph glyph-name="D" unicode="D" horiz-adv-x="1692" 
d="M1626 784l-10 -43l4 -49q-3 -38 -23 -57l-16 -21l-41 -10q-6 -6 -12 -29l4 -4h10l-6 13l20 -15l-10 -14l-6 -25l-16 -26l-23 -33l-78 -49l-39 -62l-34 -24l-68 -72q-26 -23 -45 -28l-74 -25l-18 -8q0 -19 -10 -29l-21 -8l-117 -57l-71 -46q-35 -22 -68 -22q-12 0 -31 10
q-19 -12 -77 -31l-58 -18l-39 -8l-82 -6l-22 -4l-53 20q-40 -22 -76 -24l-6 8q-27 0 -45 16l-37 4v-24q-34 -19 -70 -19q-23 0 -47 6q-84 23 -96 23q-23 0 -23 8v6l15 17l24 6q35 10 41 10l8 -2l17 18q18 20 18 27v31l12 43l2 20v12l13 9q-15 16 -15 37l5 59l2 27l22 22
q-12 18 -12 27l-2 32l-13 25l3 57v70l16 33q4 16 4 22q0 17 -23 33l-2 39v18q0 12 21 27l2 55h-25l-6 21l4 53l-10 78l8 22l-14 29l-2 98l-27 31l23 45l2 15l-6 57l-2 33q-22 3 -41 12l-27 10v29l35 14h78l43 19q19 8 53 8l66 2l36 -12l25 8l18 -11h33l39 -2l37 -4h2l33 6
l67 -22l80 -2l27 -12l112 -13l68 -20l80 -14l55 -19l23 -8l-4 -21l12 -12l-8 -12l4 -4l-6 -8l6 2l35 12l28 8l25 -8l37 -10l22 -15l2 -22l9 -2l38 2q19 0 43 -35h15q26 0 78 -37q56 -38 94 -90l-15 -14l3 -15l12 -20l20 -14q10 -12 19 -46q-19 -8 -19 -20q0 -6 2 -8l29 -43
q4 -8 4 -17zM1444 805q-19 8 -24 15.5t-7 27.5l-8 2v12q0 10 -12 31l-19 31l2 10l-20 18l-49 37q-8 5 -16 13t-18.5 21.5t-23.5 29.5h-22q-25 0 -41 4l-96 51l-43 8l-27 12l-23 5l-4 22q-27 6 -32 6q-10 0 -25 -12q-32 17 -51 20q-21 4 -29.5 5.5t-13 5t-11.5 10.5l-16 16
q-22 -12 -43 -12q-26 0 -41 12l-24 17l-62 10l-143 18l-70 -6l-14 8l-10 -8l-11 -20l-22 10l-4 -29q-2 -43 -11 -65l5 -21q14 -48 14 -55l-2 -18l-12 8h-7q2 -40 17 -64v-28l-13 2q-10 -9 -18 -9h-10l-4 -20l14 -18q21 -8 28 -14.5t7 -20.5q-21 -9 -21 -21q0 -8 2 -10
l21 -49l-6 -178l8 -25l-10 -51l8 -8l-4 -37l4 -55q0 -21 -7 -29t-32 -23l4 -30l35 -21v-24l-4 -121q2 -9 6.5 -27t9.5 -35q6 -12 6 -22q0 -5 -8 -21h-18q-20 0 -33 -33q66 -12 98 -12l133 2l47 -4l150 43l23 2l112 43l76 31l31 12l22 19l74 28l57 56l23 10l12 14l12 37
l41 23l23 34l43 50l8 24q31 0 40 4t9 15q0 14 -26 20q32 32 47.5 74.5t23.5 113.5q6 54 25 103z" />
    <glyph glyph-name="E" unicode="E" horiz-adv-x="1479" 
d="M1438 113l-13 -43l-22 2q-12 0 -17 -6l-20 -43l-27 -19l-8 -10l-37 4l-43 -21h-2l-49 15l-6 2l-113 -4l-32 4l-11 16q-61 -12 -69 -12l-37 2l-25 -4l-8 20h-12l-10 -2l-35 -18l-197 -2l-29 -14q-33 22 -51 22l-10 -2l-51 -14l-58 12l-176 -6q-9 0 -75 24l10 23l24 57
l4 54l11 49v75l6 29l-4 232l4 59l-2 22l-6 23l41 2q-11 24 -19 34t-28 25l-5 17l5 74l-9 127l9 49l4 20l-21 6l-8 21l-4 65l-12 21l-2 10l2 25l8 12l55 -14l-16 14q-15 11 -15 20q0 5 4 17l-16 6l-20 -6q-3 49 -6.5 65t-12.5 19l-39 16l10 21q7 8 33 18l19 6q49 23 75 23h2
t3 -2l147 -25l68 -6l38 -12q37 14 50 14q6 0 8 -2l151 -16l133 8l52 -15l30 7v12q69 7 101 18q44 17 53 17l20 -4q-5 -23 -12.5 -32.5t-32.5 -21.5q-2 -18 -7 -25t-29 -20q-52 -24 -86 -24h-11l-53 4l-45 -6l-92 10l-21 2q-28 18 -55 18q-21 -24 -78 -24l-30 2l-5 18l-20 -6
l-29 -12l-137 12l-22 -33l8 -8v-8l4 -53l-8 -78l4 -29l2 -22l20 -6l137 -13q14 0 41 -20l31 6q28 10 41 10h2l107 -6l63 -2h57q18 0 30.5 3t27.5 11l76 -14l18 4l43 10l78 2l82 11q14 -4 28 -15l21 13q20 16 37 16l22 -2l23 2v-31l-27 -18l-61 -53q-11 -9 -21 -9h-4l-67 9
l-86 -3l-47 11l-168 -11l-31 3q-11 20 -25 20q-8 0 -12 -2l-45 -18l-131 14l-64 -23l-45 13l-37 -23l-110 8l-8 -14l4 -53l-17 -54l9 -16l14 -18l-14 -43q15 -28 18 -41l-4 -33l8 -92v-2q0 -13 -22 -41q26 -33 26 -54q0 -6 -4 -14l-27 -57l29 -51l12 -191l31 -6l135 -47
l45 6q16 0 45 -16q20 18 29 18h4l92 -18l56 6l49 -10l119 8l34 -6l58 -2l20 -7l-6 15l23 4l94 2l20 8l117 21q5 1 23 5.5t22 4.5q6 0 25 -6z" />
    <glyph glyph-name="F" unicode="F" horiz-adv-x="1264" 
d="M1264 1034q-3 -16 -6.5 -21t-32.5 -36l-35 -35q-20 -20 -33 -20h-4l-63 10l-76 -4l-27 14l-45 -4l-96 8l-33 2l-27 -4l-18 21l-23 -7l-40 -22l-31 -6l-37 4l-59 12h-2t-3 -2l-57 -10l-84 8l-55 -8l-25 -4q0 -23 -10 -60q-6 -33 -6 -71v-33l6 -78l2 -53q0 -12 -2 -19
l-25 -90l5 -12q24 -7 24 -20l-10 -27l-2 -18l12 -5l4 -8l-16 -37l8 -34l-4 -43l16 -66l2 -109l2 -59q-2 -17 -9.5 -24t-37.5 -23l-18 -10l-2 6q-33 -6 -43 -17l-15 -14q-2 -2 -6 -3t-12 -2.5t-14 -2.5l-23 -4l-4 47q0 23 6 33t21 20l-2 15q0 6 8 26l-19 31l7 20l14 176l8 21
l-10 37l18 61v11v18l-10 6v10l-6 6l4 25l-6 31v24q0 11 10 21l-2 53l-16 10l4 140q12 10 12 30v15q-16 13 -21.5 26.5t-5.5 44.5l2 31q19 27 19 45l-2 21l-21 -7l-4 25l11 41q6 21 6 45q0 25 -8 35.5t-29 15.5l4 43l-29 13q0 26 13 32l61 17l80 26l96 -4q50 -4 72 -12
q38 -16 51 -16h2l43 10l29 -13l37 -2l55 -10l37 4h147l225 33h29q-2 -27 -20 -45q-53 -59 -105 -59h-12l-234 -2l-41 10l-114 2l-21 10q-16 4 -37 4l-6 -6l-4 -10l-26 2l-101 8q-21 0 -47 -10l14 -10l-16 -11l4 -43q-20 -17 -20 -26q0 -11 14 -39l10 -23l-10 -53l27 -2
l6 -10l12 4l29 -8l61 -4l35 -19l12 8l4 11l39 -7l111 2q36 0 102 -12l19 12h14l219 5l47 -9l64 23l37 2l63 16z" />
    <glyph glyph-name="G" unicode="G" horiz-adv-x="1505" 
d="M1409 80q0 -30 -14 -55l-19 2l-14 -2l-27 -15l-69 10l-68 -24h-104l-129 -16h-7l-43 4q-53 -27 -94 -27l-20 2l-64 8l-145 6l-39 9l-55 10l-27 6l-8 25q-19 0 -29 12q-23 -10 -28 -10q-11 0 -37 16l-21 10q-2 27 -18 45q-20 -8 -29 -8q-6 0 -10 4l-10 10l-45 43l-27 54
l-25 28l-28 41l-15 35q15 28 17 55l-11 15l-36 6l-17 37q-10 15 -10 28q0 9 2 19v2l-14 80q-2 8 -2 26q0 25 10 54l-12 20l12 64q3 36 8 55.5t18 38.5q-2 4 -2 10q0 7 13 31l6 22l39 17l-2 35q0 12 4 16l51 65l25 45l26 23l27 39l49 37l16 28l95 39l32 25l37 6l13 10l18 13
l20 10q54 20 86 24l89 2l43 19l83 8l52 10l96 -12h14h17q26 -29 30 -29q14 0 27 19h10l4 8l23 -4l57 -25l39 -2q25 0 25 -20q0 -16 -29 -27q-31 -24 -45 -24l-18 6q-19 -39 -41 -39h-9l-39 14l-45 12l-32 23l-47 12l-45 17l-117 -9l-68 -2q-57 -3 -86 -20l-67 -41l-66 -31
l-82 -57l-35 -16l-22 -46q-49 -9 -49 -34q0 -12 8 -25l-19 -24q-12 -21 -30 -31l6 -29l-10 -24l-33 -107l-12 -31l-9 -37l4 -22v-21l-6 -18l-8 4l4 -16q-24 -16 -24 -29q0 -9 16 -27l31 -10v-26q0 -15 6 -29q-19 -16 -19 -29q0 -6 5 -12l26 10l10 -20l21 -68l22 -39l-8 -37
l12 -20h11q18 0 29 -11t22 -40l8 -21l10 -10l-24 -14l14 -11l37 9l27 -19l20 -12l23 -21l39 -14l69 -43l35 -12l-6 -21q36 -4 47 -8l31 -10l84 -2l20 -13l21 9l75 6l41 6l21 2q14 0 33 -10l20 12q32 14 45 14h2l31 -2l39 6l-2 11l18 8q26 8 31.5 11.5t19.5 17.5l4 -7
q35 12 35 31l-8 31l2 78l-8 112l16 35v8q0 21 -22 37l-4 21l-4 37l4 22l-21 2l-76 6l-51 4l-20 -2l-43 -4q-4 0 -21 6l6 29q14 4 18 7t15 22l15 16q29 -12 55 -12h16l236 14l28 -2q23 -38 23 -59q0 -14 -21 -25v-18h13l-2 -37l2 -21q0 -16 -3.5 -23.5t-15.5 -17.5l11 -49
q14 -19 14 -47q0 -29 -8 -55q-23 -2 -30 -9.5t-7 -33.5l51 -45l-2 -64z" />
    <glyph glyph-name="H" unicode="H" horiz-adv-x="1567" 
d="M1430 94l-52 -45l-16 -33l-14 9l-13 -7l-12 -22l-55 -25l-4 4l-23 7l-2 26l4 25l19 35l-7 30l5 25l10 59l14 51l-8 66l-2 20l26 19q1 10 1 25q0 29 -15 63l17 53l-21 19l12 53l-10 6l6 168l-12 10l-10 41l-8 -8q-18 0 -24.5 -3t-18.5 -17l-25 -27l-39 16q-40 -12 -47 -12
q1 0 -25 4q-27 21 -47 21q-3 0 -4.5 -0.5t-3.5 -1.5l-104 -9l-105 13l-86 -7l-43 11l-65 -19l-101 11l-26 -3l-31 23l-10 -25l-123 2q-25 -24 -25 -45l12 -79q3 -11 3 -33q0 -20 -11 -39l6 -62q-14 -9 -17 -17.5t-3 -25.5q8 -13 29 -18l2 -43v-131v-6l2 -25q0 -9 -13 -18
l2 -21l15 -61l2 -21q0 -44 -41 -65l-51 -25l-45 -26l-27 -13l-6 9h-10q-11 22 -11 40q0 21 5 29l22 51l10 35l15 6l2 33l-17 16q15 28 15 33t-15 31l-2 18l8 166l-10 45q0 23 17 35l14 12q5 5 8 23q-31 11 -31 37v4l7 76l-13 32v115l-4 57l2 31l-16 -2l-4 -4l-8 27l8 -8
l4 38q37 21 37 43q0 31 -41 37l-15 70v16l-6 80v64l25 10l33 24l53 25l39 16l30 -12q0 -19 13 -41q-15 -16 -17.5 -26t-5.5 -50l-2 -24l19 -70l4 -41h-9l-18 -47l14 -16l-4 -21l-10 -18l-10 -21l4 -22l8 -17q8 -16 8 -65l23 -6l178 -10l27 -19l67 -8l21 2l6 10l69 -4l9 -2
q14 12 28 12l21 -2v-8l12 -8l23 2l110 2l41 4l37 -12q18 26 43 26h4l51 -4l97 9l57 -3l20 5l7 22l18 45l-4 115l4 24l-14 23l-25 25v43l-6 45l12 22q-12 41 -12 64q0 19 12 22l27 4l31 23h24q15 4 39 28l29 -14l10 -47l8 -27l-29 -106l7 -55l-4 -23h-11q-14 0 -14 -20
q5 -12 20 -19l19 -10l6 -27l6 -41l-2 -12l-16 -31l4 -182l-4 -156l16 -24q-8 -36 -8 -55v-3v-4v-12v-24q-21 -22 -21 -31q0 -4 2 -4l27 -47l-6 -136z" />
    <glyph glyph-name="I" unicode="I" horiz-adv-x="492" 
d="M356 1315l-4 -31l-6 -33l-20 -34l14 -105q0 -21 -23 -68v-18l15 -6l-2 -31l4 -82q0 -23 -4 -33.5t-19 -25.5l15 -23l-2 -30v-27l-21 -35l10 -26q9 -22 9 -29l-5 -55v-60l-14 -47v-8q0 -15 16 -25v-37l3 -22l2 -43v-16l-19 -56l19 -10l-7 -16l9 -56l-4 -94l6 -39l2 -26
q-91 -82 -125 -82l-12 2l-3 -11l-36 -8l-17 25q19 35 19 55v23l26 88v30v35l45 8l2 9q0 9 -10 26l-24 -2l-5 4l-6 -6l4 33l2 45l7 74l-2 39l18 28q-18 17 -21.5 26.5t-3.5 35.5t15 55l-15 16v29l2 96q0 9 -2 13l-4 20l-2 21q13 12 13 28l-19 21l8 16l-8 74l12 37v4
q0 16 -20 35l-2 20l-6 88l6 37l-14 21l2 32v58q11 18 30 18l52 4q12 2 32 39l35 10l33 13q-2 0 14 -4q6 -22 6 -31z" />
    <glyph glyph-name="J" unicode="J" horiz-adv-x="1116" 
d="M979 1032q0 -2 -0.5 -4.5t-1.5 -5.5l-16 -35l6 -45l-13 -24l15 -52l-11 -37l9 -86v-6q0 -6 -4 -14l-15 -16l19 -41v-41l-2 -60l-15 -41l6 -37l-2 -22l-2 -62q0 -27 -30 -45l-4 -16l-15 -2v-12l27 -2l-2 -25l-15 -51q-13 -49 -20 -49l-41 -27l-12 -16v-37q-29 -2 -47 -19
l22 -20l-82 -70q-73 -63 -160 -63q-9 0 -30 6q-25 -12 -76 -12h-39q-44 0 -98 20q-12 35 -35 35q-4 0 -15 -3.5t-22 -4.5l-22 -4l-37 14l-62 33l-57 20l-27 23l-20 14l-19 154v14l39 27l17 -21l36 -80l44 -34l38 -39h23q65 -56 117 -56l26 2l17 -14q23 -25 32 -25
q13 0 27 17q23 -10 49 -10h39l55 2l43 18q94 53 109 90l10 25l31 49l6 27l14 12l-2 26l4 29l13 72l12 114l10 25l-2 25l2 57l-2 14l6 6h17q12 -6 16 -6q12 0 27 17q-26 28 -64 30l-2 27l-10 111v12l6 80q0 10 -2 12l-16 37q-6 0 -6 27v12l4 59l2 39q0 4 -2 6l-15 33
q-4 12 -4 21q0 19 13 49l2 16l-9 2l-10 -4l-16 14q-25 22 -25 31v2l55 35l58 39l49 18l12 21l25 4q24 -28 24 -57l-4 -46l-8 -6q0 -2 -0.5 -4t-1.5 -4q0 -10 21 -16v-31v-14l-19 -52q0 -4 2 -10l19 -12l10 -49z" />
    <glyph glyph-name="K" unicode="K" horiz-adv-x="1464" 
d="M1464 53l-18 -26q-4 0 -6 -0.5t-4 -1.5q-19 0 -35 -11q-22 -15 -123 -49l-18 -4l-11 -12l-18 10l-29 41l-35 20l-16 15l-16 -4l-17 16l-164 111l-59 67l-57 31q-64 36 -78 84l-19 -4l-32 22l-72 48q-21 14 -21 20l-2 33l-10 22q-25 -28 -45 -28h-8l-57 34l-41 21l-80 63
l-27 13l-10 -39l4 -232l-2 -43l-8 4l-8 -16l2 -22l4 -39l18 -27q2 -2 2 -4l-2 -70v-12l-10 -8l10 -33v-6l-49 -23l-39 -26l-10 8l-47 -19l-17 -2l-28 -10l-15 27l11 24q12 33 17.5 46.5t8.5 21.5t4 12l11 90l6 29q22 5 30.5 14.5t8.5 30.5l-2 35l-29 -4l-8 41q0 21 20 37v22
q-14 20 -14 41v19l2 77l-2 84l28 15l7 10l-13 57l13 17l-21 10q-4 10 -5 17.5t-1 47.5l-2 23q22 12 27.5 21t5.5 30l-35 17l-4 26l-4 66l-6 35l4 40l-23 23l2 12l-8 78l-2 66l-31 37l2 12l140 67q23 13 40 13q27 0 27 -35v-19q-13 -9 -17 -15t-7 -17q32 -29 32 -74l-2 -27
q-45 -15 -45 -45q0 -26 47 -26l-4 -189q-37 -11 -37 -24q0 -4 2 -7l31 -59l-6 -24l2 -74l-6 -23l-21 -20l19 -6l18 6l31 14l59 47q37 23 47 25q36 10 43 13.5t12 12.5t9 21l25 10l73 45l33 25l18 22l46 33l102 102l35 17q4 20 24 47l13 16l22 -2q10 0 23 13l-6 10l6 8
l-11 21l31 43l25 30l88 43l63 37l4.5 1.5t3.5 0.5q10 0 16.5 -6t6.5 -16q0 -26 -39 -62q-40 -38 -58 -55t-26 -25q-38 -50 -50.5 -60.5t-39.5 -14.5l-10 -19q-35 -62 -60 -74l-26 -12l-103 -98l-71 -43l-88 -64l-41 -41l-29 -30l-18 -15q0 -13 3 -18t13 -8q14 -21 37 -37
q109 -64 133 -92q3 -2 5 -4.5t3 -4.5l16 -51h33q3 0 7.5 -2t9.5 -4l90 -67l47 -27l39 -35q22 -15 29.5 -22.5t15.5 -24.5l31 -2l79 -74v-41l58 -2l14 -18l19 -10q-7 -15 -7 -27q0 -16 15 -31q11 -14 22 -14q9 0 21 6l4 16l16 4q11 0 39 -18l2 -20l12 -5l76 17h4q19 0 43 -25
z" />
    <glyph glyph-name="L" unicode="L" horiz-adv-x="1243" 
d="M1243 109l-12 -19l-23 -14l-20 -21l10 -22q-25 -27 -39 -27l-41 -4l-28 -18l-23 -7h-2l-53 9l-138 -6l-129 12l-100 -6q-34 0 -49 12l-27 14l-22 4v-22q-31 -10 -51 -10q-31 0 -80 10l4 -8l-31 4q-8 1 -14 3t-15 11l-20 -2l2 -6l-27 -6l-131 -15l-22 -4q-25 0 -25 19v18
l39 15v14l14 10q3 38 9 51.5t26 30.5l-8 29l4 102l-4 27l21 32l-23 17l14 33l7 30l12 25l-15 29l5 22l-5 17l3 28l-5 31l7 76v45l18 39l6 22l-24 10l-7 111q16 4 23 18l-10 52l-21 4q-14 63 -14 149q0 35 10 64l-10 22l-6 58l-13 24h-12l-16 27l20 18l25 10l29 25l57 18
l16 11l21 6l22 -8h13v-13l6 -6l-2 -73l2 -35q0 -18 -4 -24.5t-15 -14.5l-6 -21l6 -6l15 2v-12l-7 -6l13 -41v-2l-6 -64l6 -57v-21l-8 -79h-15q-10 -25 -10 -33q0 -30 27 -39l-2 -23l2 -157q0 -68 -15 -113l-8 6q-10 -13 -10 -20q0 1 4 -17l22 -6l5 -33v-30l-1.5 -2l-1.5 -2
l-4 -99l-2 -30q-16 -14 -16 -23q0 -7 16 -20l2 -58l-6 -59q0 -27 19.5 -39t60.5 -12q20 0 66 6l6 -8l24 -2l33 -15l21 -2q14 2 24 21l125 -7l78 3l84 10l14 -2v-21q35 -12 47 -12q10 0 31 6q0 14 5.5 20.5t21.5 14.5l16 -2q21 0 59 16q10 -11 17 -14.5t16 -3.5q26 37 76 37z
" />
    <glyph glyph-name="M" unicode="M" horiz-adv-x="1769" 
d="M1632 94q0 -33 -33 -71q-27 -29 -43 -29q-2 0 -14 4l-18 -12q-22 -17 -35 -17l-16 2l2 25l8 57l-2 41l18 121l-10 53l-6 117l-6 41l2 100l-4 66l4 39l-15 129l13 26l-17 7v24l-14 60l2 57l-10 24l-25 -6l-8 -12l4 -29l-53 -80l-2 -22l-17 -16l-10 -27l-14 -21l-6 -36
l-27 -60l-4 -22q-33 -27 -45 -49l-33 -74l-90 -154l-64 -119l-16 -24l-59 -55q-11 -9 -11 -17l1 -1t2 -3q6 -24 6 -31l-2 -10q-19 -3 -27.5 -11.5t-15.5 -27.5q-13 -35 -21.5 -48.5t-22 -20.5t-40.5 -13q-26 29 -30 38t-7 30l-8 8q0 21 -25 33l-8 -8l-15 26l-24 66l-21 28
l-22 62l-25 37q13 24 13 45q0 16 -7 22l-32 27l-125 248l-31 65h2l6 27l-16 33l-6 30l-21 -10l-12 21q-31 53 -39 73t-20 60q-26 0 -33 16l-15 -33h-16l-4 -8q14 -21 14 -41l-6 -76q-1 -18 -2.5 -28.5t-5 -16t-14.5 -20.5l24 -49l-4 -25l-2 -71l-6 -43l6 -216l-12 -32
q14 -29 14 -58v-8v-12q-26 -3 -34 -13t-11 -40l37 -13l2 -22v-23q0 -30 -8 -37l-76 -51l-37 -30l-14 -3l-21 3l-2 12l-4 18l19 47v97l16 120l-2 64l-2 22l4 31l-2 25q15 11 18 33l11 6q-3 19 -7 24l-12 25q0 5 -0.5 8t-1.5 6q0 15 17 33q-17 29 -17 51v6l6 123l-6 107l2 22
l33 -10q10 13 10 22v7l-45 4l-4 49l33 2l4 20q0 18 -29 29l-10 55h10l2 13l-16 98l2 47l-18 39q0 20 36 37l19 -4l12 26l21 9l45 34q15 11 26 11l21 -5q1 -19 6.5 -27.5t23.5 -17.5q2 -13 6 -23.5t13.5 -25.5t26.5 -43l-9 -22l-10 -33l4 -12l31 -15l24 -75l-20 -31l12 -6
l8 -21q30 -2 50 -37l32 -71l37 -105q-26 -23 -26 -37l10 -24l22 -2q17 -2 22 -7t11 -22l-18 -29q11 -14 20 -14h12l13 -18q39 -73 39 -88l-8 -31l-7 -23l19 -10l20 -4l23 -31l39 -41l10 -39l22 -20l27 -66l23 -24l32 -64l17 -14l24 23l72 81l37 64l33 61l49 84l92 215l37 56
l10 63l51 115l8 31l13 4l12 10v8l16 8l-2 17l-18 8q8 42 20 49l19 8l18 15q-12 21 -30 45q16 22 16 36q0 7 -2 11l18 20l31 47l59 49q38 33 46 33l24 -6l-6 -68l8 -8l19 2q28 0 28 -16l-2 -39l-8 -33l-12 4l-4 -18l14 -37l4 -213v-10q0 -16 -8 -27l-27 -37q-4 -4 -4 -24
q8 -12 16 -15.5t25 -3.5l2 -37l-4 -165l16 -72l9 -125l8 -84q0 -17 -8 -41q13 -16 16 -27t6 -57l4 -78v-2z" />
    <glyph glyph-name="N" unicode="N" horiz-adv-x="1337" 
d="M1202 918q-4 -10 -22 -19q14 -31 14 -37l-4 -82l4 -65l-12 -47l4 -66l-6 -92l6 -53l-6 -35l4 -94l-2 -27l-6 10q-17 -13 -17 -24q0 -20 29 -39q8 -36 8 -55q0 -40 -15.5 -75.5t-56.5 -99.5l-14 -22l-39 -23l-8 23l-47 72l-60 75l-45 78l-16 21l4 22q0 24 -35 51
q-49 41 -55 50l-55 98l-29 35l-18 51q-17 41 -64 41l-12 24l-58 95l-16 53l-33 37l-6 -8l-16 10q-69 117 -131 149q8 25 8 37q0 25 -19 25l-22 -8q-16 16 -27 16l-20 -10l22 -47l-24 -9l6 -16l-8 -43l4 -86l-6 -29l-17 -8l2 -24l17 -58q2 -2 2 -2.5v-1.5q0 -16 -25 -49
l8 -41l9 -23v-294l12 -86v-2t-2 -5l-12 -57l2 -12q18 -10 18 -23t-49 -84l-12 -18l-23 2q-19 -23 -31 -23h-2l-22 2l-17 -4l2 25q3 28 9 37l22 28l17 25l-23 20l6 23l12 29q-10 30 -10 34q1 2 1.5 3.5t0.5 3.5l15 53l-5 115q9 15 31 20v10l-22 27l4 22l-4 21l6 57
q0 1 -0.5 2t-1.5 2l-13 43l7 58l-4 41q0 20 28 39l-2 24l-14 33q0 10 6 29q-18 15 -18 32q0 18 12 62l-10 14l-2 29l-9 69q0 7 9 29v23q0 61 -11 75l-45 56l8 22l25 15q25 14 35 23t16 26l17 10l47 55q4 4 12 4q23 0 35 -28l45 -88l18 -23l17 -31l-6 -6q24 -24 63 -90
l51 -86q17 -30 17 -35q0 -12 -9 -22l41 -23l-6 -18l17 -21l41 -59l30 -29l11 -33l90 -96l-19 -10q5 -20 13 -26.5t32 -10.5l47 -65l-14 -2l27 -19q28 -20 36 -32t11 -38l14 -14l-2 -14q0 -22 14 -47l23 -15q43 -19 45 -22l43 -66l22 -14l29 -25l10 23l-2 121l21 49
q-21 22 -21 39q0 10 2 14l13 41l6 143l16 31l-12 31l8 47v2q0 13 -24 23l-5 260q14 1 18.5 7.5t6.5 26.5l-31 23l-4 35q-5 44 -12.5 58t-30.5 14q-4 16 -4 24q0 37 86 59q14 21 24.5 29t45.5 23q12 -20 12 -37l-4 -29l6 -22l-2 -39l2 -84q0 -25 -6 -43l-8 -41v-2l16 -66
l-4 -49z" />
    <glyph glyph-name="O" unicode="O" horiz-adv-x="1866" 
d="M1798 662q0 -7 -2 -11l-18 -59l2 -51l-15 -27q-4 2 -14 2q-6 0 -11 -10t-5 -23q0 -4 2 -6q20 -33 20 -43q0 -8 -4 -14q-21 -20 -29 -45l-22 -10l6 -7l-6 -6l16 -12l-2 -6l-18 -17l-23 -38l-16 -17q-14 14 -23 14q-18 0 -18 -20q0 -8 16 -29q-31 -52 -102 -96
q-74 -47 -153 -85t-122 -46l-20 -4q-75 -14 -94 -14h-4l-39 2l-25 -4l-37 22l-28 -12q-19 -13 -27 -13h-8q-8 19 -16 27.5t-25 15.5q-62 -32 -96 -32q-12 0 -23 8q-22 0 -24 2l-70 20l-59 -2l-23 19l-33 -4l-28 4l-41 12l-127 29l-35 28l-45 17l-47 49q-16 12 -47 12l-27 31
q8 19 8 29q0 31 -74 43v8l-12 4l-12 22l-10 11v22l-21 60l-4 20l-16 88l6 86l8 25l6 55l49 129l6 23q21 52 66 77v13l51 57q12 -4 14 -4q15 0 21 12l14 43l19 25q11 22 30 33l31 14l27 33l63 43q63 41 72 41l16 -6l27 32l18 4l189 74q16 8 39 8q21 0 51 -12l16 6l6 19l29 -4
l16 -3h5l49 13l78 -4l38 8l33 -4l31 2l35 -12l59 -11l43 -24l123 -45l12 -11l23 -14v-10l-4 -2q-8 -8 -8 -15t22 -20l4 8q23 0 35 -22q0 -23 4 -30.5t19 -21.5q15 9 28 9q26 0 43 -21l17 -22l36 -33l5 -23l24 -30l6 -27q-16 -21 -16 -35q0 -6 2 -10l61 -62l4 -22l17 -47
q0 -3 -4 -25l-15 -8v-10l17 -2l4 -23zM1638 831q0 45 -57 54l-6 55l-49 76l-8 31l-13 2l-18 22l-45 53l-41 27l-41 33l-19 6l-12 22h-20q-28 0 -43 11l-88 49l-88 12l-64 12l-61 -2h-47l-50 -14l-45 -6l-45 -27l-24 6h-2l-25 -8l-111 -61l-26 -4q-28 -40 -49 -47l-27 -11
l-88 -86l-16 -12q-36 -27 -74 -98l-10 -19l-21 -4l-10 -20l-12 -52l-13 -14l-6 -20l-41 6q-5 -17 -10.5 -22.5t-19.5 -12.5l-3 -10q37 -23 37 -45l-2 -70l15 -102l-2 -25l32 -53q-24 -15 -24 -29q0 -9 9.5 -17.5t23.5 -8.5q5 1 8.5 1.5t11.5 0.5l37 -45q-12 -18 -12 -23
l8 -16h8l41 -39l53 -29l74 -61l57 -11l31 -32l104 -39l86 -37l29 2l184 -27l29 -2l23 2l39 10l100 -6l43 9l76 30l28 8l15 -12q31 9 34 19l9 32l100 86l41 72l16 29h13l12 26l-6 11l6 18l4 82l16 39l5 29l14 10l10 61q-20 36 -20 56v2l4 96l-2 31q30 19 30 40z" />
    <glyph glyph-name="P" unicode="P" horiz-adv-x="1327" 
d="M1300 1087l-16 -55q-9 -35 -21 -45.5t-49 -19.5q-18 -6 -24 -9l22 -18q-7 -26 -32 -51q-26 -2 -37 -7t-25 -22l17 -8l-39 -31l-52 -22l-22 -17l-59 -14q-8 -1 -54 -29l-35 -20l-14 4l-45 -16l-84 -21l-53 -18l-49 4l-29 -15l-29 2l-20 -8l-27 4q-29 0 -59 -12l-84 -35
l-21 -8l-4 -18l9 -115l-9 -21l15 -100v-8v-12q-31 -3 -31 -23v-4l25 -55l8 -129l4 -49q0 -26 -21 -33l-32 -10l-31 -29l-25 -2l-47 -25q-8 -4 -10 -4q-23 0 -23 27q0 10 2 14l21 37l-6 59l20 162l-14 74l18 102l-4 37l17 62v30h-15l-2 21l4 18l13 29l-2 16l2 25l-15 20
l-6 113l4 27l2 45l9 30l-15 37v2l4 68l-2 16l17 10l-4 56h-25q-6 30 -6 47q0 18 6 63q1 0 1.5 1l0.5 1q0 6 -3 9.5t-7 3.5l-31 10l-16 14l-19 2l2 37l17 6l80 31l53 21l200 -11l43 8q17 5 54 5h37l65 -7l45 -2l17 2l36 2l7 -2l16 -18h90l51 -20l25 12l63 -12l19 -19
q19 -19 30 -22l76 -5l68 -38l37 -21q-6 -12 -6 -14q0 -13 22 -29l2 -27zM1151 1067l-16 31l-7 24l-71 72q-14 19 -19.5 23.5t-17.5 9.5l-12 -10q-137 55 -220 55h-4h-92l-84 14l-57 -20l-129 4q-28 -5 -42.5 -21.5t-14.5 -42.5l-3 -76l-2 -20l-18 -12q16 -11 23.5 -21.5
t7.5 -23.5q0 -7 -4 -15l-13 -47l13 -41v-51l10 -119l-4 -16h-10q-21 0 -21 -21q0 -15 10 -18l31 2h90l25 4l16 -22l29 6l73 20l138 15l80 24l69 23q43 13 51 26l21 29l39 27l4 16l27 16l10 15l69 65l13 41z" />
    <glyph glyph-name="Q" unicode="Q" horiz-adv-x="1866" 
d="M1939 -8q0 -38 -41.5 -68.5t-101.5 -36.5l-186 -14l-94 -14l-109 14l-43 -2q-26 0 -66 16l-94 35l-41 6l-41 19l-61 10l-25 16l-18 13q-26 -15 -41 -15q-12 0 -16 4l-17 17l-22 12h-1t-3 -2l-103 -25l-92 31h-72l-33 17l-135 22l-67 21l-21 4l-26 26l-47 19l-46 49
l-49 16l-24 31l4 25q0 14 -6 20l-74 39q-19 10 -39 90.5t-20 149.5l8 69l10 37l2 43l53 133l4 15q15 33 66 100q33 45 47 45q12 0 18 -2q19 11 25.5 20.5t9.5 32.5l17 14l43 48l198 125l23 20l31 8l184 70l45 4l20 2l21 -12q27 19 40.5 23.5t45.5 4.5h22h3h8l61 4l37 2
q7 1 21 1q42 0 88 -9.5t67 -19.5l49 -27l115 -45q18 -11 18 -22l7 -29l10 -18l16 4q15 0 39 -21l-10 -8l16 -35l31 -6l41 -8l27 -31l30 -22l13 -35l22 -31q10 -17 10 -27q0 -6 -2 -8l-12 -28q0 -3 -0.5 -4l-1.5 -3q0 -14 33 -20l12 -21q33 -52 33 -94q0 -15 -17 -35l19 -16
l6 -111l-4 -22l-21 -92l-16 -13q0 -14 -4 -22l-10 -16l12 -31v-6q0 -18 -33 -54l-20 -26l10 -23l-45 -67q-12 10 -25 10q-9 0 -22 -10q-2 -4 -2 -11q0 -11 12 -32q-54 -81 -254 -170l25 -21l73 -10q12 0 33 -31l12 -16l21 -8l8 10q88 -16 158 -16q47 0 80 9t63 29
q57 39 74 39q24 0 24 -22zM1632 799l-8 26l-6 23h-31l-6 16l-6 56l-29 41l-26 59l-41 41l-39 47l-33 20l-12 27l-9 -6l-24 16l-33 27l-59 12l-82 47l-94 19l-76 16l-47 -4h-49l-41 -12l-50 -6l-51 -25l-28 2l-127 -61l-33 -9l-55 -47l-29 -10l-51 -51l-51 -47l-39 -45
l-41 -62l-25 -16q-13 -7 -16 -31q-8 -41 -17.5 -58.5t-27.5 -17.5q-13 0 -21 2l-31 -26q0 -12 6 -17.5t37 -19.5l-10 -27l4 -36l-4 -74l8 -41l2 -35l15 -25l10 -24q-18 -18 -18 -37q0 -9 6 -12l45 -15l33 -39q-7 -11 -7 -16q0 -17 37 -41l13 -29l43 -26l34 -29l107 -43
l45 -39l57 -20l51 -19l50 -4l43 -16l18 -8q41 18 88.5 30.5t77.5 12.5q15 0 35 -17q17 10 20 10h31l20 5l33 -23l31 -2l51 -14l51 18l35 6l51 47l21 -10l33 25l22 32l64 41l36 45l19 23l14 -12l21 37l-2 24l-2 23v4l8 24l4 39l35 74l8 45l4 27q-18 36 -18 57l4 98v37
q24 12 24 23z" />
    <glyph glyph-name="R" unicode="R" horiz-adv-x="1403" 
d="M1417 35l-22 -15l-25 -18l-37 -10l-71 -25q-30 -8 -64 -8h-35q-33 49 -39 51l-51 31l-24 20l-13 15q-26 32 -26 33l-9 57l-38 14l-33 49l-39 15l-23 32l-16 5l-14 16l-33 27l-19 22l-28 16l-35 41l-21 21q5 13 5 22q0 23 -17 27l-49 10l-14 17l-58 43l-28 43l-35 18
l-29 27l-26 10l-64 49l-20 6l-7 -26l-10 -25l-2 -47q14 -8 14 -20q0 -11 -2 -15l-8 -24l-4 -58l-4 -45l4 -28l-8 -25l14 -25l-2 -20l-6 -53l2 -33l21 -162v-6q0 -19 -13 -31l-20 -18l-17 -15h-34q-17 0 -31 -14l-53 -43q-4 -4 -19 -4q-20 0 -20 12q0 7 24 60q11 19 11 51
l2 68l12 34l-6 74l10 18l16 -2q13 0 18 8.5t5 32.5l-14 13q-23 17 -23 39l6 39l-10 12l-2 33l2 45l8 77l-8 97l6 47l-12 26q3 14 37 25v37q-14 18 -27 18l-2 45l-4 78l6 39q-13 24 -17.5 41t-4.5 49v6v39l-7 6l7 74q0 29 -19 57l-39 23l4 27l21 6l14 6q64 26 127 29l72 4
l31 4q20 -19 30 -19h2l101 19l22 -13q3 0 4.5 -0.5t3.5 -1.5l25 2l70 -2h141l106 -18l68 -4l55 -29l62 -18q34 -10 51.5 -38.5t17.5 -68.5q0 -36 -18 -86l-35 6q3 -25 18 -34l-10 -23l-22 -22l-13 -17q-4 -4 -32 -4q-4 -6 -4 -14l8 -17l-13 -16l-22 -12l-45 -52l-33 -12
l-33 -22l-20 -2q-9 -27 -29 -37l-24 -10l-31 -11h-25l-49 -16l-14 -2h-8l-29 -23q-9 6 -16 6t-13 -4q-2 -4 -2 -8q0 -9 15 -22l-7 -17q-20 -17 -20 -26q0 -1 4 -11h21q12 13 30 15l21 -23l-10 -8q3 -31 20 -31l20 2l21 -26l57 -64l39 -35l43 -51l-6 -26l43 -23
q8 -19 12.5 -23.5t30.5 -23.5l45 -49l31 -35l16 -18v-13q0 -19 10 -32l41 -13l19 -14l35 -33l102 -63l21 -21q4 0 5.5 -0.5t2.5 -1.5l63 10h2q14 0 39 -22zM975 1130q0 44 -25 62l-32 25l-35 26l-33 2l-47 17l-10 2h-17l-12 28l-27 4l-14 -24l-141 12l-13 -10l-16 2
l-139 -16h-21l-16 -19q-21 0 -29 -16.5t-8 -69.5l2 -65l2 -43v-27q-29 -23 -29 -39q0 -24 37 -33l8 -22l-4 -33v-29l-8 -47q3 -24 43 -41l-2 -8l90 2l13 -12l18 4l33 4l65 25l23 -9l22 11l90 32l33 23l68 29l49 81l55 60l4 33l19 51z" />
    <glyph glyph-name="S" unicode="S" horiz-adv-x="1335" 
d="M1253 471q0 -24 -10 -57l-41 2l-14 -6l4 -27q22 -12 22 -37q0 -41 -8 -53l-53 -70l-18 -30l-39 -41l-39 -37l-21 -11l-157 -102l-78 -25q-28 -12 -43 -12q-4 0 -21 6q-29 -16 -67 -16l-47 2h-91l-32 8l-119 8l-66 37l-28 -6l12 -10l-29 4l-28 4l-78 57l-53 7l-56 34
q-35 25 -35 35q0 20 16 49.5t38 53.5q28 33 63 38l15 -75q21 -10 27 -17t11 -28l23 4l20 -13l17 -24l67 -19l68 -30l137 -29q35 -22 41 -22q14 0 17 20l14 2l125 -8l39 20l22 -8l37 8l43 15q36 12 51 32l29 39l35 37q8 14 16 47q39 0 39 25l-4 20l-2 25l16 18l31 93h10
l-4 59l-20 55l-8 23l-29 2l-74 45l-90 35l-20 22l-29 17l-21 -11l-6 -10l-137 6l-31 37l-24 -31l-23 5l-57 12q-57 11 -87.5 20.5t-51.5 24.5l2 22l-35 15q1 0 -17 -4q-36 27 -46.5 42.5t-24.5 61.5l8 2l-20 23l-3 32l-4 33v10l13 41l12 23l12 31l33 24q23 17 23 58l18 14
l109 82l47 28l77 39l107 35l25 8l26 4l62 7l30 12l101 -12l45 2l28 -11l50 -12q51 -13 51 -33q0 -8 -2 -14q-20 -7 -21 -8l-26 -23q-24 -17 -80 -32l-21 12l-53 39l-29 4l-82 16l-47 -2l-55 -2l-98 -51l-70 -35l-47 -37l-23 -26l-43 -76l-39 -27l-8 -24l27 -15
q-4 -10 -4 -22q0 -10 10 -33l-39 -20l10 -23l21 -8l37 -6l39 -33l82 -37l22 -20l70 6l61 -6l4 -13l25 4l35 4q10 0 14 -2l53 -12l27 -6q7 -47 26 -47q2 1 3.5 1.5t3.5 0.5l45 29l53 -4l39 2q32 0 61 -25l51 -45h2.5t8 0.5t10.5 1.5h2q14 0 70 -70l16 -20l4 -27z" />
    <glyph glyph-name="T" unicode="T" horiz-adv-x="1423" 
d="M1411 1296l-18 -14l-25 -43l-80 -31l-37 -24q-12 -6 -24 -6h-2l-58 10l-135 4l-94 10l-90 -6l-35 6l-14 -2l-11 -47l5 -25l2 -32v-9l-11 -47l2 -36l-4 -31l6 -23q-24 -2 -30.5 -8t-7.5 -29q33 -5 36 -18l-4 -72v-47q0 -30 -39 -65q5 -9 9 -14.5t12.5 -8.5t17.5 -4l6 -12
q-13 -8 -17.5 -16t-6.5 -27l24 -27v-49v-43q0 -16 -14 -31l10 -24l-4 -27l8 -37l-4 -29l2 -24l2 -41q-38 -16 -38 -45q0 -24 36 -43l15 -168l-15 -12l-18 -9l-53 -45l-19 -2h-14l-12 -14q-12 8 -19 8l-12 -4l-12 27q2 6 2.5 9.5t1.5 6.5l8 45l-8 53l8 78l6 115l10 86v23
l19 24l-25 92l10 64l-6 84l-4 57l-2 2q0 16 19 70l-7 22q-22 55 -22 76v2l2 29l-12 51l2 29l-13 73l-4 25l31 61q21 12 21 23q0 10 -2 16l-56 11h-18l-21 2l-45 18l-90 -8l-137 14l-148 -8l-24 4q-25 -29 -45 -29h-6l-29 4l-29 5q1 30 7.5 42.5t23.5 26.5l74 58q31 14 87 14
h27q12 -29 33 -29q20 0 47 23l45 -4l88 -29l74 4l58 -14l116 -6l49 -27l23 -2l2 8l25 -2q63 -5 78.5 -8t31.5 -17l35 -8l18 13l33 2l43 18l74 -2l49 10q31 -10 51 -10q97 0 187 45l12 -6z" />
    <glyph glyph-name="U" unicode="U" horiz-adv-x="1640" 
d="M1503 1300l-2 -61l-20 -74l2 -37l-4 -28l12 -47v-2q0 -18 -23 -56l-14 -26l-22 -6l14 -21q23 -31 30 -42.5t7 -22.5l-10 -60v-33l-13 -4l8 -10l-8 -33v-4l19 -121l-6 -24q-25 -11 -25 -27t27 -37l2 -86l-9 -24q-4 -16 -4 -15q0 -11 13 -34q10 -22 10 -41q0 -17 -14 -39
q20 -22 24 -29l-2 -80l4 -100v-13q-25 -5 -41 -14.5t-63 -46.5l-9 -14l-18 2l-39 -31q-10 22 -10 41q0 35 16 53h15q-1 16 -6 22t-23 11l2 100l8 7l-6 47q-9 6 -16 6q-2 0 -4.5 -0.5t-6.5 -1.5l-10 -11h-16q-13 0 -19 -6l-24 -16l-41 -18l-150 -103l-49 -18l-65 -35l-88 -31
l-68 -20q-39 -19 -61 -19h-37l-62 -20l-55 -2l-35 -4l-31 4l-73 14l-45 21l-33 10l-41 39l-16 18l-33 -4l-21 16l-10 21l-37 29q-10 15 -10 63v16l-31 17l-12 35l-14 61l-11 23l29 51q-26 22 -36.5 40.5t-10.5 43.5q0 24 8 41l25 59l2 80l16 16q20 -4 27 -4q14 0 14 13
t-20 22v41l-21 6l25 123l10 23l10 18l23 70l16 24l8 23l25 24q-4 17 -4 33q0 36 45 100l-19 13l-22 -13q-8 34 -8 39q0 16 16.5 28.5t38.5 12.5l25 -2l8 19l26 4l99 47l28 12q21 -25 21 -43q0 -11 -8 -16l-21 -17l-43 -63l-14 -10l-2 -31l-27 -41l-37 -51l-22 -35l-25 -98
l-24 -76l-5 -59l-28 -80l-2 -37l-17 -76l9 -49l-11 -37l35 -113l2 -22q-12 -1 -20 -12.5t-8 -26.5q0 -19 34 -25l11 -24l18 -47l47 -66l8 -22l21 -9l37 -30l94 -29l61 -16l37 -13q26 -30 39 -30q11 0 29 36l116 7l21 -19l22 10l72 27l27 21l76 34l51 43l24 4l68 43l47 13
l8 12l-18 12l22 15l33 26l62 99l30 24q8 11 8 41v12v60l2 74q15 12 19 20.5t4 32.5l-35 26l-10 224l12 20q-10 18 -10 29q0 17 10 43l-10 8l-2 25l-8 86q0 12 16 39l-45 47l12 32h19q31 32 51 39l23 8l20 13l27 -4q17 29 25 35t32 6l10 -27v-23z" />
    <glyph glyph-name="V" unicode="V" horiz-adv-x="1190" 
d="M1178 1300q0 -19 -15 -47l-16 -26l-10 -53l-68 -146l-27 -102l-20 -25q0 -28 -6.5 -41t-28.5 -35l-35 -34q0 -73 -18 -103l-39 -67l-37 -123q-31 -71 -31 -84q0 3 4 -15l-12 -22l-20 -55l-17 -27l-12 -59l-20 -48l2 -38l-37 -52q-8 -13 -8 -39l-35 -22q-85 -54 -127 -64
l-21 39l-47 129l-20 78v2v27l-8 22l-9 -2l-30 84l10 23q-16 5 -22.5 11t-14.5 22q8 24 8 28q0 8 -2 17q-8 10 -16 18l-31 18q-8 3 -8 31l2 25l-10 16l-9 33l-30 27l-35 92l-16 26l2 27l-25 35l31 26l-19 19h-18q-10 0 -17 2l-61 119q12 18 12 28l-6 23l-33 12l-30 57l-19 27
l-6 43l-12 23h-12l-23 34l8 17l2 18q0 8 17 23q37 0 61 16t47 55q14 9 21 9q2 0 14 -4l12 -37l11 -29q0 -8 -17 -27h23l4 -24l12 -60q2 -6 2 -16q0 -21 -18 -39l24 -4l4 -27q0 -18 9 -22l22 -21l21 -73l36 -60l9 -57l26 -45l-12 -33v-26q0 -24 3.5 -30t18.5 -9q12 14 21 14
q2 0 4 -2q4 -4 6 -4l33 -101l45 -108q4 -12 4 -23l-4 -39q15 -15 18 -34q14 6 21 6q11 0 14 -10l17 -54l51 -94l-6 -35v-2q0 -21 15 -39t32 -18q15 0 22 18l78 197l27 47q3 21 9.5 27t29.5 6v26q0 31 10 62l-8 16l24 53l23 72l31 19q10 10 10 16v2l-10 47l51 135v15v24
l16 15l-14 61l8 12l-10 15l18 30l-6 13l12 12q2 18 3 21t11.5 23.5t20.5 43.5l14 33q-14 19 -14 24q0 15 17 41q4 8 10 8l69 19l64 22q31 -3 31 -41z" />
    <glyph glyph-name="W" unicode="W" horiz-adv-x="1604" 
d="M1589 1362q0 -16 -14 -41l-12 -61l-7 -43l-30 -107l-10 -27l-23 4l-16 -4l-4 -24l28 -10q-2 -27 -5.5 -35.5t-18.5 -20.5q0 -60 -29 -96l-31 -45l2 -31l-8 -33l-6 -32l-23 -49v-27q0 -14 -20 -62l-12 -30l-13 4q-6 -17 -20 -25l4 -32l12 -5l-6 -28l-31 -78l-24 -45
l-2 -47l-4 -27l14 -37l-12 -20l-29 -41l-4 -41l-8 -25l-4 -28l-25 -37l-10 -47q-6 -26 -22 -42t-36 -16l-24 9q-3 23 -6 26l-21 37l-16 90l-14 45l-15 2l2 47l21 6q-8 19 -17 27.5t-30 13.5l4 48l-4 28q11 4 18 15l-10 12l-6 2l-8 20l-27 109l-33 57l-22 111l-33 67l-15 21
q12 1 18.5 6t12.5 18q-12 13 -22 13q-6 0 -10.5 -0.5t-10.5 -1.5l-4 14l2 53l-14 37l-2 19q-8 14 -21 14q-8 0 -12 -8l-39 -142l-20 -20l-21 -33l-20 -51l2 -51q-2 -34 -37 -51l-2 -23l-12 -25v-57l-15 -20l-8 -23l6 -6l-6 -23l-37 -118l-12 -54l-8 -26q-4 -16 -4 -25
q0 -14 12 -37q-17 -6 -23 -12t-10 -20l6 -7l-12 -32l-10 -66q0 -5 -19 -20l-16 -13l-2 9q-20 15 -28.5 30t-20.5 56l-23 73l-24 111q-14 37 -31 65l10 21l21 37q0 7 -19 22l-4 -10l-35 4l-8 27l-8 63l-8 19l16 51l-6 16l-33 2l-39 95l8 18l-2 14l-2 23l-28 -4l-9 30l-20 33
l-35 90l-22 23l-21 74l-12 18l8 29q0 14 -8 22l-29 27l-31 108l-47 68q0 2 -0.5 3.5t-1.5 2.5q0 12 33 49l23 -2l10 15l22 14l35 18l27 19q30 -20 35 -47l30 -123l9 -25q-24 -14 -39 -14l-19 2q6 -39 49 -39l21 2l8 -31l14 -43l17 -26l4 -25q22 -27 22 -43q0 -13 -26 -22
q10 -19 10 -31q0 -14 -10 -29l20 -16l29 -8l2 -33l33 -35l10 -35l10 -33l-12 -12q27 -19 37 -43q32 -72 57 -213q16 -80 45 -80q2 0 2 2h4l23 39l28 29l13 20q-17 17 -17 31q0 10 4 14l50 82l12 62l33 96l2 33l12 35l2 77l16 27l7 39l16 35l-2 41l16 74l17 108l20 19l15 24
l-9 23l11 24q32 0 59 25l37 -8l16 -29l23 -21q10 -8 16 -77l2 -25l-26 -12q0 -33 8.5 -43.5t34.5 -10.5l14 -79l6 -19l31 -63l2 -25v-8l-15 -12l23 -27q-7 -18 -27 -20q9 -20 16 -25t25 -8q24 -50 27 -123h-14l10 -21l18 -24l6 -76l29 -92l16 -64q13 -18 35 -22l6 -25l9 27
l41 98l2 19l28 45l19 30l-19 23l6 16l19 15l43 176l18 28l17 105l22 88l4 14q16 6 23 31l8 21l-18 24l18 62l6 38l-2 41l23 21l30 39l80 39l13 22h10q9 0 13.5 -3.5t4.5 -10.5z" />
    <glyph glyph-name="X" unicode="X" horiz-adv-x="1333" 
d="M1374 80q-22 -19 -29.5 -32.5t-13.5 -41.5q-29 -9 -49 -22q-10 -21 -16 -23l-27 8l-20 2l-52 37l-37 25l-36 22v8h-9l-14 17l-22 35l-15 14q17 24 17 37q0 6 -4 14h-9q-10 0 -51 -14l-24 22q0 25 -7.5 35.5t-29.5 14.5l-56 77l13 4q-10 21 -33 21l-43 47l-12 21l-54 63
l-4 31l-16 16l-10 -20l-15 22l-43 47q-3 3 -10 21l14 8q0 24 -14 33q-16 -8 -20 -8q-3 0 -15 4l-14 -17l-29 -39l-51 -67l-49 -82l-19 -12l-16 -21q-2 -32 -28.5 -68t-67.5 -67q-9 -36 -18 -55t-33 -52l-15 -18q-17 10 -22 10q-12 0 -27 -18l17 -25l-54 -63l-94 -51
q-16 8 -31 8q-2 0 -22 -4l-21 22v10l138 121q38 33 47 51l12 27l80 84l8 25l102 153l37 51q18 12 21.5 16t3.5 15v6l14 19q47 60 47 88q0 4 -2 12q15 19 15 25q0 7 -17 24l-47 41l-31 31q-25 33 -33 40t-28 17l-4 29l-19 12l-22 25l-33 20l-35 68l-78 65l-69 86l-29 23
l-14 12l8 29l29 29l12 24l63 35l23 14q39 -20 59 -61l2 -8l-12 -4l8 -25q10 -6 25 -6q44 -31 62 -56t24 -59h-16l14 -33h27l14 -22l37 -58l28 -26l27 -51q-25 -27 -25 -39l7 -17h16q12 0 33 -14l8 16l18 -18q12 -12 21 -22.5t10.5 -14.5t3.5 -20q49 25 68 69l26 64l60 82
l33 57l22 39l18 31l15 6q13 45 53 98q11 14 33 16l26 19q-8 16 -8 24q0 15 13 15l26 4l86 33q24 0 27 -27l-21 -18l-51 -68l-31 -22l-26 -41l-19 -7l-26 -12q12 -21 12 -29q0 -17 -49 -41q-11 -48 -17 -55l-26 -35l-41 -55l-25 -24l-12 -19l-31 -2l15 -39l-45 -39l-4 -18
q-11 -46 -21 -70l25 -26l47 -31l41 -56l32 -26l11 -41l18 -25l23 -10l24 -29l29 -28l10 -35l33 -10l-12 -13l12 -26l31 -2l12 -23q15 -38 31 -47l69 -43l25 -14q0 -6 -0.5 -9t-1.5 -6q0 -20 16 -45q15 3 20 8.5t5 24.5l96 -74l25 -4q31 -5 42.5 -8.5t15.5 -12t11 -40.5z" />
    <glyph glyph-name="Y" unicode="Y" horiz-adv-x="1282" 
d="M1270 1333q-3 -51 -23 -76l-43 -59l-43 -82l-33 -22l-34 -90l-15 -15l-22 -33l-25 -16q-14 -14 -14 -25v-26l-27 -41l-26 -49l-17 -13l-41 -79q-8 -18 -55 -52l-21 -14l15 -31l-15 -20l-36 -47l-21 -37l-16 -14l-2 -39q-2 -30 -7.5 -42t-25.5 -30q5 -20 11 -28t22 -17
l-6 -100l-13 4l-14 -11l6 -53l16 -2l5 -92l-21 -6v-17q29 -21 29 -39q0 -3 -6 -18h-21h-20l-23 -6q-19 -5 -51.5 -15t-42.5 -10q-21 0 -39 25l4 24l12 74l7 49v7l-5 75q0 7 15 29l6 16l-6 6l-25 3l4 24l17 23l4 22l-2 39l2 31h16q0 21 -3.5 29.5t-16.5 19.5l12 8l-10 23
l-49 39l-45 57q-18 10 -39 12q0 43 -13 56l-71 65l-2 57q0 12 -9.5 21.5t-19.5 9.5q-3 0 -25 -4q-1 26 -9 37t-38 26l-14 -6l-27 31l-86 90l-33 45l-18 21q29 3 29 20q0 10 -8.5 17.5t-20.5 7.5q-3 0 -25 -4q-63 80 -63 127q0 18 9 37t20 24l61 29l49 26l13 2l14 -4l16 2
l11 -12l-15 -45l4 -16v-17l41 -47l4 -20l-2 -35l33 -27l-8 -30q-6 -16 -6 -27q0 -7 12 -21l41 7q42 0 55 -23l29 -51l20 -33l7 -20l-15 -11q23 -34 39 -34q4 1 7 1.5t10 0.5q37 -50 60 -75t66 -59l-14 -8q12 -31 37 -45l10 10l58 -57q6 -49 39 -49q11 0 26 10q1 1 25 21
l20 18l62 86l24 27l53 96l52 70l16 51l23 43l14 59l41 62l6 20l51 -6q-1 22 -8 29t-29 10l9 20q18 44 32 54l41 26q64 42 92 45q-1 0 15 -4z" />
    <glyph glyph-name="Z" unicode="Z" horiz-adv-x="1362" 
d="M1413 127q-11 -38 -17 -50t-16 -18l-100 -57l-31 -20q-17 -13 -41 -13q-4 1 -7 1.5t-7 0.5l-74 25q-18 6 -35 6h-8l-47 -4l-90 14h-80l-37 2l-22 15q-25 -15 -37 -15q-5 0 -25 6q-19 -12 -34 -12l-89 2h-34q-22 19 -35 19q-4 0 -8 -2l4 -19l-47 -4q-28 19 -33 19
q-7 0 -19 -23q-125 0 -215 -18q-34 -7 -59 -7q-22 0 -41 13q-27 -6 -39 -6q-20 0 -39 16l15 6l14 25l14 22l41 33q19 13 45 57l23 6q6 35 18 50l49 71q31 45 43 56t37 16l-8 18l25 45l22 35q5 9 19 25l14 -4l14 24l-12 9q6 16 27 38q37 41 79 113l21 -8l31 33l-13 47l49 73
l13 7l8 -2l12 32l-12 11l20 24l99 152l14 12l6 27l17 14l41 63l16 17l-4 20l24 39h-38l-93 -4l-39 4l-22 -10l-107 10l-47 -8l-108 6l-29 -4l-18 33l-56 -10l7 -17l-197 -12q-11 -16 -25 -16q-24 0 -24 26q0 19 14 29l51 41l49 47l41 -16q36 16 52 16h8l129 -19l139 -8
l19 -8l45 14l45 -8q14 -24 24 -24q-1 0 13 4q5 24 24 24h4l82 -6l105 8q31 0 71 -14q38 16 62 16q19 0 43 -20l-52 -86l-10 -4l-14 8l-16 -12q-10 6 -15 6q-4 0 -10 -6q0 -19 3 -28.5t15 -22.5l-16 -19q-26 -36 -37 -44.5t-33 -8.5l-6 -6h-22l-4 -23q22 -8 22 -22v-6
l-35 -48l-22 -36l-33 -33l-4 -33l-33 -37l-57 -90l-25 -10l-6 -66q-49 -52 -86 -121q-6 2 -18 2q-10 0 -25 -12l4 -12q0 -7 -14 -23q-26 0 -45 -14q3 -24 4 -25l14 -24q2 -2 2 -6q0 -13 -57 -99l-12 -18h-52q-5 -16 -18 -18v-25q27 -12 27 -31q0 -13 -43 -67l-17 -25
q24 -17 42 -23t50 -6h19l69 2h25h23q47 0 66.5 -4t51.5 -22l41 24l72 -2l111 2l20 -2l8 -20l21 4l28 18l62 -10l160 2l26 -6l17 16q20 -10 34 -10q20 0 64 33l16 12q23 -2 37 -14z" />
    <glyph glyph-name="bracketleft" unicode="[" horiz-adv-x="891" 
d="M881 -139l-11 -43q-10 -22 -20 -25q-19 -4 -21 -6l-20 -16q-23 -14 -27 -19l-8 -10l-37 4l-43 -20h-2l-2 20q0 4 -4 4l-4 -2l-51 -14l-58 12l-176 -6l-75 27l8 22l26 55l4 54l11 49v76l6 28l-4 481l4 60l-4 22l-6 23l41 4q-18 37 -46 57l-4 17l4 73l-8 127l6 50l7 20
l-21 238l-10 22l-4 64l-10 22q-3 2 -3 10l3 23l8 12l53 -12l-16 12q-13 9 -13 23q0 10 2 16q-12 4 -14 4q-4 0 -20 -4q-6 79 -19 84l-41 17l10 18l35 18l19 9q39 18 69 18q6 0 11 -2l147 -23l68 -4q18 -4 38 -12l43 12l72 13l53 18l19 -4q-3 -26 -11.5 -35.5t-33.5 -19.5
q0 -24 -10 -31l-43 -23l-19 -8l-29 15l-49 -15l-141 10l-21 -32l11 -6v-17l4 -45l-8 -311l4 -29q1 -4 1.5 -8t0.5 -14l2 -62l-6 -51v-4l4 -53l-17 -54l9 -14l14 -20l-16 -43q18 -25 18 -41l-4 -33l8 -92v-2q0 -15 -20 -41q26 -37 26 -54q0 -6 -4 -14l-29 -63l29 -45
q16 -27 16 -37l-14 -328l12 -86q12 2 15 2l151 -45l45 6l25 -6l20 -4q26 45 58 45z" />
    <glyph glyph-name="backslash" unicode="\" horiz-adv-x="1083" 
d="M1083 -248q-15 -18 -28 -23t-39 -5q-46 0 -101 18q-3 16 -8 23.5t-22 15.5l-2 22l-17 47l-6 44l-6 24l-8 10l-21 -4l-12 27l-18 31l-19 57l-57 92q-4 9 -4 18q0 12 8 27l-37 14l-74 140q6 10 10 14.5t5 7.5q2 6 2 9q0 17 -37 20l-10 20l12 21l-10 14l-21 17q-4 0 -12 -7
l-19 29l-28 76l-39 63l-14 25q-4 7 -4 12q0 1 2 11l14 6q-3 39 -17 39q-3 0 -26 -9l-12 31l10 23q-48 19 -51 32l-15 62l-96 158l-14 55l-142 270l-28 94l-41 70l-31 53l16 31l29 12l43 -6q59 -3 82.5 -15.5t30.5 -45.5q-20 -17 -23 -25q-2 -4 -2 -7t2 -11l19 10q8 -5 8 -11
q0 -7 -2 -12q0 -1 -1.5 -4t-2.5 -4l18 -4l2 -20l12 -54l33 -69l15 -49l8 -27l-4 -45l16 -31l12 4l11 -24l38 -72q13 -20 13 -41q2 -44 4.5 -54.5t13.5 -10.5q7 0 23 4l6 -21l22 -43l-10 -37q0 -15 39 -18q4 -18 4 -24q0 -7 -2 -9l-14 -25l18 -8l27 -14l18 -39l29 -45l20 -55
l25 -37q-9 -9 -12 -17q0 -13 32 -41l27 -43l39 -81q0 -8 -0.5 -11.5t-0.5 -8.5q0 -16 5.5 -20.5t24.5 -7.5l10 -26l12 -27l86 -127l-4 -33l21 -14l36 -74l66 -110l12 -45l8 -17h27l57 -73l17 -41z" />
    <glyph glyph-name="bracketright" unicode="]" horiz-adv-x="891" 
d="M653 -211l-10 -18l-35 -19l-18 -8q-40 -18 -70 -18q-6 0 -10 2l-148 22l-67 4q-22 5 -39 13l-43 -13l-72 -12l-53 -18l-18 4q3 23 11 33.5t34 21.5q0 24 10 31l43 22l18 8l29 -14l49 14l142 -10l20 33l-10 6v16l-4 45l8 312l-4 28q0 6 -0.5 11.5t-1.5 11.5l-2 61l6 52v4
l-4 53l16 53l-8 15l-14 20l16 43q-18 24 -18 41l4 33l-9 92v2q0 13 21 41q-27 37 -27 53q0 6 4 14l29 64l-29 45q-16 25 -16 37l14 328l-12 86q-12 -2 -14 -2l-152 45l-45 -7l-24 7l-21 4q-25 -45 -57 -45l-37 8l10 43q11 21 21 24q17 4 20 7l20 16q22 10 27 18l8 11l37 -4
l43 20h2l2 -20q0 -5 4 -5l4 2l52 15l57 -12l176 6l76 -27l-8 -22l-27 -56l-4 -53l-10 -49v-76l-6 -29l4 -481l-4 -59l4 -23l6 -22l-41 -4q11 -23 17 -31.5t28 -26.5l4 -16l-4 -74l8 -127l-6 -49l-6 -21l20 -237l11 -23l4 -63l10 -23q2 -2 2 -10l-2 -22l-8 -13l-54 13l17 -13
q12 -10 12 -22q0 -10 -2 -17q12 -4 14 -4q5 0 21 4q5 -77 18 -84z" />
    <glyph glyph-name="asciicircum" unicode="^" horiz-adv-x="1087" 
d="M729 1055l-18 3t-12.5 5t-14.5 11t-22 22l-17 14q6 16 6 25q0 10 -8 20l-22 2l-17 25q-18 32 -29.5 41.5t-29.5 9.5l-45 -4v-15l-19 -18q-51 -47 -59 -68l-14 -28l-23 -29l-16 -24l-31 -21l-31 -29q-14 -12 -41.5 -22t-46.5 -10q-10 0 -26 16q24 37 36 43l70 39l27 39
l67 61l10 27l62 63l41 45l106 68l27 27l14 10l25 29q33 0 33 -25q0 -6 -6 -16l-27 -43q0 -17 22 -45l-8 -9l2 -18l27 -14l24 -11l62 -61l16 -19q-8 -14 -8 -38l66 -25l10 -25q4 -10 6 -17t10 -13l72 14l12 -14q-67 -88 -131 -88l-39 10l-2 22q-31 15 -61 15z" />
    <glyph glyph-name="underscore" unicode="_" horiz-adv-x="1024" 
d="M933 -253l-13 -45l-16 -23q-35 -50 -65 -74q-30 -26 -43 -26l-52 12l-17 -8l-9 -2q-9 0 -13 6l-27 33l-15 6q-12 -27 -24 -27q-11 0 -58 17l-17 6l-15 -9l-77 13l-171 -17l-54 7l-37 6l-14 2l-15 -4l-42 -17l-12 8q-16 -28 -30 -28q-9 0 -20 20q5 22 16 37q46 55 83 82
l25 18l43 2l22 7l18 -11l22 -6l-1 -14q16 -16 29 -16h13v16l19 8q37 16 64 16q8 0 25 -12q22 23 34 23q7 0 13 -4l21 -13l69 -4l197 -35l14 -2q34 0 65.5 18.5t46.5 47.5q13 0 18 -14z" />
    <glyph glyph-name="grave" unicode="`" horiz-adv-x="586" 
d="M449 1071l-23 -35q-10 -2 -20 -2q-14 0 -37 10l-9 -4q-6 20 -6 21l-28 45q-10 18 -33 33q-11 30 -28 45.5t-48 25.5l-14 25l-19 29l-24 26l-23 39q26 14 35 14l51 -8l66 -2q35 -2 50.5 -10t25.5 -27q-15 -9 -23 -20l8 -21l10 -38l46 -70l10 -33l-8 -8q5 -14 10.5 -17.5
t17.5 -3.5z" />
    <glyph glyph-name="a" unicode="a" horiz-adv-x="1098" 
d="M1001 68l-10 -19l-16 -24l-29 -11l-41 -22l-39 -12q-37 -15 -43 -15q-7 0 -13.5 7.5t-6.5 13.5q0 10 10 45q5 10 8 35l-20 -13l-90 -30q-27 -13 -54 -13h-2h-39l-47 -22l-32 -4l-93 -19l-38 6l-27 -10l-19 -4l-30 2l-66 14l-45 4q-46 6 -79.5 31.5t-49.5 65.5l-27 10
l-6 25l-2 18l-14 47l37 74l12 33q6 13 37 38l78 64l33 12l55 23q1 0 4 -0.5t6 -1.5q20 43 76 43l6 6h21q13 16 26 22t49 13l125 22l37 -4l47 10l84 9q43 10 43 41q0 4 -2 6l-10 45l8 65q-3 21 -15 30.5t-36 12.5l-14 23q-22 36 -36 46.5t-53 18.5l-57 13l-55 2l-27 -4
q-9 4 -14 10t-8 18l-27 -12l-31 -29l-98 -49q-31 -17 -41 -33l-14 -20q-10 -16 -27 -16l-20 4l-29 14l-31 6q-15 5 -30 17t-15 22q0 6 2 6l17 12l32 25l35 6l53 27l66 22l18 4l43 23l35 -6l121 26l51 -2h39l41 -14l119 -23l18 -10v-14l-14 -8q6 -35 25 -35l3 1.5t3 0.5
l28 12h4q10 0 13 -10l20 -37l21 -16v-23l-4 -51q0 -33 32 -57l13 -148l-27 -37l31 -36l2 -13l-6 -94l8 -72v-16v-23l-14 -4q2 -25 3 -32t7 -20.5l14 -31.5zM842 242q-15 13 -19 22l4 41l-8 92l12 27l-32 18l-17 -4l-92 6l-43 -2l-33 23l-20 -12l-55 -2l-39 -15l-23 13
l-28 -17l-150 -72l-33 -24l-26 -39l-35 -21q-8 -8 -8 -18l0.5 -1l1.5 -3l8 -12l-2 -9l22 -90l-22 -57l16 -20l27 32q14 -12 26 -20t29 -13.5t43 -11.5l21 -28l69 -7l19 19l20 -10l14 8l11 6q24 -8 28 -8q30 0 78 28q3 2 8 4.5t15 8.5q90 0 119 37l20 26l49 41l2 12l-2 13
q15 5 19 12t6 27z" />
    <glyph glyph-name="b" unicode="b" horiz-adv-x="1235" 
d="M1180 506q0 -59 -50 -133l-14 4q-18 -22 -18 -39t6 -41l-6 -10l-4 -23l-23 -26l-41 -56l-49 -30l-107 -99l-47 -24l-86 -35l-77 -17l-89 -14h-2l-63 17h-43l-131 34l-82 6l-51 17l-92 -37l-13 -4l-12 2l-2 22l-2 25l27 23q30 21 32 32l11 23l16 24l-2 113q3 18 11.5 26.5
t29.5 8.5l6 31l-2 16l-39 16l-2 13l6 145l-4 55l10 17l17 -2l2 24l-27 21l-2 14l2 12l4 27l-14 86l2 72l-2 43q0 4 2 6l18 33q4 4 4 14q0 21 -24 43v33l-2 176l-6 27l8 110l-8 57v41l28 43l-12 25q-12 21 -12 33l2 16q37 17 37 39q0 28 -37 31l-19 47l15 106l-19 39
q-14 19 -16 31l27 20l40 31l52 15l37 18q9 6 22 6q16 0 28.5 -10t12.5 -23q0 -10 -18 -51l-11 -20q25 -28 25 -41v-4l-12 -45l2 -45l-15 -39l11 -123l-25 -41q-6 -12 -6 -23q0 -6 2 -8l33 -45l-15 -158l15 -86q0 -24 -31 -35l-25 -8l2 -33q1 -22 7.5 -30t31.5 -23l2 -22
l7 -70q0 -14 -7 -33l-28 -63q0 -13 32 -27q14 -6 23 -6q22 0 51 33q20 -6 29 -6q18 0 70 18l92 31q13 -25 32 -25q21 0 33 4l4 21l25 -2l51 2q13 0 25 -15q79 -2 120 -12q50 -10 70.5 -26t26.5 -52l30 -6q11 19 25 19q8 0 10 -4l17 -23l30 -27l19 -43l33 -34l8 -17l14 -71
l19 -39q4 -13 4 -33zM1006 408l-15 129l2 34q0 21 -8 25l-41 29l-20 37q-15 23 -54 45l-79 45l-50 26l-135 13l-80 14q-31 0 -51 -10l-96 -56l-68 -37q-10 -17 -10 -34l8 -86l6 -60v-22l-2 -21l-24 -47l28 -88l-8 -49l6 -137v-8q-24 -18 -32 -41q24 -25 39 -25l71 -4l33 -14
h33l41 -15l28 -8l-2 -8l25 10h14l92 -4l74 20q80 14 119 56l45 49l31 31l37 71l24 47l10 68z" />
    <glyph glyph-name="c" unicode="c" horiz-adv-x="1020" 
d="M993 190q0 -6 -2 -10l-12 -51q0 -1 0.5 -3t1.5 -5l-43 -53l-25 -7l-39 -26l-16 -4l-45 -23h-4l-64 2q-17 0 -47 -14l-51 -29l-80 -6l-80 6l-18 15l-59 8l-66 18l-92 21l-43 37l-39 40l12 35q-19 -8 -35 -8h-8l-18 21l-25 43l-14 18l-6 57l8 29l-8 16l-21 23l13 51l-5 92
l35 60l43 88l56 47l100 96l29 21l39 28l18 6l41 31l129 41l31 8q2 0 3.5 -0.5t2.5 -1.5l51 -22l51 14l96 -16l82 12q15 -4 33 -12q-8 -32 -17.5 -42.5t-39.5 -23.5l-2 -22l-41 -25l-29 -14h-4l-27 4l-34 -4l-154 24q-8 2 -23 2q-14 0 -20 -2l-84 -16h-27q-34 -6 -67 -53
l-43 -15l-19 -41l-34 -6q4 -8 4 -14l-41 -80l-4 -35l2 -61q1 -44 7 -73t21 -58l-8 -23q-10 -17 -10 -22q0 -6 6 -15q30 -8 29 -8q9 -7 30 -37l27 -37q2 -4 4 -9t6 -13h23l12 -17l66 -47l28 -24l33 -10l29 -11l45 -2l115 -12l3 -1.5l1 -0.5q17 0 71 29l19 -7l69 48
q27 4 53 22t70 64q13 16 25 16q8 0 14 -6t6 -15z" />
    <glyph glyph-name="d" unicode="d" horiz-adv-x="1241" 
d="M1135 37l-2 -21l-21 -6l-68 -12l-73 -6q-5 40 -10.5 51.5t-16.5 17.5q-11 -9 -20 -13t-23.5 -9.5t-26.5 -11.5q-115 -60 -419 -60q-58 0 -85.5 11t-39.5 38q-17 -2 -29 -16l-31 10q-3 20 -8.5 28t-23.5 15l-13 -12q-32 8 -49 21t-55 55q4 10 4 24q0 25 -21 41l-28 27
l-4 20l-17 76v17q0 34 13 73l-2 21l12 24l63 146q14 32 39 32h2l33 -2l12 84l39 31l41 47l29 19l18 16q11 6 21 8q10 -2 22 -2q19 -1 25.5 -4.5t15.5 -17.5q16 24 51 34l-2 31l29 12q40 12 49.5 15.5t26.5 7.5l35 -2l47 16l22 -14q16 -8 21 -10l4 -10q11 -9 14 -9q9 0 23 29
l53 -12q58 -13 73.5 -20t28.5 -25l60 2l-8 20l-11 17l-6 71l-6 21l8 51l-8 139l2 15l33 12l-14 20l-5 27l-14 45q-8 19 -8 49v12l10 142l-8 63l6 27q18 4 21 20l-13 13q-22 2 -39 14v12v13l-8 61l-4 68q0 18 -22 34q9 36 32 41l62 13l41 26l45 10l22 7q21 -24 21 -52l-2 -24
l-10 -53l2 -29l-5 -88v-74l-12 -43l2 -92q-5 -16 -24 -41l30 -84l-6 -22v-48l-8 -20l8 -68q0 -14 -8 -37h-22q-9 -31 -9 -45q0 -6 2 -8l35 -49l-2 -72l6 -84l-4 -34l-2 -15l2 -20l-14 -17l6 -94l-2 -67l8 -64v-43l6 -49v-78l15 -78l2 -63l12 -45l2 -41v-31q11 -9 18 -40
t7 -56zM973 449l-10 63q-25 9 -25 25v4l8 43l-6 78v20l-10 23l2 24q0 14 -12 14q-6 0 -7 5l-41 -9l-10 -2l-14 2l-186 45l-68 2h-21q-10 0 -12 -2l-35 -14h-45l-59 -39l-41 -6l-29 -20l-41 -37q-23 -24 -28 -43l-4 -25l-39 -41l-41 -61q-17 -35 -17 -56q0 -22 8 -39l7 -18
l22 -82l23 -41l2 -22v-13l24 -10q27 -36 60 -66.5t65 -46.5l45 -20l15 -8l30 -4h25l57 -21h15h49l100 4q28 1 75 15.5t70 25.5l46 39l22 27l-10 26l6 27l2 29l-2 41l-4 45l2 6l2 33l-8 45l-1.5 3l-0.5 1q0 23 45 31z" />
    <glyph glyph-name="e" unicode="e" horiz-adv-x="1087" 
d="M1047 205q0 -13 -5 -23l-20 -35l-47 -81l-43 -3l-27 -22q-9 -9 -31 -12l-180 -35l-28 -10l-64 6l-92 -8l-104 6h-29q-22 17 -27 20l-98 35l-33 31l-65 45l-52 69l-20 17q12 24 12 43q0 8 -4 12l-27 43l-6 57l-2 46q0 23 11 61q17 60 28 72l37 47l19 43l47 45l51 67l45 25
l65 45l43 29l15 10l30 6l91 29l71 8l43 18l21 2q51 0 86 -55q19 2 28 21l27 -23l37 -20l84 -82q16 -20 24.5 -34.5t17 -30.5t15 -35t19.5 -58l8 -25l-10 -4l-39 8l-43 -14l-33 6l-37 -10l-70 8l-67 -4l-70 12l-114 -2l-56 2l-135 -18l-49 2l-68 -20l-24 -5l-4 -24
q-2 -25 -7 -34t-22 -21l2 -19q33 -25 35 -31l26 -102l13 -25q-10 -10 -10 -18l0.5 -1l1.5 -3l38 -12l9 -25q10 -35 26 -43l54 -22l18 -39q14 -7 45 -11l14 -26l31 -4l86 -31l72 14l190 31l41 25l64 39l53 69q14 17 33 17q35 0 35 -31zM811 676q0 16 -37 67l-69 50l-23 24
l-33 2l-76 6l-18 -4l-43 -24l-55 -13l-70 -26l-27 -10l-32 -48q-30 -21 -33 -26l-4 -12l123 -9l14 2l23 7l22 -5l59 -12h3l67 12l21 5l16 -23h23l88 18l36 -4q25 3 25 23z" />
    <glyph glyph-name="f" unicode="f" horiz-adv-x="805" 
d="M887 1866l-10 -23l-31 -33l-23 -28l-26 -17l-27 -14l-86 43q-48 25 -76 25q-26 0 -86 -25q-63 -23 -90 -96l-29 -80l-22 -47l-14 -66l-17 -22l6 -29l11 -6l-5 -211l-20 -25v-28l-2 -23l25 -59l-9 -41l9 -98v-5q0 -23 -33 -49l4 -20q34 -16 37 -25l6 -39q0 -14 24 -14
l31 -2l109 -6l80 12l86 8l45 13l24 2h39l25 -41l-23 -15l-74 -47l-38 -33l-101 15l-104 -10q-21 0 -39 6q-51 14 -62 14q-14 0 -25 -16t-11 -33v-6l16 -150v-2q0 -10 -25 -22q-4 -22 -4 -19q0 -15 21 -39l6 -28l6 -117l8 -41l-12 -12q-10 0 -14 2q-16 -9 -19 -27h10l-2 -8
l29 -37v-25l-4 -28l4 -25l6 -24l-18 -9v-28l-90 -39l-80 -10l-13 10v10l11 23l8 69l16 43l6 45l-6 52q27 28 27 53l-2 14l-21 70v6l2 92l5 176l4 25q47 6 47 28q0 13 -11 13l-38 4l-33 14h-47l-33 4l-21 2q-18 0 -30 -6q-32 -10 -37 -10q-17 0 -17 18q0 8 5 13l20 28l37 47
q14 13 39 13q17 0 47 -9l53 29l-2 12l10 66l-4 106q3 30 23 50l-33 47l2 22l-6 221q0 31 16 58l35 59q0 9 -22 25q10 71 65.5 152.5t120.5 119.5l125 76l27 18l34 4l66 17l33 -10l75 2q19 -1 34.5 -10t37.5 -31q8 8 14 8t15 -6z" />
    <glyph glyph-name="g" unicode="g" horiz-adv-x="1106" 
d="M1237 -262q0 -45 -49 -152l-6 -20q-17 -11 -21 -18t-28 -46l-25 -39l-14 -2l-25 -24l-37 -23q-7 -5 -26 -30l-199 -97l-19 -2l-55 -22l-123 -15l-90 -26l-106 2l-23 -4l-22 12l-19 -4h-53l-41 -4l-72 35l-84 14l-77 57l-52 25q-17 16 -32 56.5t-15 72.5q0 16 25 70l10 22
l16 14l25 9l51 53l78 31l21 12q8 0 14 -7t6 -18q0 -8 -4 -10l-64 -59l-10 -23l-10 -27l-4 -16l4 -27q-25 -18 -25 -26q0 -5 15 -23l6 4l22 -12q14 -28 19 -33l88 -55l18 -27l35 -12q28 -8 45 -8h6l45 4l66 -12l31 6l145 -2l49 12l127 29l86 33l41 2l21 16l12 18l31 19l53 37
l20 8v18q35 18 35 37v4l-8 33l27 105l2 22l-21 10l-6 21l-41 84l-4 26q-10 21 -80 41l-20 7l-48 12l-53 -2l-35 8l-84 -2l-49 22l-43 -20q-22 -14 -61 -14h-72h-35q-41 18 -53 18l-8 -4l-39 -25l-8 -4q-25 0 -109 33q-37 15 -78 47l-8 23q-14 36 -14 69q0 30 20 47l60 54
l20 18l31 16l33 19l37 4q25 6 49 37h-19l-26 -2l-35 -2q-21 0 -57 18l-21 10l-14 21l-6 22q-1 11 -15.5 19t-38.5 10l-14 27l-18 26q-7 6 -7 23v16l9 43l2 47l22 41l4 66q1 7 45 55l23 25q3 3 8 6t6 4l29 14l16 17q36 36 51.5 47t40.5 14l9 12l24 5l172 38l178 -18l43 29
q32 20 52 20q4 0 6 -0.5t4 -1.5l49 -8l100 2q20 -2 37 -23q27 11 29 17l10 31q1 6 29 15t61 19l19 7l14 -19q-5 -24 -11.5 -36.5t-20.5 -23t-36 -20.5l-20 -10q-3 -23 -8.5 -30t-28.5 -23l-31 -23q-8 -4 -24 -4l-37 2l-43 2l-29 -2h-24l-2 -10q34 -18 48.5 -34t22.5 -44
l19 -12v-45h-13l-2 -13l-20 -8l14 -24q8 -15 8 -23q0 -14 -8 -22l-43 -54l-12 -18l-80 -70l-14 -24q-10 -13 -56 -37l-59 -33q-43 -24 -154 -35l-6 -12l2 -25q0 -22 -14 -22l-63 -10l-41 -23l-48 -12q-27 -7 -49 -35.5t-22 -52.5l2 -19l45 -39l20 9l86 -11l64 7l37 -19
l16 -2h6l29 25q21 14 51 14h119h12l25 -18l14 -9q14 0 27 29l35 -2q70 -3 77 -8l33 -17l78 -24l31 -19l-2 -28q16 -5 20 -21l25 2l22 2q23 0 33 -28l6 -31l33 -119zM809 522l-2 41v24q0 61 -16 72l-54 50l-26 39l-78 38l-29 11l-26 4l-35 -17l-25 4l-29 5l-14 -2l-47 -21
h-31l-30 -16l-19 -9l-49 -51q-22 -17 -27.5 -30t-11.5 -54l-8 -55l4 -23v-18q1 -13 7.5 -20.5t31.5 -22.5l-6 -27q0 -23 12 -26l41 -19l53 -41q17 -10 42 -14t75 -4q48 0 76 12l76 33l43 8l28 27l47 35l17 49z" />
    <glyph glyph-name="h" unicode="h" horiz-adv-x="1163" 
d="M1040 676l-2 -66q-1 -39 -4.5 -49t-23.5 -31l16 -38l-27 -41l29 -29v-166l-18 -20l4 -31l12 -74l-2 -65v-23q0 -28 -39 -31l-27 -2l-61 -33l-20 -12l-41 35l6 27l37 110l-15 82l23 90q6 29 6 78q-25 11 -25 31q0 25 13 63q8 25 8 54v8l-8 75l10 39l-10 19l-15 33
q-7 17 -18 20l-37 12l-55 31l-37 -2l-62 8l-82 -2l-43 -2q-31 -6 -57 -18l-53 -31l-43 -16l-25 -23l-32 -37l-21 -26l14 -62l-12 -153l2 -11l-14 4l-6 -8h-13l4 -20l29 -39q2 0 2 -2l8 -86l4 -47l5 -31v-12l-9 -19l4 -92l-14 -27l-10 2l-10 -2l-19 -10q-6 -2 -26 -2l-19 -16
q-33 -29 -51 -33l-10 23l-6 4l2 39l12 45v41l22 36l5 23q-23 31 -23 45l12 297l-4 92l41 72l-4 22l-14 -14q-15 15 -19 26t-4 35v230l6 37h13l20 20q-16 9 -16 35q-26 14 -29 27v77l-8 117l12 31l4 20l-22 29l2 23l4 26l8 23l6 22q-26 35 -26 43l2 193l-23 94v20l-24 19
q5 18 26 31l80 41q47 24 68 24q31 0 34 -16l-8 -70l-2 -129q0 -30 -18 -41l-23 -12q-14 -7 -14 -27q0 -5 4 -35l12 -2q18 18 41 21v-19l-10 -186l2 -59l-25 -50v-22q33 -38 33 -55v-6l-14 -25v-2l10 -84l4 -12l-2 -13l-10 -30l10 -43l-4 -37l6 -25l-12 -166l2 -14l10 -6
l152 114l16 -8l64 25l39 8l47 6q28 -3 35 -41h24l21 15l22 22l45 -6l117 -8l57 -56l33 -20l16 -27l-24 -14q17 -10 24 -10l15 4q28 -34 28 -88z" />
    <glyph glyph-name="i" unicode="i" horiz-adv-x="428" 
d="M373 1409q0 -22 -11 -29l-73 -53l-29 -29l-53 -36q-53 -39 -64 -39q-5 0 -10.5 6.5t-5.5 13.5q0 23 12 35l103 98l55 74q12 6 27 6q20 0 34.5 -13.5t14.5 -33.5zM313 879q-19 -42 -22 -78l-6 -99l-19 -34q0 -2 -0.5 -4t-1.5 -5q0 -13 25 -28l-4 -31v-194l-4 -156l14 -66
v-34l4 -68q-5 -15 -63 -59l-50 -39q-12 -13 -30 -13q-13 0 -23 8t-10 17q0 26 16 61l8 29l-10 10l15 168l6 17l26 4v32q0 31 -5 46t-25 40l2 33v6l-2 17q0 33 12 59l-14 17l2 55q14 8 14 18l-2 17l-29 4v30l2 27v41q0 27 -5.5 40t-24.5 28q13 35 59 61l96 55q27 -3 49 -32z
" />
    <glyph glyph-name="j" unicode="j" horiz-adv-x="426" 
d="M322 1397l-1 -3t-2 -5q-5 -7 -4 -7l-135 -92l-63 -49l-17 -10l-20 31q39 56 82 86l6 20l29 33l45 51q10 12 26 12h15l8 -20l18 -21q13 -17 13 -26zM315 -299l-8 -123q-3 -62 -14 -100l-29 -8l-2 -11l17 -53l-25 -119l-4 -14q0 -14 -27 -74l-20 -49l-13 -27l-18 -4
l-10 -22l-25 -35l-51 -80l-74 -76l-16 -24l-59 -27l-15 -18q-14 -18 -28 -23l-13 4q-10 0 -78 -22h-55l-70 -23q-51 -8 -81 -8q-35 0 -84 49q-41 38 -41 60q0 9 11 16.5t23 7.5l15 -2l125 -43h55l25 -18l24 -6l25 20l67 6l31 21l76 34l37 37q56 58 67 84l58 133l32 41l-8 52
l21 133v84l30 53l2 24q-26 9 -26 39v17l8 90l-2 86l8 55l19 6l12 -4l8 31l-12 12q-12 -4 -15 -4q-6 0 -22 8l-2 162h35l6 21q0 24 -14.5 44t-34.5 27l4 170l18 -2q13 0 16 6.5t3 36.5l-9 10q-38 0 -38 15l6 45l4 22h10q8 28 8 50q0 52 -12 67l-23 33l-8 154l-31 34l23 39
l27 10l110 72q9 6 19 6q21 0 24 -37l-6 -30l6 -47l-6 -107l2 -20l-24 -45l2 -33l-9 -35q39 -9 39 -31l-12 -73l6 -162l-8 -60l6 -47l-4 -69l10 -70l4 -29v-39l-2 -51v-33l2 -36v-13l-12 -30l-4 -27l2 -21z" />
    <glyph glyph-name="k" unicode="k" horiz-adv-x="1122" 
d="M1108 86q0 -15 -23 -55l-4 -8q-20 -41 -55 -46l-53 -6l-21 -12q-4 -2 -10 -2q-10 0 -14 2l-41 14l-62 17l-51 22l-20 13l2 26q0 25 -37 25h-23l-6 -13l-22 13l-131 108l-31 11l-162 133q-8 4 -14 4t-11.5 -6.5t-5.5 -14.5v-2l23 -268q0 -13 -13.5 -26.5t-25.5 -16.5
l-68 -16l-26 -17l-23 -10q-14 17 -14 29v10l18 121l-10 200l21 2q12 15 12 26q0 3 -2 15q-31 15 -31 31q0 12 29 66q-2 13 -27 18v29l-4 96l-2 64l4 77q15 8 19 15.5t4 27.5l-25 4l-4 285q25 11 25 29q0 16 -5 33l-20 16v43l-14 108l10 101l-10 41l-9 6l-2 29l-14 118l2 113
l-8 27l10 67l-8 17q6 12 9.5 14.5t23.5 9.5q2 2 55 43l20 17q13 0 29 8l19 14l14 -8v-16h-6l-10 -54l6 -168l-4 -92q0 -33 8 -76l-19 -16l-4 -88l8 -18l21 -3l2 -16l-2 -63l8 -43l-2 -19l4 -76l-4 -141v-94v-2l-10 -64v-12q0 -18 4 -25l22 -38q1 -2 1.5 -3.5t0.5 -3.5
l-8 -59v-10l8 -121v-25l-2 -47l-8 -67v-2q0 -13 10 -43l13 6l45 37l63 43l133 137l129 129l62 74q28 34 100 75l27 -20q27 -19 27 -31q0 -29 -44 -78l-20 -6q-22 -7 -27.5 -12.5t-13.5 -24.5q-33 0 -59 -12v-24q0 -28 -15 -39l-59 -45l-27 -23l-14 -2h-16q-7 -33 -15 -39
l-43 -25l-35 -34l-32 -25q-29 -18 -29 -41q0 -24 39 -47q113 -67 123 -88l31 -64q11 -17 57 -34l26 16l121 -53q15 -7 15 -19l-2 -12l41 -25l16 15l45 -15l27 -12h28q11 0 27 -8q14 14 27 14q9 0 13.5 -3.5t4.5 -10.5z" />
    <glyph glyph-name="l" unicode="l" horiz-adv-x="451" 
d="M328 178l-4 -53l2 -41q0 -15 -15 -25l6 -24l-22 -4l-66 -41l-26 -4l-31 -19q-4 0 -7 -0.5t-7 -1.5q-19 0 -19 12v25l-6 45l14 109l5 139q3 51 22 84l-12 31q-17 31 -17 36q0 16 25 58q10 15 10 33q0 14 -30 26l4 17l-9 4v14v16l17 70v172l20 80q0 16 -24 35v47l-4 180
q0 20 26 68l15 26q-37 17 -37 31q0 -4 6 39l-21 18v39l-4 47v9l17 51l-17 71l4 35l-20 117v10v6l8 33l6 41l90 49l41 31l17 4l14 -22l2 -43l8 -29l2 -17v-24l-6 -74v-6l2 -35q0 -18 -4 -26l-24 -52l-3 -20q20 -1 25.5 -6.5t5.5 -28.5v-22q0 -20 -24 -33v-25l-2 -20v-8
l18 -29l-8 -191v-137l-27 -53l15 -76l-21 -49q3 -9 18 -23l17 -18l8 -324l-25 -28q3 -19 3 -41q0 -35 -9 -66l9 -22h28v-37z" />
    <glyph glyph-name="m" unicode="m" horiz-adv-x="1450" 
d="M1341 51l-26 -14l-51 -27l-54 -39q-6 -2 -14 -2q-7 0 -29 4l-4 50l4 26l15 47l-11 99l9 55l2 51l20 49v6q0 14 -18 27l-2 23l-4 102q0 12 2 16l24 72l-26 39l-15 92l-8 25l-18 8l-45 28q-11 7 -45 7q-49 0 -82.5 -7t-79.5 -28q-70 -36 -70 -62v-71l-27 -19q0 -2 -0.5 -3
l-1.5 -3q0 -18 27 -35l8 -229q-16 -8 -20 -8q1 0 -17 4l2 -23l29 -57l-6 -35l4 -20q7 -24 14 -73t7 -75q0 -3 -5 -8l-14 -8l-37 -27l-59 -24l-19 -9q-5 0 -24 15v12l8 102l-4 89q0 20 5.5 29.5t23.5 21.5l2 20l-17 33l-4 25l-16 28l4 29l2 82l33 41q2 4 2 12q0 27 -19 27
q-8 0 -12 -2l-10 20v25l2 41v21q0 126 -66 126q-11 0 -32 -8l-21 31l-25 -7l-18 -14l-49 -6l-49 -20l-39 -5l-23 -10l-12 -22q-28 -54 -35.5 -83t-7.5 -71v-16l4 -138l-2 -24l-27 -10l5 -21l22 -33l-2 -102l14 -180q-1 -4 -8 -12t-20 -15l-66 -33q-9 -6 -26 -6q-13 0 -31 6
v25v27l2 100l-6 41l16 29l6 26l-18 15l-2 24v14l4 15l18 26l8 21v22q-18 2 -24.5 13.5t-6.5 54.5q0 30 1 49l2 49v21l16 2l2 45l-4 33l-16 37l-8 75l-9 39l-4 27l-8 -8l-22 20q18 33 48.5 55.5t94.5 47.5q26 -23 33.5 -36t7.5 -38l-2 -37l-2 -41l37 8l39 41l28 10l41 33
l111 37l16 8l23 8q16 -17 16 -43l18 -6l17 6v25q27 18 37 18q2 0 14 -4l8 6q11 2 21 2q32 0 54 -23.5t30 -66.5q3 -15 7 -21.5t17 -12.5l17 14l32 33l39 20l54 33l24 6h2l43 -2l39 12h60l34 4l35 -14l41 -10q57 -13 57 -66q-16 -13 -16 -24q0 -4 5.5 -8.5t10.5 -4.5
q7 0 15 4l4 -22l4 -55l10 -25l2 -16l-4 -66l-2 -57v-23l-12 -18q-10 -17 -10 -23l12 -108l4 -33v-2l-2 -68l2 -2l4 -34q-3 -9 -22 -21v-35l18 6l4 -22v-70z" />
    <glyph glyph-name="n" unicode="n" horiz-adv-x="1124" 
d="M1016 68l-10 -29l-138 -66q-28 36 -28 45v5l24 96l2 43l8 -2l17 20q-7 16 -13.5 21t-23.5 12l-4 16l16 187l-10 26l2 33v76l12 37l-18 18l2 60q-11 33 -37 63v10q0 13 -8 19l-25 2l-51 31l-82 -5l-94 7q-12 -6 -27 -25l-18 4l-78 -14l-28 -6l-35 -27l-45 -20
q-33 -16 -37 -48l-2 -98l-13 -61l21 -60v-32l-2 -119l-19 -41l-2 -15v-6l19 -32l6 -109l8 -35q0 -6 -6 -15.5t-16 -13.5l-66 -16l-18 -4q-16 -27 -31 -27q-10 0 -21 11q-1 2 -2.5 4t-3.5 4q-4 8 -4 6l15 74l-2 84l10 34l-8 56l4 61l2 129q0 26 35 29q-3 22 -10.5 27.5
t-32.5 5.5l2 180l22 14l-12 21l-27 73l-18 23l12 22l21 25l36 16l35 27q15 12 37 12q13 0 25 -7.5t14 -16.5l2 -94l4 -31l19 6q36 44 84.5 82.5t72.5 38.5q13 0 21 -21q20 6 47 23q29 16 49 16h6l82 -8l31 10l92 -12q47 -6 74 -33l14 2q32 0 53 -28l15 -25l20 -33
q14 -17 14 -73v-56l4 -24l-24 -31l8 -25l12 -22v-23v-18q0 -8 -2 -12l-14 -29q-4 -8 -4 -29l20 -26l-2 -29l-2 -70v-8l15 -39l2 -90z" />
    <glyph glyph-name="o" unicode="o" horiz-adv-x="1225" 
d="M1171 508l-22 4l4 -23l-23 -16q5 -18 8.5 -22t18.5 -13l2 -20q0 -109 -84 -236q-19 -28 -47 -59t-35 -41l-30 -8l-189 -88l-104 -4l-76 -19l-90 2l-31 -8l-90 16l-37 2l-20 23l-56 8l-26 14q-34 26 -57 43.5t-29.5 23t-10.5 11.5l-22 43l-31 25l-24 63l-9 25l11 8
q0 14 4 19t18 10l-6 16l-33 21v41q0 43 10 85t35 97q39 88 58 100l41 27l22 39q12 21 29 28l94 50l53 43l64 24l112 39l93 8l73 2q62 0 62 -34q17 -15 22 -15q15 0 33 29l25 -6l65 -23l27 -22l37 -23l37 -57q15 -19 59 -19q29 -36 39 -71t22 -129zM1026 483l-37 115l-6 51
l-10 19h-6q-8 0 -13 3t-12 11l-49 61l-16 25l-84 39q-12 20 -20.5 29.5t-20.5 9.5q-13 0 -41 -10q-28 12 -41 12l-29 -4l-49 -2l-68 -25l-16 14l-12 -16l-68 -41l-125 -108l-24 -21q-8 -51 -46 -117l-14 -24v-8q0 -22 -7 -29t-28 -10q-4 -16 -4 -15q1 -2 1.5 -3.5t0.5 -2.5
l31 -35l4 -22q-31 -26 -31 -35l4 -12q9 10 17 10q9 0 12 -6l23 -74l51 -84l-6 -51q8 -8 18 -8q12 0 25 12l20 -6l121 -74l123 -12l70 -10l79 14l52 12l65 66l47 14l23 25l53 110l27 23q14 14 14 24v5l-16 47z" />
    <glyph glyph-name="p" unicode="p" horiz-adv-x="1257" 
d="M1204 412l-20 -54l-10 -24l-29 -37l-21 -39l-26 -27l-19 -24l-14 -4l-27 6l-10 -19q-26 -47 -39.5 -59t-48.5 -12h-2l-16 2q-4 -34 -28.5 -57.5t-80.5 -43.5l-55 -18l-45 -16l-90 -2l-25 -4l-25 -17q-22 12 -32 13t-64 6l-24 2l4 24l-23 4l-20 -12l-17 -8h-28h-45l-19 6
l-6 -25l4 -149l-14 -68l-2 -28h16l6 -185l-24 -4l-6 -16l4 -25l12 -53l-6 -23l14 11l10 -6l2 -68l7 -66l4 -45q0 -19 -31 -22l-6 -14l35 -9l-2 -20l10 -49l4 -33l-12 -19l-25 -20l-20 -33l-25 -8l-53 -25l-17 -2l-37 2l-2 37l2 33l7 84l-2 84q1 13 5 21t17 18l-10 65
q19 19 23.5 27t5.5 27q-17 6 -22.5 12t-8.5 18l8 37l-4 27l-2 106l-4 80l10 95l2 26q23 22 23 43q0 17 -9 53l-22 7l-10 34v15l12 334l12 36l-4 37l-4 27l-18 6v27l-5 147v16l7 41l-11 84q0 35 -4.5 43.5t-29.5 22.5q3 32 12 41l20 12l47 53l43 25l25 12q19 -2 47 -26
l-4 -19l-4 -30l2 -17l18 -2l35 19q61 31 89.5 41t60.5 10q17 0 26.5 -4.5t18.5 -14.5l18 13l10 12l25 6l41 8l113 -2l96 2q19 0 45 -31l8 2t6 1q8 0 35 -15l74 -37q20 -8 26 -18l17 -39q5 -8 18 -8q12 0 27 6q30 -23 51 -59q14 -25 30.5 -89.5t16.5 -97.5v-4l-6 -33l-2 -28z
M1075 502q-37 19 -45 45l-16 47l-51 76l-5 41l-14 14l-53 -2l-80 53l-57 6l-54 19l-145 -2h-23l-28 -4l-82 -23l-41 -8l-33 -14l-24 -7q-23 -8 -23 -59v-12q-29 -62 -29 -68t2 -8l5 -8l20 -8l-4 -50l4 -114q0 -13 -18 -45q22 -49 22 -84l-4 -92l-2 -35l29 -15l51 -22l41 -31
l12 17l27 -11l86 -6l73 -29l82 13l52 -2l38 16l41 19l50 36l39 25l36 45l43 31q37 24 41 49l4 39l25 49q1 2 1.5 3.5t0.5 2.5l-4 80l-2 23z" />
    <glyph glyph-name="q" unicode="q" horiz-adv-x="1180" 
d="M1071 -862q0 -32 -16 -62q-5 -8 -21 -15t-94 -38l-27 -10l-36 8l2 23l2 41l34 90q1 2 2 5l1 3q0 10 -17 10l2 41q-1 10 -1 26q0 30 7 40l15 22l10 16q-7 20 -27 29l-2 21l4 71l2 23v24v29l11 2l-11 60q6 15 12 20t27 10l-6 27l-22 47q-4 6 -4 31v10l2 70v8v41l-2 16
q0 18 5 25.5t23 13.5l-43 66q19 33 19 51q0 11 -16 19.5t-40 8.5h-6l-86 -32l-47 -11l-20 -6l-29 6l-19 -4q-40 -43 -77 -43h-4l-164 9q-60 3 -76 8l-86 43l-62 12q-19 11 -55 59l-16 29v4l16 45l-6 10q-17 -10 -23 -10q-12 0 -19 17t-26 86l-6 24l49 27l-4 12q-45 6 -45 27
l2 49q23 62 76 160l33 2q11 79 53 112l72 62l63 55l25 10l35 29l78 16l63 37l45 -2l64 2l26 -16l94 -4l23 -4l29 -29q2 0 3.5 -0.5t2.5 -1.5q13 0 37 27l14 -3l131 44q0 2 4 2q8 0 13.5 -10.5t5.5 -26.5l-3 -43l-8 -95l-6 -30v-2l2 -31l-4 -37l-22 -4l-5 -10l11 -37
q28 -21 28 -62v-38l-2 -166l-20 -13q-2 -4 -2 -8q0 -16 28 -39l-2 -26l15 -58l-19 -73v-7l11 -65l2 -33v-16l-7 -199v-70q-13 -2 -18 -7t-6 -21l-2 -23l18 -14l4 -21v-43l11 -34l-4 -111l16 -137l-8 -82l12 -53q4 -26 4 -37zM932 195l-21 38l2 33l5 47l8 45l-21 174l4 93
l-10 47l-6 63q-4 24 -16.5 33.5t-38.5 9.5l-41 8v-12q-46 -10 -70 -10q-20 0 -33.5 5.5t-27.5 16.5l-9 5l-61 -9l-31 15l-14 2q-41 0 -82 -8q-26 -4 -35 -13l-47 -43l-63 -45l-39 -53l-43 -78q-8 -13 -13 -41h-8l-14 -51q0 -6 2 -10l10 -11l-4 -18l-4 -33l2 -12l45 -143
l2 -35q8 -22 64 -33l-2 -35q0 -22 14 -22l53 2q4 0 23 -6q39 -16 63 -43q65 22 94 22q15 0 39 -8l31 -12l125 36l92 21q24 13 31 51l43 2z" />
    <glyph glyph-name="r" unicode="r" horiz-adv-x="791" 
d="M831 838q0 -5 -4 -9l-57 -45l-31 -32l-18 -7l-27 17l-18 18l-60 2l-57 23l-22 6q-13 -22 -27 -27.5t-57 -5.5l-33 -14l-25 8l-20 -16l-80 -62q-20 -26 -23 -96l-2 -76l-22 -14q20 -34 20 -66h15l2 -28l4 -129l2 -68l-4 -61q-31 -18 -31 -29q0 -2 8 -18l27 6l-2 -9l8 -40
v-5q0 -15 -16 -31t-33 -18l-39 -4l-59 -31l-25 15l4 20l14 58l-6 77l6 11h21v12l-2 18l-12 29l-3 41l-8 35v2v27l2 32q4 5 8.5 10.5t12 16.5t16.5 27l10 24l-2 10q-47 0 -47 21l4 76l-6 75q3 10 13 19v29l-13 12l-4 24l-2 54l-22 43q7 36 32 61l62 33l37 24q28 -8 38.5 -19
t10.5 -36v-6v-27q0 -37 16 -37h4l51 27l50 19l86 47l28 12l23 -6l45 14q39 12 59 12l43 -4q20 -28 33 -28l3 1.5t3 0.5l23 12q8 4 12 4q25 0 47 -27q16 -19 16 -34z" />
    <glyph glyph-name="s" unicode="s" horiz-adv-x="967" 
d="M903 293q0 -40 -14.5 -67t-34.5 -27q-4 0 -20 4l-13 -23l-18 -49l-45 -49l-21 -29l-28 -2l-93 -47l-43 -6l-73 -25l-58 11l-88 -21q-9 0 -98 19q-42 9 -53 18l-39 25l-49 28q-31 20 -50.5 51.5t-19.5 57.5q0 16 34 43.5t75 46.5l22 -29l19 -88l36 -22l58 -45l28 -9
l54 -26h37l24 -4l49 14l82 8l41 21l39 14q37 22 72 90.5t35 124.5q0 21 -13 37l-39 55l-10 25l-24 12l-13 -16l-22 2l-54 8h-63h-16l-27 39q-21 -24 -34 -30.5t-50 -12.5l-35 -6l-20 10h-25l-26 20l-33 -6l-31 15l-43 14q-25 8 -43 39t-18 63q0 49 34 104t95 101
q47 36 112 71t122.5 54t94.5 19q11 0 76 -21l29 -10q68 12 88 12q28 0 44.5 -9t16.5 -22t-28.5 -36.5t-71.5 -43.5l-31 -14l-26 2l-50 2l-38 10l-17 35h-14l-17 -18h-30h-29l-41 -6l-31 8l-16 -12l-64 -37q-67 -58 -67 -105q0 -33 20 -43l66 -30l20 -11v-24l31 -17l33 31
l16 -2l168 12l80 -18l37 6l47 -31l70 -39q21 -14 37 -63l8 -27q18 -63 18 -104z" />
    <glyph glyph-name="t" unicode="t" horiz-adv-x="741" 
d="M764 872l-10 -28l-2 -21l-72 -53l-43 -39l-25 -4l-37 4q-37 4 -67.5 11.5t-28.5 7.5h-2l-67 -5l-39 7q-14 -2 -23.5 -10.5t-9.5 -18.5q0 -11 12 -14l-2 -129q-43 -12 -43 -37l2 -23l41 -8l4 -96l2 -21l-10 -30q-12 6 -20 6q-25 0 -25 -23q0 -10 16 -31q14 17 19 17
q3 0 20 -15l2 -135l4 -20l23 -47q2 -6 2 -35q25 -15 38.5 -19t37.5 -4q32 0 63.5 11t50.5 28l99 90q6 7 16 7q12 0 35 -13l-6 -22q-21 -83 -35 -88l-235 -86l-41 -21l-31 19l-21 4l-10 -27l-18 -2q-30 0 -70 29q-42 34 -45 51l-6 29l-12 34l2 56v63l20 66l-6 24l-4 35v23
l4 96l-2 27l-4 34q0 4 2 4l26 31q5 7 5 12q0 23 -35 23l-8 12q10 73 10 146q-48 10 -72 10q-62 0 -125 -21q-8 7 -8 15q0 17 8 22l39 33l6 23q3 8 10 13t11 5l116 4l27 4l-2 23l-6 213l-25 57l-6 31q30 42 60 60t77 26q20 31 35 31q27 0 27 -91q0 -138 -25 -196
q-14 -41 -28 -41v-47q15 0 20 -2.5t12 -12.5l-6 -28l4 -23l21 -2l100 -22q12 -4 33 -4q22 0 31 4l39 12l75 8l58 21h20h8h23q2 -8 2 -7z" />
    <glyph glyph-name="u" unicode="u" horiz-adv-x="1145" 
d="M1034 61q-7 -26 -30 -36l-115 -50q-31 18 -31 58l2 57l-18 4l-66 -31l-92 -45l-37 -18l-121 -23l-39 -12h-10q-10 0 -14 2l-37 15l-45 -13l-41 35l-80 -12q-12 5 -35 18t-39 29q-45 50 -45 102q0 16 21 33l-33 12l-2 39l-2 54q0 24 8 40l19 35l-19 56l2 59l-2 68
q1 6 21 69v15l-19 -9l-12 13v20l2 121q0 28 -6 43l-8 12q0 2 -0.5 3.5t-1.5 2.5q0 17 24 31l12 6l74 31q36 14 49 14q15 0 27 -28l10 -23q-20 -56 -20 -104l6 -58l-2 -24l-17 -49q-1 -27 -2 -37.5t-2 -18.5q0 -15 6 -30l17 -29l-23 -76l8 -24l-8 -43l-8 -58q0 -8 2 -12
l14 -25l7 -106q6 -29 25.5 -41t80.5 -31l74 -20q20 -4 67 -4q34 0 50 6l57 22l61 -16q16 5 21 33l33 18l45 62l37 30q15 20 18 56l8 102l8 22l-22 23l2 37l4 158l-6 53l-10 61q0 15 18 33l-4 18l-16 2l-5 31v8l9 31v21l16 -5l111 39q1 0 2 1t2 1q11 0 18.5 -18.5t7.5 -48.5
l-8 -203l-14 -156l-27 11q-12 -28 -12 -39l6 -21q12 4 18 4q9 0 15 -5t6 -13l-10 -188l20 -35l10 -97q5 -6 13.5 -15.5t21.5 -29.5z" />
    <glyph glyph-name="v" unicode="v" horiz-adv-x="905" 
d="M905 909l-8 -26l-51 -109l-21 -61l-28 -90l-13 -37l-30 -70l-15 -65l-43 -68l-121 -268l-32 -43l14 -19l-25 -18l-53 -29l-39 -35q-9 -6 -16 -6q-6 0 -14 8q-7 16 -7 17l-12 45l-24 26l-29 68l-57 107l-5 55l-2 22q-12 16 -41 21q21 19 21 28q0 23 -14.5 39.5t-36.5 16.5
l-13 -2l-18 63l-18 47l-2 58l-43 39l-82 184l-15 16q15 32 29 39l59 27l25 24q2 2 8 2l25 -4l22 -6l6 -20l27 -62l20 -110l37 -68l17 -47l20 -49l4 -39l23 -23l14 -57l51 -92l-8 -35l19 -14l24 -19l49 -100l27 -12q10 0 10 6l27 57l39 72l45 108l18 33q33 3 33 17v2l-6 65
l4 21l47 110l-2 74l33 76l14 59q8 23 38 39t62 16z" />
    <glyph glyph-name="w" unicode="w" horiz-adv-x="1313" 
d="M1300 903q-5 -87 -12 -110l-22 -66l-6 -29l-21 -55l-6 -35q-3 -10 -27 -30l-2 -21l2 -29l-106 -342l-10 -102l-78 -61l-25 -33l-20 -15l-17 15l-16 20l-25 15l-6 18l-12 43l-23 27l19 12l-2 18l-19 21l-28 16q-15 8 -25 35l-25 102l-36 70q3 14 14 14q10 0 16 -4
q0 47 -26 62l-31 16q-12 8 -31 90l-8 19h-10l-10 -23l-72 -246l-51 -145l-13 -59l-12 -35l-6 -35l-47 -33l-16 -16q-27 -4 -39.5 -9t-30.5 -18l-10 25l-31 55l-16 39l-41 141l-58 103l6 80l-6 18q-36 0 -47 25l-16 41l-21 34l-22 72l-29 31l-74 155l-14 25q21 49 43 57
l41 15l43 32q3 1 5.5 1.5t6.5 0.5q14 0 24 -8t15 -22l41 -152l8 -24q-5 -11 -20 -23q14 -45 31 -45h16l20 4q29 -40 29 -51v-4l-6 -45l20 -66l11 -39l26 -37l54 -172l22 -26l12 -19h19l8 19q26 44 33 80l4 59l26 57l13 54q1 3 35 90q0 51 3.5 76t14 38t35.5 25l-10 23
l-23 28l4 64l-8 30l-2 33l24 12l23 15q17 14 74 20l18 2l19 -14l24 -16l12 -68l19 -84l-14 -39q3 -8 12 -22t26 -23l25 -70l6 -20l19 -63l92 -254q8 -22 17.5 -30t27.5 -13l29 45q-11 19 -11 43q0 8 4 16l70 178l2 45l29 92l4 70l12 66q3 35 5.5 58t8.5 36.5t20.5 23
t29.5 19.5q39 24 51 24q4 0 28 -8z" />
    <glyph glyph-name="x" unicode="x" horiz-adv-x="1001" 
d="M1001 70q0 -7 -26 -33l-19 -19q-22 -23 -48.5 -37t-43.5 -14q-8 0 -41 37l-110 123q-7 7 -39 80h-29l-39 35q-30 35 -41 45t-33 22l-20 13q-9 36 -35 71l-28 -16l-15 -39l-39 -33l-37 -49q-27 -34 -47 -45l-30 -18l-23 -27l-72 -117q-20 -31 -65 -49l-10 -37h-27
q-55 0 -55 41q0 21 20 41l133 127l27 21l59 79l103 107l37 39l-19 28l-51 54l-14 51l-39 12l-49 51l-50 39l-8 47q-6 21 -22 21q-9 0 -21 -4l-16 12q-46 35 -62.5 52.5t-27.5 39.5l22 23q31 31 51.5 41.5t65.5 15.5l8 8h10l15 -18l39 -45l45 -64q20 -17 20 -30v-9
q20 -26 29 -32t28 -6l37 -46q58 -53 58 -69l-2 -31l-2 -2q0 -8 14.5 -22.5t26.5 -14.5q19 0 45 37l20 29q29 1 40 9t22 38l-7 18l17 15q55 45 57 57l8 43l31 39l45 63l29 19q31 24 55 24q23 0 23 -26q0 -12 -5 -19l-51 -69l-35 -54l-49 -53l-94 -108l-88 -95l-10 -30
q26 -2 36 -7.5t23 -25.5l23 -4l20 -21l70 -75q18 -22 53 -45q35 -26 35 -39q0 -7 -8 -15l6 -8q25 0 39 -18q24 0 33 -5t26 -26q15 -18 39 -35q59 -40 59 -63z" />
    <glyph glyph-name="y" unicode="y" horiz-adv-x="1106" 
d="M995 211l-34 -94v-4l4 -15l20 -24l-8 -54l4 -77l-10 -25l2 -106l-15 -35l-10 -49l-16 -33l2 -51l-35 -86l-8 -23l-29 -18l-76 -97l-45 -67q-25 -39 -51 -51l-26 -15l-25 -26l-31 -19l-18 -16l-43 -12q-1 0 -64 -29l-63 -23l-90 -26l-94 10l-50 6q-36 3 -61 17l-68 43
l-34 8l-27 37l-53 32q-19 16 -19 56q0 42 29 80q9 11 39 14l12 -29l10 -28l39 -54l39 -61q21 -21 31 -21h2l14 2l84 -34l70 -5q13 -10 26 -10q10 0 27 13l23 -3q42 0 120 35q69 34 84 51l76 78l47 29q26 20 43 74l25 82l37 57l-6 43l18 80l2 82q0 42 19 84l16 55l-12 47
l-11 139l-2 23v10l17 53l-11 15l-30 -15l-35 -20l-29 -31l-96 -61l-49 -47l-76 -56q-32 -22 -49 -28l-66 -11l-36 -14q-22 -6 -33 -6q-39 0 -104 25t-89 51q-39 39 -39 100l2 21q21 14 21 26q0 2 -0.5 3.5t-1.5 2.5l-21 29l-2 29l6 26l39 90l-8 35v13q0 11 8 49l19 73
q6 26 10 50l2 77l19 78q0 14 -15 35l-28 4l-3 17l37 43l23 8l35 10l100 57h6q15 0 24 -12t9 -31v-6l-31 -76l-14 -75l-25 -115l-6 -68q-5 -15 -16 -18l-31 -8q-16 -6 -16 -23q0 -24 41 -24l-29 -207l-8 -60l6 -16l14 -18l29 -48l57 -22l27 -31l14 -6h8l33 23l96 32l41 29
l70 49l66 64l43 26l18 11l37 96l6 4l4 18l21 25l-9 55l9 15l-5 43l7 22l-17 88l-8 121l-29 59q-2 4 -2 13v16l43 14l31 29l59 8l23 6q29 -20 29 -34v-5l-6 -36l4 -72l-9 -29v-26l-12 -45l2 -15q15 -36 23 -54t8 -28v-26l4 -64l-14 -35q-4 -12 -4 -18q0 -28 32 -57l-2 -25z
" />
    <glyph glyph-name="z" unicode="z" horiz-adv-x="909" 
d="M918 119q0 -7 -9 -25l-18 -24l-14 -27h-13q-16 -31 -31 -43t-38 -12l-19 2l-71 14l-109 -4l-82 29l-98 -17l-66 6l-41 -12q-21 -6 -51 -6h-18l-74 2l-33 -2l-80 -6q-33 0 -33 31q0 11 5 16l57 61l80 111l61 57l21 41q16 -4 20 -4q12 0 29 15q20 24 20 30q0 8 -10 21
l135 180q37 0 43 20l13 48l51 63l45 78l16 22l-57 21l-160 -4l-123 12l-63 -4h-8h-17h-16l-25 -2l-47 -12q-14 0 -14 20q0 18 10 21l39 26q26 19 47 56q4 2 5.5 2h2.5l66 -13l18 13q35 -29 53 -29q9 0 13 2l28 6l27 -4l39 2l98 -25l107 15l41 -4l39 6l43 4l41 8
q23 -3 34 -43l-14 -16l-47 -58l-29 -41q-8 -15 -14.5 -19.5t-24.5 -4.5l-18 2q0 -10 -2 -21.5t-6.5 -19t-16 -20.5t-30.5 -33l-25 -33q-16 -5 -31 -16v-17q0 -12 -6 -18l-39 -41l-37 -51q-38 -40 -38 -50q0 -6 2 -10q-10 -13 -16 -20t-7 -9l-76 -104l-55 -20
q-10 -12 -10 -27q0 -8 6 -31l-41 -59l-12 -25h59l61 2q16 0 46 -16q26 16 32 16l109 -2l145 13l76 -17l25 -4l16 4v23l18 6q50 16 72 16q8 0 13.5 -4.5t5.5 -13.5z" />
    <glyph glyph-name="braceleft" unicode="{" horiz-adv-x="520" 
d="M461 1318h-41q-3 0 -28 -13q-14 -7 -25.5 -26.5t-21.5 -46.5l-28 -91q-2 -10 -3.5 -18.5t-3.5 -19.5l-16 -23q2 -5 4 -9t2 -6t-2 -6l10 -11l-4 -27l4 -12q0 -14 -9 -36q-3 -3 -3 -7q-1 0 -1 -4l-6 -48h-7l5 -5t5 -4q-4 -37 -40 -102q-13 -23 -33 -44.5t-45 -40.5l-49 -37
l50 -38q23 -18 43.5 -40.5t32.5 -44.5q36 -65 41 -102l-10 -9h7l6 -48q0 -2 1.5 -4.5t2.5 -4.5q4 -11 6.5 -20.5t2.5 -15.5l-7 -14l6 -28l-9 -10q2 -2 2 -4q0 -5 -1 -9t-1 -7l11 -23l7 -40q2 -7 4.5 -15t5.5 -16l24 -65q12 -53 45 -67q6 -2 12 -7.5t13 -5.5q20 0 37 -19
t31 -59l-74 23l-30 6l-86 64q-49 38 -76 85q-35 62 -40 101l9 13l-6 15l-3 24q0 5 -2 8.5t-4 6.5q-5 9 -7.5 19t-2.5 15l11 16l-10 28l9 10q-2 2 -2 5t1 5q0 2 0.5 3t0.5 2q0 4 1 5l-11 22l-8 41l-16 44q-5 11 -9.5 26t-8.5 25q-11 54 -34 63l-19 9q1 0 -0.5 1t-2.5 1
t-8.5 0.5t-15.5 0.5l-1 3h16q-3 0 -5 2q-5 3 -11 4t-11 3t-8 6t-3 12q0 12 6 35l43 -7l6 3t6 4q14 7 26 26.5t21 45.5l14 47l16 43q1 11 3 20.5t4 20.5l12 22q-2 2 -2 3q-2 8 -2 12q0 3 2 5l-10 10l6 28l-6 14q0 8 2 16t8 21l7 14l2 20l7 19l-10 13q5 38 39 101q28 48 78 85
q20 16 42.5 32.5t42.5 31.5l32 6l72 23z" />
    <glyph glyph-name="bar" unicode="|" horiz-adv-x="449" 
d="M299 1663v-45l10 -29l2 -14l-2 -27l-4 -73v2l2 -39q0 -21 -4 -29l-24 -51l-3 -21q21 -2 25 -7t4 -27l2 -23q0 -16 -24 -33v-24l-2 -21v-8l18 -29l-6 -190l-2 -137l-27 -54l15 -75l-21 -50q2 -6 18 -22l17 -19l6 -323l-23 -29q3 -16 4 -26.5t1 -14.5q0 -22 -11 -67l11 -21
h26v-37l21 -155l-4 -54l4 -41q-2 -12 -19 -24l6 -25l-20 -4l-66 -39l-26 -4l-31 -18q-2 -2 -14 -2q-17 0 -21 12l2 23l-6 45l14 108l5 135q0 43 22 84l-12 31q-17 33 -17 37q0 14 25 59q10 17 10 31q0 18 -30 27l4 16l-9 4v14v17l17 69v172l20 80q-2 13 -24 35l2 47l-6 181
q0 20 26 67l15 27q-37 16 -37 30q0 9 8 39l-23 17l-2 41l-2 47v8l17 51l-17 72l2 35l-16 116l-2 9v6l6 33l8 40l90 50l41 32l17 2z" />
    <glyph glyph-name="braceright" unicode="}" horiz-adv-x="520" 
d="M21 1396l72 -23l32 -6q20 -15 42.5 -31.5t42.5 -32.5q50 -37 78 -85q34 -63 39 -101l-10 -13l7 -19l2 -20l7 -14q6 -13 8 -21t2 -16l-6 -14l6 -28l-10 -10q2 -2 2 -5q0 -4 -2 -12q0 -1 -2 -3l12 -22q2 -11 4 -20.5t3 -20.5l16 -43l14 -47q9 -26 21 -45.5t26 -26.5
q2 -2 6 -4l6 -3l43 7q6 -23 6 -35q0 -8 -3 -12t-8 -6t-11 -3t-11 -4q-2 -2 -5 -2h16l-1 -3q-8 0 -15.5 -0.5t-8.5 -0.5t-2.5 -1t-0.5 -1l-19 -9q-23 -9 -34 -63q-4 -10 -8.5 -25t-9.5 -26l-16 -44l-8 -41l-11 -22q1 -1 1 -5q0 -1 0.5 -2t0.5 -3q1 -2 1 -5t-2 -5l9 -10
l-10 -28l11 -16q0 -5 -2.5 -15t-7.5 -19q-2 -3 -4 -6.5t-2 -8.5l-3 -24l-6 -15l9 -13q-5 -39 -40 -101q-27 -47 -76 -85l-86 -64l-30 -6l-74 -23q14 40 31 59t37 19q7 0 13 5.5t12 7.5q33 14 45 67l24 65q3 8 5.5 16t4.5 15l7 40l11 23q0 3 -1 7t-1 9q0 2 2 4l-9 10l6 28
l-7 14q0 6 2.5 15.5t6.5 20.5q1 2 2.5 4.5t1.5 4.5l6 48h7l-10 9q5 37 41 102q12 22 32.5 44.5t43.5 40.5l50 38l-49 37q-25 19 -45 40.5t-33 44.5q-36 65 -40 102q2 1 5 4l5 5h-7l-6 48q0 4 -1 4q0 4 -3 7q-9 22 -9 36l4 12l-4 27l10 11q-2 4 -2 6t2 6t4 9l-16 23
q-2 11 -3.5 19.5t-3.5 18.5l-28 91q-10 27 -21.5 46.5t-25.5 26.5q-25 13 -28 13h-41z" />
    <glyph glyph-name="asciitilde" unicode="~" horiz-adv-x="1124" 
d="M408 1239l102 49q2 2 10 2q21 0 51 -12l31 -10q14 -13 16 -35l29 -4l58 -43l26 -12l12 14l9 -2l22 -15q17 0 66 23l20 12l19 37q6 12 22 17l37 6l27 14l24 -37l-39 -31l-47 -51q-16 -16 -47 -24l-10 -23l-23 -4l-53 -35l-35 -12l-30 -27l-35 11q-19 10 -40.5 20t-45.5 18
q-9 21 -17 27t-30 10l-11 -14q-14 27 -53 39l-29 10l-32 -12l-47 -15l-19 -18l-39 10h-6l-2 -10l-12 6l-13 -8l-2 -12l9 -4l-2 -19q-52 -22 -72 -22q-29 0 -29 20q0 19 31 37q94 57 133 100z" />
    <glyph glyph-name="nonbreakingspace" unicode="&#xa0;" horiz-adv-x="465" 
 />
    <glyph glyph-name="exclamdown" unicode="&#xa1;" horiz-adv-x="535" 
d="M397 1362q-3 -19 -14 -25l-64 -39l-34 -32q-10 -5 -23 -9l-26 25l-72 51q-16 13 -21 23t-8 28l8 15l17 31l61 43l17 20l30 -14l27 -35l39 -35l20 -35q5 -2 23 -6zM375 119q0 -37 -46 -71t-96 -34l-18 2l-10 -14q-22 12 -25 23l6 28l4 47l11 23l-11 57l17 4l-6 49l-8 11
v22l-5 29l7 49l-5 25l17 51l-2 12l-6 6l2 23l8 139l8 35l-2 29l-18 34l2 37l2 47q3 6 16 19l-27 59l-6 55l-4 21l15 14l20 47q6 14 41 35l18 -10l50 4l16 -10q18 -8 18 -25l-2 -8l-39 -59l-10 -101l-6 -39h-22q-9 -13 -9 -24q0 -12 11 -27l26 6l6 -86l-22 -65l8 -27l8 -16
l4 -119l2 -27l11 -2v-20l-31 2l-8 -10q9 -14 15 -18t24 -7v-10l-2 -64l10 -57l-4 -25q47 -33 47 -69z" />
    <glyph glyph-name="cent" unicode="&#xa2;" horiz-adv-x="963" 
d="M879 453q-11 -27 -11 -43v-11l-34 -41l-23 -10l-33 -22l-61 -23l-39 2l-53 -14l-54 -21q-8 0 -14 2l-4 -4l4 -22l6 -74l4 -18l-10 -41v-13l-82 -34l-10 12l8 198l-10 -2l-14 13l-56 6l-51 12l-66 14q-34 20 -51 41l-20 27l10 21l-31 -2l-18 16l-16 33l-13 16l-2 21l-4 20
l4 31q0 13 -26 30q18 38 18 54l-2 59l18 35l45 86l41 37l90 84l76 47l17 14l41 12l32 19l-16 53l8 43l-8 19l2 16l2 20l23 13l45 30l10 5l12 -15l-2 -47l2 -84l-10 -41l41 -20l43 14l39 -8l26 -4l13 -2l12 2l66 8q1 0 2.5 -1t3.5 -3q8 -3 8 -14q0 -12 -14 -33
q-22 -5 -28.5 -12t-6.5 -25l-23 -10l-30 -21l-31 2l-80 2l-33 13l2 -54l-4 -96v-6l2 -39q0 -8 -2 -10l-8 -13l-8 -22l10 -31l-10 -26v-19l8 -2l12 -16l-4 -60l4 -39v-34v-56q-14 -17 -14 -30l2 -23l22 -2l27 -2h6l58 20h18l51 31l41 21l62 53l24 14q13 -10 19 -26zM498 842
l-23 10l4 31q-14 18 -14 26q0 4 4 11l-23 -5l-51 -8l-20 -12l-33 -31l-29 -8q-6 -23 -13 -29.5t-28 -9.5l-6 -6l6 -20q-24 -27 -31.5 -45.5t-7.5 -53.5l3 -41l2 -18l4 -23l16 -41l-12 -30l8 -19q24 -7 34.5 -18t28.5 -45l11 -19h16l14 -16l52 -37l20 -16l23 -9l18 -8l21 54
q-14 7 -18 11.5t-7 14.5l4 23q6 39 6 51v43l-2 39l10 28l4 23l-12 16v27l-4 106l2 9l12 22z" />
    <glyph glyph-name="sterling" unicode="&#xa3;" horiz-adv-x="1499" 
d="M1499 90q0 -20 -29 -43q-33 -27 -49 -27q-11 2 -29 4.5t-24 2.5l-29 -11q-12 -32 -36 -32l-78 8l-103 -10l-39 10l-32 -6l-62 8l-65 8l-60 12l-18 -6l-27 4l-20 4l-215 -6q-57 23 -70 23q-16 0 -35 -31l-18 -6l-103 10l-51 -16l-55 -4h-31l-53 8l-4 24l18 9l54 43l36 12
l27 18l49 25l21 45l20 35l29 76l37 8l4 12l8 6l-6 15l16 14l-45 12v43l10 70v86v24h-26l-19 19l-92 4l-82 10h-41l-63 19l-23 2l6 18l19 10l63 39l25 8l27 21h4l77 -23l52 -14l14 -2l12 10q-34 31 -53.5 79t-19.5 93l-13 4l-8 47l29 35l-21 -6l-6 10l39 88l-12 15l8 22
q21 58 51 58q11 0 31 -7l4 39l-12 5l12 14l18 12l101 70l39 12l61 29l78 12l29 10l43 8l16 -4l25 -14l49 -23l18 -20l-12 -23l-39 -28l-16 -19l-25 -2l-43 -10l-21 -2l-22 23l-57 4l-29 6l-12 2q-31 0 -52 -21l-20 -20l-55 -57l-19 -31l-10 -74l-6 -47l14 -63l-4 -48l55 -61
l45 -121q18 -17 62 -29t98 -14q1 -10 4.5 -17t9.5 -11.5t15 -8.5l2 10q17 5 20.5 8.5t3.5 16.5h21l63 10l95 4l88 48q28 0 28 -19q0 -18 -24 -35q-2 -29 -19.5 -43t-93.5 -45l-20 -8l-23 2l-63 6h-4l-27 -6l-78 12h-37l-78 15l-20 -6v-48l-12 -24l2 -23q16 -16 16 -30
q0 -13 -10 -52l-31 -12l-8 -27l16 -8l2 -20q0 -49 -88 -146v-36l74 -19q11 -17 20 -23.5t29 -9.5l8 9l23 -3l137 -12h21l16 -4v-6l25 -4l53 -8h12l29 6l22 2l117 -6l184 8l54 -6q13 0 24 22q59 2 117 29l45 20l4 -30z" />
    <glyph glyph-name="currency" unicode="&#xa4;" horiz-adv-x="1281" 
d="M1133 124l-12 14l-76 77l-27 48l-20 29l-12 -3l-36 36l-31 40l-32 54l-6 -10l-51 -51l-13 -21l-61 -42l-23 -20l-24 1l-33 -27l-25 -7q-49 -6 -97 -10l-38 11l-31 -3l-52 22l-17 9l2 10q-7 9 -9 14t3 15l-11 6l-2 -1l-55 -77l-94 -91l-8 -44l11 -14l-29 -32l-45 11
l-108 10q-13 4 -19 10l-11 14l15 12l76 76l47 28l29 20l-2 11l36 37l39 31l52 31q-39 46 -63 113q-27 76 -23 89l7 40l-10 33q-4 18 2 33l24 79l7 54l23 51l41 85l6 8l-62 45l-91 94l-44 8l-14 -11l-32 29l10 45l10 108q5 13 12 20l13 11l12 -15l76 -76l27 -48l21 -29l11 2
l36 -36l31 -39l31 -51l36 35q20 21 31 24.5t22 -8.5q15 0 20 5q7 7 2 34l17 12l50 23l28 3l33 8l55 -11q18 -1 43 23q39 -5 69.5 -20.5t79.5 -59.5l19 -15l-13 -10l8 -7l46 64l94 91l9 44l-11 14l29 32l44 -10l109 -10q13 -4 20 -12l10 -13l-14 -12l-77 -76l-48 -27l-29 -21
l3 -11l-36 -36l-40 -31l-56 -33q57 -61 82 -177q6 -23 9 -61q1 -18 0.5 -27.5t-0.5 -12.5l-11 -22l-58 -157l-42 -44l71 -50l91 -94l44 -9l14 11l32 -29l-11 -44l-10 -109q-4 -13 -11 -20zM433 428q0 -31 2 -34q2 -1 4 -1.5t6 -4.5q2 15 3 16q6 6 12 2l54 -29l74 -18l26 -32
q12 -1 17 5q7 7 7 21l13 11l112 24l75 64l46 32l37 53l21 36l2 74l18 34l-1 27l-33 94l2 27q0 17 -5 22l-3 3l-35 18l-56 73l-85 46l-33 25l-16 5l-3 -3q-8 -8 -22 -8l-61 8l-26 4l-67 -24q-25 5 -31.5 5t-13.5 -7q-10 -10 -18 -29q-21 -10 -28 -17l-18 -17l-26 -29l-23 -52
l-19 -1l5 -17l-17 -62l-8 -133l-3 -24q7 -10 12 -17.5t9.5 -18t9 -23t9.5 -34.5l6 -19l4 -5q12 -12 13 -19.5t-10 -23.5q5 -11 4 -11q4 -3 7 -3l36 -1z" />
    <glyph glyph-name="yen" unicode="&#xa5;" horiz-adv-x="1350" 
d="M1253 1339q-5 -49 -22 -71l-37 -54l-39 -75l-33 -23l-12 -45l-20 -37l-35 -49l-21 -12q-14 -8 -14 -23v-30l-66 -97l-39 -75l-16 -19h51l121 -4l82 -2l88 2l-67 -111l-29 -2l-33 -6l-57 25l-33 8l-14 -16l-45 2h-62l-41 4q-3 1 -6 1.5t-6 0.5q-7 0 -17 -8l-32 -50
l-21 -24l-2 -35l-4 -27h14l76 -8l49 -6l127 -6l129 10q0 -48 -7.5 -73t-29.5 -50q-30 -2 -43 -26l-18 12l-43 -10q-4 0 -7 -0.5t-7 -1.5q-9 0 -15 6l-30 26l-33 13q-15 -27 -35 -27q-7 0 -25 4l-57 23l-14 -6l-21 -7l-2 -49q-8 4 -12 4q-14 0 -14 -12v-4l4 -14l2 -21
q0 -7 16 -10l4 -86h-12l-8 -8v-13l20 -8l8 -151l-22 -4l-33 2l-88 -25h-12h-23l-10 23l2 14l8 53l8 256l7 37l-29 8l2 17h-25l-81 -11l-48 -4l-14 2l-131 13l-80 -13l-33 2q13 20 18 35.5t5 40.5l63 51l11 -18l6 16l20 6l43 3l19 4l35 -11l12 -2l14 2q0 -36 33 -36
q13 0 29 20l28 4l80 16l33 -8q0 20 -4 27t-19 14l15 13q-3 16 -9.5 23t-29.5 20l-29 24l4 12l-14 25l-27 4l-176 -14l-131 14q-33 0 -76 -14l-4 20q0 17 27 53l-17 7l21 18l27 16l22 23l29 -18l32 6l25 6l23 -2h18l12 -21l52 -18l-3 22l37 7q-28 18 -28 34l2 37v2
q0 33 -56 33l-6 31l-24 18l-37 49l-66 68l-22 24l24 9l-22 20l28 8l-2 25q-56 9 -65 35l-23 67l-18 29q12 17 14 37l-51 6l33 20l14 9q60 32 78 32l18 -2l70 -6l2 -16l-12 -29l6 -35l47 -67l-8 -15l-29 -10l33 -28q-14 -24 -14 -39q0 -10 12 -31l37 4q28 0 43.5 -13.5
t36.5 -54.5l26 -49l-16 -10l31 -31q16 0 21.5 -3.5t17.5 -16.5l16 -19l-14 -20l67 -59l2 -9l-12 -4l33 -41l10 8l53 -53q10 -45 39 -45q30 0 62 43l53 72l30 35l52 94l47 70l49 141l31 51l12 25l45 -7l4 11q-3 14 -35 26q21 59 37 68l74 47q31 20 49 20z" />
    <glyph glyph-name="brokenbar" unicode="&#xa6;" horiz-adv-x="449" 
d="M293 568l6 -273l-23 -29q3 -16 4 -26.5t1 -14.5q0 -22 -11 -67l11 -21h26v-37l21 -155l-4 -54l4 -41q-2 -12 -19 -24l6 -25l-20 -4l-66 -39l-26 -4l-31 -18q-2 -2 -14 -2q-17 0 -21 12l2 23l-6 45l14 108l5 135q0 43 22 84l-12 31q-17 33 -17 37q0 14 25 59q10 17 10 31
q0 18 -30 27l4 16l-9 4v31l17 69v122h131zM299 1663v-45l10 -29l2 -14l-2 -27l-4 -72l2 -38q0 -21 -4 -29l-24 -51l-3 -21q21 -2 25 -7t4 -27l2 -23q0 -16 -24 -33v-24l-2 -21v-8l18 -29l-6 -190l-2 -37l-27 -104l-104 -4l-6 131q0 20 26 67l15 27q-37 16 -37 30q0 9 8 39
l-23 17l-2 41l-2 47v8l17 51l-17 72l2 35l-16 116l-2 9v6l6 33l8 40l90 50l41 32l17 2z" />
    <glyph glyph-name="section" unicode="&#xa7;" horiz-adv-x="938" 
d="M910 651q0 -40 -14.5 -67t-34.5 -27q-4 0 -20 4l-13 -23l-14 -37l26 -14q21 -14 37 -63l8 -27q18 -63 18 -104q0 -40 -14.5 -67t-34.5 -27q-4 0 -20 4l-13 -23l-18 -49l-45 -49l-21 -29l-28 -2l-93 -47l-43 -6l-73 -25l-58 11l-88 -21q-9 0 -98 19q-42 9 -53 18l-39 25
l-49 28q-31 20 -50.5 51.5t-19.5 57.5q0 16 34 43.5t75 46.5l22 -29l19 -88l36 -22l58 -45l28 -9l54 -26h37l24 -4l49 14l82 8l41 21l39 14q37 22 72 90.5t35 124.5q0 21 -13 37l-39 55l-10 25l-24 12l-13 -16l-22 2l-54 8h-79l-27 39q-21 -24 -34 -30.5t-50 -12.5l-35 -6
l-20 10h-25l-26 20l-33 -6l-31 15l-43 14q-25 8 -43 39t-18 63q0 49 34 104t95 101q17 13 36 26l-23 -4l-31 15l-43 14q-25 8 -43 39t-18 63q0 49 34 104t95 101q47 36 112 71t122.5 54t94.5 19q11 0 76 -21l29 -10q68 12 88 12q28 0 44.5 -9t16.5 -22t-28.5 -36.5
t-71.5 -43.5l-31 -14l-26 2l-50 2l-38 10l-17 35h-14l-17 -18h-59l-41 -6l-31 8l-16 -12l-64 -37q-67 -58 -67 -105q0 -33 20 -43l66 -30l20 -11v-24l31 -17l33 31l16 -2l168 12l80 -18l37 6l24 -16h8q28 0 44.5 -9t16.5 -22q0 -4 -2 -9l26 -14q21 -14 37 -63l8 -27
q18 -63 18 -104zM666 776h-5l-3 -4l-22 2l-54 8h-79l-16 23h-16l-12 -2q-10 -9 -17 -13q-13 -6 -50 -12l-35 -6l-8 3l-30 -17q-67 -58 -67 -105q0 -33 20 -43l66 -30l20 -11v-24l31 -17l33 31l16 -2l168 12l80 -18l37 6l7 -5q27 58 27 107q0 21 -13 37l-39 55l-10 24l-3 -1z
" />
    <glyph glyph-name="dieresis" unicode="&#xa8;" horiz-adv-x="1030" 
d="M893 1163q0 -24 -29 -47l-57 -45l-16 -18l-29 14l-27 31l-39 30l-22 31q-12 6 -43 15l2 12l121 92l22 -16l70 -41q47 -27 47 -58zM395 1169l-12 -22l-12 -35l-54 -47l-18 -18l-25 12l-98 90l-39 10l4 25l21 14l43 33l22 26l27 23l14 -12l23 -15l61 -28q18 -9 26.5 -20.5
t16.5 -35.5z" />
    <glyph glyph-name="copyright" unicode="&#xa9;" horiz-adv-x="1866" 
d="M536 712q0 12 4 26t15 28q-1 4 -1 10q0 4 1 8.5t5 11.5l34 68l17 11l8 19l16 10l13 10l17 6l17 22q5 8 13.5 15t19.5 12l44 14l21 7l21 15l48 18q28 12 46 12h31l86 10h44l17 -8q6 0 13.5 1t13.5 1l21 -10h9q40 0 40 -37q0 -17 -17 -28l-14 -8l-7 -9q-13 -5 -20 -5
q-8 0 -14 4l-35 15l-20 7q0 5 -1 7l-24 -3l-37 8l-42 -4l-31 2q-14 0 -23 -3q-8 -3 -18 -7.5t-18 -7.5h-14l-20 -11l-16 -5l-37 -22l-10 1l-4 -3v-16q-19 -9 -29.5 -16t-12.5 -9l-41 -43l-4 -15q0 -1 -0.5 -1.5t-0.5 -1.5q-3 -13 -4 -18t-6 -8v-14l-6 -19v-63l-3 -7l5 -8
l12 -25l-2 -26l9 -11l12 -31l9 -12l1 -8l18 -29l6 -10l-1 3l8 -8l13 -23l15 -5l1 -11q2 -1 4.5 -1h4.5q16 -11 24 -22l36 -18l22 -5l14 -13q2 -2 12 -4.5t26 -7.5q17 -3 31 -6.5t31 -6.5q10 -3 16.5 -4t14.5 -1h8l37 4l57 -2l24 12l44 10q5 2 8.5 5.5t7.5 5.5l38 13l28 20
h10q26 0 26 -27q0 -5 -7 -25l-5 -7l-6 -21q-12 -15 -27 -15l-20 -2l-60 -21l-65 -3l-66 -14h-11t-9 -1q-2 0 -5 -0.5t-5 -0.5q-14 0 -30 1t-35 3q-4 0 -11 1t-10 1q-8 21 -14 21l10 -23l-132 37l-2 3q-7 0 -16 4.5t-19 12.5l-27 20l-18 15l-9 10l-44 42l-2 22
q-4 2 -10.5 5.5t-8.5 3.5l-7 11q-7 5 -11 9.5t-14 18.5l-44 116l10 1l-5 17v33zM82 631l4 55l51 129l6 21q19 51 66 79v13l51 57q12 -4 14 -4q19 0 21 12l14 43l19 25q14 24 30 33l31 14l27 33l63 43q53 41 72 41l16 -6l29 32l16 2l189 76q14 8 39 8q20 0 51 -12l16 4l6 19
l27 -2l18 -3h5l49 13l78 -4l38 8l33 -4l31 2l35 -12l59 -13l43 -22l123 -45l10 -11l25 -14v-10l-4 -2q-8 -8 -8 -15q0 -8 20 -20l6 6q23 0 35 -20q0 -23 4 -32t16 -20q19 9 31 9q25 0 41 -23l19 -20l36 -33l5 -23l22 -30l8 -27q-16 -23 -16 -35q0 -8 2 -10l59 -62l6 -22
l17 -47q0 -12 -6 -25l-13 -8v-10l17 -2l4 -23l8 -75v-11l-20 -59l4 -51l-15 -29q-12 4 -14 4q-16 0 -16 -33q0 -4 2 -6q20 -28 20 -43q0 -2 -4 -14q-22 -23 -29 -45l-22 -10l6 -7l-6 -6l14 -12v-6l-18 -17l-23 -38l-16 -17q-12 12 -23 12q-18 0 -18 -18q0 -12 16 -29
q-30 -51 -102 -98q-68 -43 -146.5 -81t-130.5 -48h-18q-63 -12 -94 -12h-4l-39 4l-27 -6l-35 16l-28 -6q-19 -12 -27 -12h-8q-8 16 -16.5 22t-24.5 14q-57 -26 -96 -26q-11 0 -25 6h-22l-68 18l-61 -2l-23 19l-33 -2l-28 2l-41 12l-127 29l-35 28l-45 17l-47 49
q-17 10 -47 10l-27 33q8 18 8 31q0 28 -74 41v8l-12 6l-12 20l-10 11v22l-23 60l-2 20l-16 88l6 86zM190 758q37 -21 35 -45v-70l15 -102l-2 -27l32 -51q-22 -17 -22 -29q0 -26 31 -26h6q6 0 14 2l39 -45q-14 -15 -14 -23l8 -16h8l41 -39l51 -31l78 -57l53 -13l37 -28
l100 -43l86 -37l27 2l186 -27l29 -2l23 2l39 10l100 -6l43 9l76 30l28 8l15 -12q30 8 34 19l9 32l100 86l41 70l16 31h13l12 26l-6 11l8 18v82l16 39l4 29l17 10l10 61q-20 35 -20 58l-22 108l24 19q28 22 28 40q0 46 -55 54l-6 53l-49 78l-8 31l-13 2l-63 75l-41 27l-41 33
l-21 6l-12 22l-18 -2q-25 0 -43 13l-88 48l-88 13l-66 10h-61h-45l-50 -14l-45 -6l-47 -27l-24 4l-25 -6l-111 -61l-26 -4q-33 -41 -49 -47l-27 -11l-88 -86l-16 -12q-31 -27 -74 -98l-10 -21l-21 -2l-10 -20l-12 -52l-13 -16l-6 -18l-41 6q-8 -23 -30 -35z" />
    <glyph glyph-name="ordfeminine" unicode="&#xaa;" horiz-adv-x="879" 
d="M185 1139q40 17 49 19q21 29 59 32q1 0 1 1t1 2t1 3h19q5 4 9.5 8t8.5 6q5 2 15.5 4.5t27.5 7.5l102 18l29 -4l37 8l62 8q10 2 16.5 6.5t6.5 10.5l-2 4l-8 36l6 51q-5 16 -31 20l-17 23q-18 30 -25 34q-5 5 -13.5 6.5t-19.5 3.5t-23.5 4t-23.5 4l-39 4l-24 -5
q-2 1 -6 4.5l-8 7t-7.5 6t-4.5 2.5l-23 -23l-80 -42q-11 -7 -18 -12t-9 -10l-11 -14q-15 -21 -39 -21l-38 15l-21 5q-48 19 -48 46q0 14 11 18l40 30l27 5l39 19l56 18l10 4l36 20l30 -6l93 18h77l31 -12l96 -16l22 -18v-28q-4 -1 -7 -1q-1 0 -1 -1q1 -4 4 -4l22 11h7
q3 0 9.5 -3.5t13.5 -10.5l14 -29l19 -16l-3 -65q0 -18 27 -36l8 -132l-17 -19l22 -25v-15l-5 -74l7 -54v-46h-11q0 -10 2 -16q1 -7 13 -29l16 -35l-9 -20l-18 -26l-55 -24l-34 -11q-28 -13 -39 -13t-20.5 11.5t-9.5 18.5q0 13 6 33l-58 -18q-26 -12 -50 -12h-28l-35 -15
l-28 -2l-73 -17l-32 6q-5 -2 -8 -3.5t-8 -3.5l-14 -5l-28 2l-53 11l-37 4q-42 7 -69 25t-41 52q-5 2 -10.5 4.5t-9.5 3.5l-9 27v18l-13 37l29 63l9 26q5 9 9 13.5t11 9.5l16 13q15 13 31.5 26t30.5 25zM180 999l16 -70l-14 -33l9.5 9.5t6.5 7.5q11 -9 19.5 -15.5t18 -11
t20.5 -9t28 -9.5l16 -18q11 -2 20 -2t21 -2l19 16l16 -9q2 1 3.5 2.5l2.5 2.5l13 6l12 -4t10 -3q10 1 25.5 6t33.5 16q1 0 17 11q20 1 33.5 2t22.5 3.5t15.5 6.5t12.5 10l19 24l33 28v20l4 2q9 4 12.5 6t3.5 7q-14 14 -14 25l3 31l-7 75l5 11l-10 5q-6 -2 -11 -2l-70 7
q-9 0 -20.5 -1t-19.5 -1l-20 14l-9 -6l-49 -4q-8 -2 -17.5 -6t-14.5 -6l-17 10l-14 -10l-117 -56l-22 -16q-5 -8 -10 -15t-10 -15l-31 -19l9 -13zM178 892v-5l4 9zM174 1019q0 3 -3 6zM171 1025l-2 4q0 -1 1 -2t1 -2z" />
    <glyph glyph-name="guillemotleft" unicode="&#xab;" horiz-adv-x="1047" 
d="M942 197q0 -50 -14 -64l-17 -14l-22 -23l-55 -16l-27 -12l-29 6h-16v24l-8 17l-29 41q-24 36 -38 55.5t-23 19.5l-19 -4l-22 23q-48 48 -62 58.5t-57 23.5l-35 43q-23 -10 -35 -10q-6 0 -12 2l16 20l6 14l15 15l123 82l57 30l57 45l17 15l6 20l14 15l43 57l33 14l59 29
l27 -2l20 -6l-16 -25l-57 -65l-13 -21l-59 -29l-59 -53l-39 -24l-23 -13l-4 -28l6 -27q28 0 37 -16q-6 -16 -6 -23l4 -16l27 -15l28 -53l43 -24l37 -39l29 -21l6 -24l6 -23l19 2q30 19 49 19h12zM571 190q0 -49 -14 -63l-16 -14l-23 -23l-55 -16l-27 -13l-28 7h-17v24l-8 17
l-29 41q-24 36 -38 55.5t-23 19.5l-19 -4l-22 23q-44 45 -59 57t-60 25l-35 43q-22 -11 -35 -11q-6 0 -12 2l17 21l6 14l14 15l123 82l57 30l58 45l16 15l6 20l14 14l44 58l32 14l60 29l26 -2l21 -6l-17 -25l-57 -66l-12 -20l-60 -29l-59 -53l-39 -24l-22 -13l-5 -28l7 -27
q27 0 36 -16q-6 -16 -6 -23l4 -16l27 -15l29 -53l43 -25l37 -38l28 -21l6 -24l7 -23l18 2q32 18 49 18h12z" />
    <glyph glyph-name="logicalnot" unicode="&#xac;" horiz-adv-x="1176" 
d="M948 160q-10 0 -22 6l-84 70l-39 24l2 43l18 2l23 37v131l13 77l-78 19l-86 -15l-113 -4l-29 -12q-14 12 -37 12q-12 31 -28 31q-13 0 -21.5 -12.5t-9.5 -28.5h-12l-15 -2l-30 -12l-39 6l-60 4l-51 30l-74 56q-36 28 -36 53q0 20 34 23q26 -31 43 -31q14 0 35 6l19 -18
l14 6l35 -9q6 -2 24 -2l17 7l65 16l76 -4h4q12 0 74 12l27 6l63 -8l12 2l31 10q8 5 29 5q15 0 35 -11l61 -47l31 -14l16 -19l37 -34l4 -12l4 -4v-7l14 -22l-7 -8l9 -34l6 -50v-51l-10 -6l6 -35l15 -53v-108l2 -19z" />
    <glyph glyph-name="softhyphen" unicode="&#xad;" horiz-adv-x="942" 
d="M874 532l-14 -22l-8 -23l-37 -34l-16 -19l-31 -14l-61 -47q-20 -11 -35 -11q-21 0 -29 5l-31 10l-12 2l-45 -6l-18 -2l-27 6q-62 12 -74 12h-4l-76 -4h-2l-63 16l-17 7q-18 0 -24 -2l-35 -9l-14 6l-19 -18q-21 6 -35 6q-17 0 -43 -31q-34 3 -34 23q0 25 36 53l74 56
l51 30l60 4l39 6l30 -12l15 -2h12q1 -16 9.5 -28.5t21.5 -12.5q16 0 28 31q23 0 37 12l29 -12l113 -4l86 -15l86 21l22 -4l39 45z" />
    <glyph glyph-name="registered" unicode="&#xae;" horiz-adv-x="1866" 
d="M710 1010l22 8l3 1q32 13 57 13q3 0 5.5 -0.5t5.5 -0.5l55 6q10 -8 11 -8l51 8l12 -6h120l50 -9q8 0 18 -1t17 -1l28 -15q8 -2 14.5 -4t13.5 -4q47 -18 47 -66q0 -19 -16 -57l-10 -21l-18 -19l1 3q-6 -6 -11 -7l2 -9l-8 -11l-14 -8l-24 -25l-41 -22q-3 -7 -7.5 -9.5
t-12.5 -6.5l-12 -7l-17 -5h-10l-25 -8l-11 -1l-9 -6l-3 -9h9l28 -29l-3 -2l12 -16l27 -30l22 -18l23 -30l-1 -10l15 -7q5 -8 7 -10.5t6 -6.5l7 -8l22 -20l14 -17l14 -20v-9q0 -2 1 -4q5 -2 11 -4t10 -3l8 -6l15 -16l54 -36l3 -3l31 4q7 0 42 -21l-20 -21l-20 -15l-20 -4
l-35 -11q-10 -3 -18.5 -4t-16.5 -1h-22q2 6 2 16l-51 27l-15 13l-3 6q-15 14 -17 27l-3 17l-16 4l-18 26l-16 7l-10 14q-4 1 -8 1l-8 11l-15 12l-11 12l-16 9l-29 36v14l-24 5l-10 11l-28 23l-12 18l-15 8l-16 14l-16 7l-21 14l-2 -17q7 -6 7 -18q0 -4 -2 -10l-4 -10l-3 -28
q0 -5 -1 -10.5t-1 -10.5l2 -13l-2 -9l7 -13l-5 -40v-15l11 -80q0 -10 -10 -27l-12 -9l-10 -13h-23q-2 0 -6 -3l-25 -20q-6 -6 -19 -6q-25 0 -25 20q0 5 4 15t10 23q2 10 2 16l2 38l6 16l-4 35l17 26q-11 12 -11 27l3 11q-2 2 -3 2.5t-2 2.5v45l4 38l-4 49l4 20l-6 12
q0 15 18 25q-6 2 -14 2v36l-2 38l2 18q-6 11 -8 20t-2 29v6h-5l5 52q-1 5 -3 9t-4 9q-5 4 -11.5 9t-10.5 7zM1215 325h4l-2 -3q-1 0 -2 3zM846 816l-2 -19v-17l-5 -18q2 -3 7.5 -5.5t13.5 -6.5v-14l-15 15q11 0 24.5 -1t24.5 -1l7 -3q1 0 1.5 0.5t1.5 0.5l13 3l33 10l12 -2
l6 4l44 15l16 10l27 13l24 35l26 28q0 5 1 9t1 7l8 23q0 2 1 5.5t1 5.5q0 13 -4 16l-31 23q-3 0 -8 1t-7 1l-20 8q-1 0 -1.5 1t-1.5 1l-18 -2l-6 13l-4 -7l-73 4q-1 -1 -3.5 -2.5t-3.5 -1.5l-11 2l-34 -4t-33 -4h-4q-2 -3 -3.5 -5.5t-2.5 -4.5q-8 0 -10.5 -5t-2.5 -22l2 -33
v-41q-8 -5 -10 -7t-4 -3q0 -1 15 -4zM1022 978h7l-14 8l5 -11q0 1 2 3zM82 631l4 55l51 129l6 21q19 51 66 79v13l51 57q12 -4 14 -4q19 0 21 12l14 43l19 25q14 24 30 33l31 14l27 33l63 43q53 41 72 41l16 -6l29 32l16 2l189 76q14 8 39 8q20 0 51 -12l16 4l6 19l27 -2
l18 -3h5l49 13l78 -4l38 8l33 -4l31 2l35 -12l59 -13l43 -22l123 -45l10 -11l25 -14v-10l-4 -2q-8 -8 -8 -15q0 -8 20 -20l6 6q23 0 35 -20q0 -23 4 -32t16 -20q19 9 31 9q25 0 41 -23l19 -20l36 -33l5 -23l22 -30l8 -27q-16 -23 -16 -35q0 -8 2 -10l59 -62l6 -22l17 -47
q0 -12 -6 -25l-13 -8v-10l17 -2l4 -23l8 -75v-11l-20 -59l4 -51l-15 -29q-12 4 -14 4q-16 0 -16 -33q0 -4 2 -6q20 -28 20 -43q0 -2 -4 -14q-22 -23 -29 -45l-22 -10l6 -7l-6 -6l14 -12v-6l-18 -17l-23 -38l-16 -17q-12 12 -23 12q-18 0 -18 -18q0 -12 16 -29
q-30 -51 -102 -98q-68 -43 -146.5 -81t-130.5 -48h-18q-63 -12 -94 -12h-4l-39 4l-27 -6l-35 16l-28 -6q-19 -12 -27 -12h-8q-8 16 -16.5 22t-24.5 14q-57 -26 -96 -26q-11 0 -25 6h-22l-68 18l-61 -2l-23 19l-33 -2l-28 2l-41 12l-127 29l-35 28l-45 17l-47 49
q-17 10 -47 10l-27 33q8 18 8 31q0 28 -74 41v8l-12 6l-12 20l-10 11v22l-23 60l-2 20l-16 88l6 86zM190 758q37 -21 35 -45v-70l15 -102l-2 -27l32 -51q-22 -17 -22 -29q0 -26 31 -26h6q6 0 14 2l39 -45q-14 -15 -14 -23l8 -16h8l41 -39l51 -31l78 -57l53 -13l37 -28
l186 -80l27 2l186 -27l29 -2l23 2l39 10l100 -6l43 9l76 30l28 8l15 -12q30 8 34 19l9 32l100 86l41 70l16 31h13l12 26l-6 11l8 18v82l16 39l4 29l17 10l10 61q-20 35 -20 58l-22 108l24 19q28 22 28 40q0 46 -55 54l-6 53l-49 78l-8 31l-13 2l-63 75l-41 27l-41 33l-21 6
l-12 22l-18 -2q-25 0 -43 13l-88 48l-154 23h-106l-50 -14l-45 -6l-47 -27l-24 4l-25 -6l-111 -61l-26 -4q-33 -41 -49 -47l-27 -11l-88 -86l-16 -12q-31 -27 -74 -98l-10 -21l-21 -2l-10 -20l-12 -52l-13 -16l-6 -18l-41 6q-8 -23 -30 -35z" />
    <glyph glyph-name="macron" unicode="&#xaf;" horiz-adv-x="1024" 
d="M933 1770l-13 -45l-16 -23q-35 -50 -65 -74q-30 -26 -43 -26l-52 12l-17 -8l-9 -2q-9 0 -13 6l-27 33l-15 6q-12 -27 -24 -27q-11 0 -58 17l-17 6l-15 -9l-77 13l-171 -17l-54 7l-37 6l-14 2l-15 -4l-42 -17l-12 8q-16 -28 -30 -28q-9 0 -20 20q5 22 16 37q46 55 83 82
l25 18l43 2l22 7l18 -11l22 -6l-1 -14q16 -16 29 -16h13v16l19 8q37 16 64 16q8 0 25 -12q22 23 34 23q7 0 13 -4l21 -13l69 -4l197 -35l14 -2q34 0 65.5 18.5t46.5 47.5q13 0 18 -14z" />
    <glyph glyph-name="degree" unicode="&#xb0;" horiz-adv-x="639" 
d="M150 1298l22 35l-2 10q0 21 33 54q37 35 73 43l50 12l22 6l19 -6l32 -2l39 -14q27 -6 35 -27q23 -55 23 -102q0 -54 -64.5 -90.5t-163.5 -36.5l-8 8q-6 -2 -18 -2q-11 0 -13 2l-14 12l-35 25l-12 39l-18 14v20zM397 1266l4 43q0 28 -32 61l-15 21q-16 0 -26 12
q-76 -21 -76 -60q0 -32 10 -43l12 -18l25 -29l20 -6l21 -12z" />
    <glyph glyph-name="plusminus" unicode="&#xb1;" horiz-adv-x="1077" 
d="M616 1193v-45l10 -29l2 -14l-6 -99l2 -38q0 -21 -4 -29l-24 -51l-3 -21q21 -2 25 -8l19 5l35 -2l116 16l9 2h6l73 -14l50 -90l32 -41l2 -17l-20 -14h-45l-29 -10l-14 -2l-99 6l-38 -2q-21 0 -29 4l-51 24l-21 3q-2 -16 -5 -22l1 -10v-190l-2 -37l-27 -104l-104 -4l-6 131
q0 20 26 67l15 27q-37 16 -37 30q0 9 8 39l-23 17l-2 43l-16 -4h-190l-37 2l-104 27l-4 104l131 6q20 0 67 -26l27 -15q16 37 30 37q9 0 39 -8l17 23l44 2l-6 28l2 35l-16 116l-2 9v6l14 73l90 50l41 32l17 2zM924 292l-14 -22l-8 -23l-37 -34l-16 -19l-31 -14l-61 -47
q-20 -11 -35 -11q-21 0 -29 5l-31 10l-12 2l-63 -8l-27 6q-62 12 -74 12h-4l-76 -4l-65 16l-17 7q-18 0 -24 -2l-35 -9l-14 6l-19 -18q-21 6 -35 6q-17 0 -43 -31q-34 3 -34 23q0 25 36 53l74 56l51 30l60 4l39 6l30 -12l15 -2h12q1 -16 9.5 -28.5t21.5 -12.5q16 0 28 31
q23 0 37 12l29 -12l113 -4l86 -15l86 21l22 -4l39 45z" />
    <glyph glyph-name="twosuperior" unicode="&#xb2;" horiz-adv-x="737" 
d="M761 595q0 -13 -7 -24l-20 -31v1l-13 -25l-39 -11q-9 -7 -18.5 -13t-17.5 -12q-14 -9 -27 -9q-27 0 -46 9h1q-14 5 -24.5 7.5t-17.5 2.5l-46 -2l-79 8l-93 -3h-25l-8 11l-7 -2v-7l-91 -2l-3 16l-3 -12l-43 -4h3l-25 -8l1 1q-13 -5 -26 -6t-26 -1q-72 0 -72 26v17l21 10
l-3 -1l18 16q4 4 11 7t16 4q11 26 22.5 35t31.5 11q3 4 6 7.5t6 5.5q-3 6 -3 12q0 11 2 13l45 38l31 38l14 16q4 8 7 15t8 13l54 56l7 18l21 31l23 66l92 140q13 17 16 41l9 69q0 1 0.5 2t0.5 3q-8 12 -12 21.5t-9 25.5q-17 12 -24.5 19.5t-17.5 21.5l-35 13q-67 26 -89 33
q-6 3 -16 4t-21 1q-32 0 -50 -12h1l-43 -32l-25 -11l-48 26q0 2 0.5 7.5t0.5 6.5q4 11 6.5 17t13.5 22q2 5 6 12t6 11h19l-3 -3l-1 -3l10 14l46 21q4 3 8 7.5t7 7.5q24 24 98 24q14 0 32.5 -1.5t41.5 -6.5l7.5 -13.5t2.5 -6.5q0 -1 11 16q20 -5 27 -11t11 -17h1q-1 0 16 10
l24 -9q20 -7 30.5 -13.5t14.5 -11.5l10 -12l33 -19h-1q11 -6 22.5 -18t22.5 -31l8 -21v-39l5 -20l1 -6q0 -30 -22 -42q0 -3 -0.5 -5.5t-0.5 -4.5l-2 -1q3 -8 3 -13q0 -16 -10 -29v1l-97 -142l1 1q-10 -18 -21 -37.5t-21 -37.5l-9 -6l-19 -33l-97 -132v1l-32 -45h1l-18 -31
l1 4q-5 -16 -8.5 -22.5t-16.5 -12.5q14 1 28 2.5t27 2.5l61 -14h10q6 0 17.5 1t28.5 4l14 -8h25l65 1h11l14 -5q3 0 5.5 -1t5.5 -1h-1l45 4l15 -6l22 2l56 -3q13 1 41 29l46 -8v-30z" />
    <glyph glyph-name="threesuperior" unicode="&#xb3;" horiz-adv-x="692" 
d="M636 839l-7 -23v-18q0 -8 -3.5 -20.5t-11.5 -28.5l-16 -21l-11 -6q-17 -32 -32.5 -63l-31.5 -63l-26 -24l-16 -30l-35 -31q-25 -23 -33 -51l-17 -15l-32 -16q-2 -4 -6.5 -8t-7.5 -8l-27 -16l3 1l-46 -39q-23 -17 -39 -20l-23 -5q-5 -5 -8 -10.5t-7 -10.5v1
q-5 -7 -18.5 -14t-32.5 -14l-28 -15l-21 8q-16 8 -30 8h-15q-22 18 -22 36q0 28 24 31l42 13l23 14h18l41 21l32 5q11 8 21 13.5t21 13.5l48 32l20 27l15 -6h1l-4 12l62 60h-3l10 30l53 80h-1q25 41 25 80v19q10 11 13 27l-4 5l1 -3l-9 10l9 33l-10 23l-10 34l-12 18
q13 20 13 22q0 -3 -20 9l11 12l-14 -4l-2 -11q-50 47 -77 57l-5 18l-2 -3h-8q-2 -5 -4.5 -9t-3.5 -6q-17 7 -30 11t-22 4t-7 1q-1 2 -6 2.5t-11 0t-11 -0.5h-7q-5 0 -10.5 -1t-10.5 -1h-20q-17 -11 -34.5 -24t-33.5 -24l-23 -5l2 1l-43 -14h-31v32l12 16l14 29l31 12
q5 8 11 17t11 16l48 28l-2 -2q3 3 5 6t4 7l8 28l16 16l3 10l1 2q0 3 3 6l-6 5l8 25l38 47q2 8 5.5 15.5t5.5 15.5l14 31l-1 -1q3 7 3 16q0 4 -20 4q-6 0 -15 -1t-20 -3l-88 11l-28 4l-29 3q-5 0 -13 -5h1q-35 -21 -50 -21q-33 0 -33 30q0 25 24 37l-1 -1q14 7 26.5 14
t26.5 14h-1l53 34l45 -10l86 3l21 -9l48 3l46 -7l18 7l12 -4q2 2 3 2t3 2q33 22 46 22q12 0 18 -8t6 -16q0 -35 -16 -77v1q-8 -21 -17.5 -38t-22.5 -29l-15 -20l-81 -122l5 -2q11 0 22 0.5t21 0.5l20 -6q12 0 24.5 -0.5t24.5 -0.5l34 -20q9 -1 18.5 -2.5t17.5 -2.5l24 -16
l-2 2l38 -17l30 -17l11 -20l24 -40q5 -7 7 -10.5t2 -8.5q0 -15 -16 -31q4 -4 8 -12q9 -24 9 -74z" />
    <glyph glyph-name="acute" unicode="&#xb4;" horiz-adv-x="565" 
d="M428 1339l-10 -14l-56 -94l-36 -41l-25 -25l4 -12l-12 -25l-41 -59l-39 -35l-12 -18h-6v4h-54l-4 20q22 72 35 93l39 65q27 44 27 53l-5 35l-16 10l21 39l47 2l108 17l1.5 1.5t2.5 0.5q15 0 31 -17z" />
    <glyph glyph-name="mu" unicode="&#xb5;" horiz-adv-x="918" 
d="M908 61q-7 -26 -29 -36l-109 -50q-29 18 -29 58v57l-16 4l-185 -94l-115 -23l-37 -12h-9q-10 0 -14 2l-35 15l-43 -13l-39 35l-49 -8l-3 -54l-18 -34q0 -2 -0.5 -4t-1.5 -5q0 -13 24 -28l-4 -31v-350l10 -66v-34l4 -68q-5 -15 -60 -59l-48 -39q-11 -13 -28 -13
q-13 0 -22.5 8t-9.5 17q0 26 16 61l7 29l-9 10l14 168l6 17l24 4v32q0 31 -4.5 46t-23.5 40l-24 31l24 25q0 33 11 59l-13 17l2 55q13 8 13 18l-2 17l-27 4v30l2 27v41q0 27 -1 140q0 47 -3 77l-6 2l-2 36q-4 9 -7 13q2 8 6 5v39q-1 24 7 40l18 35l-18 56l2 59v68
q-1 6 18 69v15l-18 -9l-12 13v141q2 28 -3 43l-8 12q0 2 -0.5 3.5t-1.5 2.5q0 17 23 31l11 6l71 31q34 14 46 14q14 0 26 -28l9 -23q-19 -56 -19 -104l6 -58l-2 -24l-16 -49q-1 -27 -2 -37.5t-2 -18.5q0 -15 6 -30l16 -29l-22 -76l8 -24l-19 -101q3 -8 5 -12l14 -25l6 -106
q3 -14 8 -24q10 -7 19 -19q20 -12 74 -29l70 -20q19 -4 64 -4q32 0 47 6l55 22l58 -16q15 5 20 33l31 18l43 62l35 30q14 20 17 56l7 102l8 22l-21 23l2 37v211l-11 61q0 15 17 33l-4 18l-15 2l-5 31v8l9 31v21l15 -5l105 39q1 0 2 1t2 1q10 0 17.5 -18.5t7.5 -48.5
l-14 -359l-33 11q-11 -28 -11 -39l5 -21q12 4 18 4q8 0 14 -5t6 -13l-10 -188l19 -35l10 -97q4 -6 12 -15.5t21 -29.5z" />
    <glyph glyph-name="paragraph" unicode="&#xb6;" horiz-adv-x="1155" 
d="M748 168l-4 -53l2 -41q0 -15 -15 -25l6 -24l-22 -4l-66 -41l-26 -4l-31 -19q-4 0 -7 -0.5t-7 -1.5q-19 0 -19 12v25l-6 45l14 109l5 139q3 51 22 84l-12 31q-17 31 -17 36q0 16 25 58q10 15 10 33q0 14 -30 26l4 17l-9 4v30l9 -6q0 20 26 68l2 4l-23 -2l-53 18l-84 21
l-5 16l-14 -4l-35 20l-24 29l-59 14l-22 17l-52 22l-39 31l17 8q-14 17 -25 22t-37 7q-25 25 -32 51l22 18q-6 3 -24 9q-37 9 -49 19.5t-21 45.5l-16 55l14 41l2 27q22 16 22 29q0 2 -6 14l105 59l76 5q11 3 30 22l19 19l63 12l25 -12l21 20h50l16 18l7 2l36 -2l17 -2l45 2
l65 7h37q37 0 54 -5l43 -8l200 11l150 -58l2 -37l-19 -2l-16 -14l-31 -10q-4 0 -7 -3.5t-1 -11.5q6 -45 6 -63q0 -17 -6 -47h-25l-4 -56l17 -10l-2 -16l4 -70l-15 -37l9 -30l2 -45l4 -27l-6 -113l-15 -20l2 -25l-2 -16l13 -29l4 -18l-2 -21h-4l5 -45l-25 -28q3 -19 3 -41
q0 -35 -9 -66l9 -22h28v-37l21 -160l-4 -53l2 -41q0 -15 -15 -25l6 -24l-22 -4l-66 -41l-26 -4l-31 -19q-4 0 -7 -0.5t-7 -1.5q-19 0 -19 12v25l-6 45l14 109l5 139q3 51 22 84l-12 31q-17 31 -17 36q0 16 25 58q10 15 10 33q0 14 -30 26l4 17l-9 4v30l9 -6q0 3 3 5l-95 40
q-30 12 -59 12l-22 -3v-40l10 -90l-25 -28q3 -19 3 -41q0 -35 -9 -66l9 -22h28v-37zM201 991l69 -65l10 -15l27 -16l4 -16l39 -27l21 -29q8 -13 21 -26l29 -23l80 -24l80 -9q1 8 3 21l-21 18v39l-4 47v9l17 51l-17 71l4 35l-20 117v16l8 33l4 74h-86q-43 0 -150 -55l-12 10
q-12 -5 -17.5 -9.5t-19.5 -23.5l-71 -72l-7 -24l-16 -31zM720 1266l1 -8l8 -29l2 -17v-24l-6 -74l2 -41q0 -18 -4 -26l-24 -52l-3 -20q20 -1 25.5 -6.5t5.5 -28.5v-22q0 -20 -24 -33v-25l-2 -20v-8l18 -29l-4 -89l26 -5l16 22l25 -4h90l31 -2q10 3 10 18q0 21 -21 21h-10
l-4 16l10 119v51l13 41l-13 47q-4 8 -4 15q0 13 7.5 23.5t23.5 21.5l-18 12l-2 20l-3 76q0 26 -14.5 42.5t-42.5 21.5z" />
    <glyph glyph-name="periodcentered" unicode="&#xb7;" horiz-adv-x="516" 
d="M393 612l-28 -55l-19 -10q-22 -16 -30 -25t-13 -24q-27 0 -37 10l-98 94l-25 6l-20 6l8 21l25 16q10 8 25.5 18.5t23.5 16.5l24 29l21 14l69 -45l27 -12q28 -12 47 -60z" />
    <glyph glyph-name="cedilla" unicode="&#xb8;" horiz-adv-x="1020" 
d="M584 -88l-2 -18q0 -11 6 -29q28 -15 47 -15q4 0 8 1.5t12 3.5l15 -19l49 -31q14 -8 14 -30q0 -15 -8 -33q16 -21 16 -35q0 -31 -28.5 -62.5t-91.5 -70.5l-35 12q-15 -26 -31 -26q-2 0 -13.5 1t-31.5 3q-10 2 -23.5 3t-29.5 1q-11 14 -11 22q0 23 15 25l94 8q31 4 49.5 38
t18.5 95h-15l-10 23q-4 2 -10 4l-51 -12h-7q-22 0 -22 24q0 4 2 22.5t6 47.5q-2 10 -3 18t-1 15l4 36l4 29l68 -4z" />
    <glyph glyph-name="onesuperior" unicode="&#xb9;" horiz-adv-x="366" 
d="M259 1347l-2 -24l-13 -44l8 -49l2 -35q-22 -4 -22 -11q0 -5 5.5 -9t20.5 -9l-6 -46l-11 -9v-30l3 -18q0 -6 -1 -8.5t-2 -4.5q-2 -10 -2 -18t-2 -19q4 -10 8 -22.5t7 -21.5l-7 -50l10 -51l-5 -13q0 -4 -1 -7.5t-1 -7.5l-7 -12q2 -8 4.5 -15.5l4.5 -13.5v-23l2 -41l-4 -13
q0 -5 -0.5 -11t-0.5 -9l-16 -19v-6l7 -9q9 -8 12.5 -17t3.5 -26l-2 -36l-2 -25l5 -38q-11 -11 -26.5 -20.5t-32.5 -17t-34 -12t-31 -4.5q-33 0 -33 54l2 47l12 7q-5 12 -5.5 23t-0.5 23q8 5 9.5 7t2.5 4l-9 12l1 27l2 35l23 35q-3 -5 -3 1l1 -1l-14 34l2 21v6q0 15 8 23
l13 12l-1 6l1 -1l-15 42l1 66q-3 5 -5 9t-5 9q-9 15 -9 30l7 118l8 66v-1q0 7 -1 14.5t-1 14.5q-1 14 -1.5 24.5t-2.5 18.5q-19 0 -37.5 -0.5t-36.5 -0.5q-18 12 -18 27q0 29 17 35l-1 -1l73 37l55 50q11 10 24.5 16.5t28.5 6.5q5 0 13.5 -1.5t22.5 -6.5l-1 -30v-6z" />
    <glyph glyph-name="ordmasculine" unicode="&#xba;" horiz-adv-x="979" 
d="M35 1105q0 75 35 149q35 75 52 84q8 5 15 10.5t15 10.5q4 7 8 16t7 15q12 17 28 22l70 37l42 36l54 18l91 31l73 8h60q35 0 47.5 -7t14.5 -26l3 -3l18 24l29 -5l56 -21l21 -18l31 -20l31 -45q11 -9 42 -9q15 -19 25 -37.5t15 -34.5q5 -17 9.5 -43t6.5 -58l2 -38l-15 1
q1 -4 1 -7v-5l-14 -8q2 -5 5.5 -7t12.5 -7v-23q0 -89 -68 -193q-7 -11 -16 -24t-22 -27l-29 -30l-26 -10l-151 -71h-79l-61 -16h-74l-24 -5l-70 13q-8 0 -20 1t-18 1l-16 17l-38 4l-28 17l-38 30t-37 31l-18 33l-26 22l-22 53l-8 29l10 9q1 14 8 21q-6 3 -11.5 7.5t-8.5 6.5
v41zM184 1102l-5 -5q10 -3 13 -15q4 -14 8.5 -27.5t8.5 -27.5l39 -66l-4 -38q2 0 13 11l28 -2l94 -61q23 -2 47.5 -4t46.5 -4l49 -10l62 12l35 9l52 50l36 11l13 14q10 22 21.5 45t21.5 44l21 18l5 5t3 5q-3 8 -6.5 19t-5.5 19l12 92l-27 88l-5 37l-2 4q-15 1 -26 12l-52 69
q-15 8 -32.5 15t-31.5 15l-6 9q-8 13 -10.5 15.5t-5.5 2.5q-11 0 -32 -9q-26 9 -31 9h-25l-37 -2q-13 -5 -30 -11.5t-28 -9.5l-6 2l-57 -32l-96 -86l-15 -11q-4 -21 -11 -39.5t-26 -51.5q-2 -3 -4 -7t-4 -9q0 -22 -6 -30.5t-22 -13.5l22 -24l2 -25zM160 1164h-29
q0 -31 1 -44.5t4 -13.5t9 15t15 40q3 0 4 1l-6 5q2 -2 2 -3zM168 1100q-7 0 -23 -12l24 -12q0 6 -1 10l3 3q2 2 4 3.5t4 4.5q-5 3 -11 3zM415 1460l-23 -3l13 -13zM763 1325h4l-14 9l5 -9h5zM241 927l3 -11v7q-1 0 -1 1q-1 1 -2 3z" />
    <glyph glyph-name="guillemotright" unicode="&#xbb;" horiz-adv-x="1047" 
d="M1004 471l-17 -20l-6 -15l-14 -14l-123 -82l-58 -31l-57 -45l-16 -14l-6 -21l-15 -14l-43 -57l-33 -15l-59 -28l-27 2l-20 6l16 24l58 66l12 20l59 29l60 53l39 25l22 12l4 29l-6 27q-28 0 -37 16q6 15 6 22l-4 17l-26 14l-29 53l-43 25l-37 39l-29 20l-6 25l-6 23
l-18 -3q-32 -18 -49 -18h-13q0 49 15 64l16 14l23 22l55 17l26 12l29 -6h17v-25l8 -16l28 -41q41 -57 47.5 -66.5t14.5 -9.5l18 4l23 -22q25 -25 33.5 -34t24.5 -20.5t26 -15.5t35 -12l34 -43q25 10 35 10q6 0 13 -2zM637 463l-16 -21l-7 -14l-14 -14l-123 -82l-57 -31
l-58 -45l-16 -14l-6 -21l-14 -14l-43 -57l-33 -15l-60 -29l-26 3l-21 6l17 24l57 66l12 20l60 29l59 53l39 25l23 12l4 29l-6 26q-28 0 -37 17q6 15 6 22l-4 17l-27 14l-29 53l-43 25l-36 39l-29 20l-6 25l-6 22l-19 -2q-31 -18 -49 -18h-12q0 49 14 63l16 15l23 22l55 17
l27 12l29 -6h16v-25l8 -16l29 -41q20 -30 32.5 -48t17.5 -23t11 -5l19 4l22 -22q42 -42 50.5 -50t22.5 -15t46 -17l35 -43q23 10 35 10q6 0 12 -2z" />
    <glyph glyph-name="onequarter" unicode="&#xbc;" horiz-adv-x="1510" 
d="M1083 1546l-12 -12l-18 -41l-41 -70l-29 -94l-143 -270l-15 -55l-96 -158q-8 -45 -12 -58.5t-11.5 -18t-41.5 -17.5l12 -23l-12 -31q-25 9 -27 9q-16 0 -16 -39l12 -6q3 -9 3 -13t-3 -10l-15 -25l-38 -63l-31 -76l-17 -29q-8 7 -14 7q-4 0 -18 -17q-2 -5 -13 -14l15 -21
l-10 -20q-37 -3 -37 -20q0 -3 2 -9q6 -12 14 -22l-74 -140l-37 -14q8 -18 8 -28q0 -9 -6 -17l-55 -92l-18 -57l-19 -31l-12 -27l-20 4l-9 -10l-6 -24l-6 -44l-16 -47l-2 -22q-17 -8 -23 -16t-10 -23q-53 -18 -98 -18q-26 0 -39.5 5t-28.5 23l20 27l21 35l57 73h27l8 17
l12 45l66 110l18 47q9 22 17 27l22 14l-4 33l86 127l12 27l11 26q17 3 22.5 7t5.5 16q0 3 -2 25l41 81q8 26 25 43q33 28 33 41q0 8 -11 17l25 37l20 55l29 45q17 35 21 39.5t24 13.5q2 1 8 3.5t11 4.5l-15 25q-2 2 -2 9q0 6 4 24q39 3 39 18l-10 37l23 43l6 21q16 -4 20 -4
q12 0 15.5 10.5t5.5 54.5l12 41l39 72l10 24l12 -4l17 31l-6 45l10 27l14 49l33 69l10 54l4 20l19 4q-4 8 -4 10q-2 4 -2 10t8 11l18 -10v18q-2 7 -22 25q7 33 30.5 45.5t81.5 15.5l43 6l29 -12zM1458 -307q0 -7 -3 -13l-22 -35l-10 -19l-36 -10l-37 -27q-12 -8 -22 -8
q-22 0 -41 9q-32 11 -46 11h-1l-47 -2l-81 8l-95 -3h-17l-14 17l-7 -8l-17 5l-1 -12l-66 -2l-3 19l-7 6l-16 -1l-5 -21l-32 -3l-26 -8q-22 -7 -48 -7q-58 0 -58 12v8l13 7l18 16q8 8 23 8h6q12 30 21.5 38.5t30.5 8.5q7 15 25 22q-9 10 -9 19q0 4 3 7l41 35l28 34l18 20
l18 32l55 58l10 23l19 29l23 64l94 143q15 21 18 48l10 71l1 13q-11 15 -15 24t-9 27q-17 12 -24.5 19t-16.5 20l4 14q-10 17 -29 18l-1 -18l-19 7q-67 27 -87.5 33.5t-46.5 6.5q-37 0 -59 -15l-42 -32l-18 -8l-35 19q3 11 5 15.5t16 23.5l8 15h9q6 0 8 1l7 9l48 23l17 16
q21 21 89 21q24 0 65 -8q13 -22 21 -22q7 0 17 15q10 -2 13.5 -6t5.5 -14q8 -6 15 -6q5 0 18 9l18 -7q35 -14 39 -20l10 -15l38 -22q17 -9 39 -44l7 -17v-37l5 -22l1 -5q0 -23 -23 -32l-1 -12l-8 -5q9 -12 9 -18q0 -11 -7 -21l-99 -145l-41 -73l-10 -7l-21 -37l-98 -132
l-32 -46l-19 -32q-4 -13 -8 -17.5t-18 -10.5q-3 -6 -3 -13q0 -3 4 -11l9 -2l58 5l61 -15h15q16 0 45 5l12 -8h29l67 1h7l14 -5l16 -2l42 4l16 -7l25 3l56 -3q21 0 49 29l25 -5v-18zM248 1361l-2 -23l-13 -46l8 -52l2 -21q-22 -4 -22 -24q0 -11 5.5 -17t19.5 -12l-5 -31
l-11 -8v-37l3 -21q0 -2 -0.5 -3.5t-1.5 -2.5l-6 -45l16 -44l-7 -51l9 -51l-4 -11l-2 -15l-8 -12l10 -33v-23l2 -39l-4 -15l-1 -15l-15 -17l-2 -10v-10l12 -15q9 -9 10.5 -14t1.5 -19l-2 -37l-2 -26l4 -32q-19 -18 -52 -32.5t-59 -14.5q-18 0 -18 40v1l2 39l16 10
q-10 25 -10 46q13 9 13 22l-10 13l1 23l2 33l13 20q7 9 7 19q0 6 -1 8l-12 30l2 18v6q0 7 4 12l17 15q3 2 3 6l-3 13l-15 39l1 69l-12 22q-7 14 -7 24l7 120l8 67l-2 31q-2 37 -9 57l-81 -1q-8 6 -8 13q0 19 8 22l77 39l57 52q18 19 44 19q8 0 22 -4l-1 -20v-6z" />
    <glyph glyph-name="onehalf" unicode="&#xbd;" horiz-adv-x="1614" 
d="M1083 1546l-12 -12l-18 -41l-41 -70l-29 -94l-143 -270l-15 -55l-96 -158q-8 -45 -12 -58.5t-11.5 -18t-41.5 -17.5l12 -23l-12 -31q-25 9 -27 9q-16 0 -16 -39l12 -6q3 -9 3 -13t-3 -10l-15 -25l-38 -63l-31 -76l-17 -29q-8 7 -14 7q-4 0 -18 -17q-2 -5 -13 -14l15 -21
l-10 -20q-37 -3 -37 -20q0 -3 2 -9q6 -12 14 -22l-74 -140l-37 -14q8 -18 8 -28q0 -9 -6 -17l-55 -92l-18 -57l-19 -31l-12 -27l-20 4l-9 -10l-6 -24l-6 -44l-16 -47l-2 -22q-17 -8 -23 -16t-10 -23q-53 -18 -98 -18q-26 0 -39.5 5t-28.5 23l20 27l21 35l57 73h27l8 17
l12 45l66 110l18 47q9 22 17 27l22 14l-4 33l86 127l12 27l11 26q17 3 22.5 7t5.5 16q0 3 -2 25l41 81q8 26 25 43q33 28 33 41q0 8 -11 17l25 37l20 55l29 45q17 35 21 39.5t24 13.5q2 1 8 3.5t11 4.5l-15 25q-2 2 -2 9q0 6 4 24q39 3 39 18l-10 37l23 43l6 21q16 -4 20 -4
q12 0 15.5 10.5t5.5 54.5l12 41l39 72l10 24l12 -4l17 31l-6 45l10 27l14 49l33 69l10 54l4 20l19 4q-4 8 -4 10q-2 4 -2 10t8 11l18 -10v18q-2 7 -22 25q7 33 30.5 45.5t81.5 15.5l43 6l29 -12zM1564 129l-15 -9q-20 -14 -32 -29l-8 3l-14 -14v-18l-12 -4q-2 -11 -15 -19
l-10 2l-37 -2l-56 15l-77 -13l-50 3l-20 -5q-10 -28 -10 -45v-86l-3 -35l7 -23l-20 -3l7 -22l-10 -1q4 -12 8 -16t15 -6l-1 -22q10 -10 10 -37l2 -24l-2 -29q0 -11 7 -23l-4 -13q1 -1 1.5 -2.5t0.5 -4.5l-14 -19l-28 -14l-27 -20l-17 -3l-21 -22l-14 -8q-25 0 -25 26
q0 16 21 31l-4 5l11 25l-2 26l19 35l-3 84l3 93l-3 19l3 10l-2 19l19 47l-7 22l-22 -6q5 11 5 16q0 2 -6 19l-14 1l-90 -6l-62 6l-17 -6l-31 5l-15 -7q-3 -2 -7 -2l-23 3l-38 4l-22 19h-3q-8 0 -11 -5l-14 -15q-3 -6 -14 -6l-37 2l-107 -3h-7q10 41 18 44l17 10l13 12l32 18
l31 28l21 11l25 18l43 21l33 25l38 21l23 23l33 16l34 32l25 15l9 20l25 17l17 34l29 40l8 15q27 8 32 19l10 19l13 12l35 59q10 10 26 10q10 0 25 -12l-4 -14q15 -22 15 -55v-15l-5 -48l2 -10l-5 -5l9 -12l-8 -22l-1 -32l-6 -23l1 -14l6 -4l4 -26l1 -41q0 -20 -5 -32
l-14 -45q-3 -6 -3 -11q0 -12 8.5 -21t19.5 -9q8 0 14 2l8 -15q10 1 14 15l11 3l61 -3l50 7l26 -3l28 6l39 15l9 5l6 2l11 -4l13 4l15 11l11 2h5q13 0 13 -20v-8zM248 1361l-2 -23l-13 -46l8 -52l2 -21q-22 -4 -22 -24q0 -11 5.5 -17t19.5 -12l-5 -31l-11 -8v-37l3 -21
q0 -2 -0.5 -3.5t-1.5 -2.5l-6 -45l16 -44l-7 -51l9 -51l-4 -11l-2 -15l-8 -12l10 -33v-23l2 -39l-4 -15l-1 -15l-15 -17l-2 -10v-10l12 -15q9 -9 10.5 -14t1.5 -19l-2 -37l-2 -26l4 -32q-19 -18 -52 -32.5t-59 -14.5q-18 0 -18 40v1l2 39l16 10q-10 25 -10 46q13 9 13 22
l-10 13l1 23l2 33l13 20q7 9 7 19q0 6 -1 8l-12 30l2 18v6q0 7 4 12l17 15q3 2 3 6l-3 13l-15 39l1 69l-12 22q-7 14 -7 24l7 120l8 67l-2 31q-2 37 -9 57l-81 -1q-8 6 -8 13q0 19 8 22l77 39l57 52q18 19 44 19q8 0 22 -4l-1 -20v-6zM1152 247q0 8 -1 9l-22 42l-4 65
l-16 12l-25 -37l-20 -4l-78 -69l-147 -99q-23 -15 -27 -47l17 -10l30 4l96 -19l36 9h2q6 0 58 -12q14 -3 20 -3q18 0 35 20l28 -3l6 15v43l1 13q-7 19 -7 26q0 9 6 24q12 12 12 21z" />
    <glyph glyph-name="threequarters" unicode="&#xbe;" horiz-adv-x="1923" 
d="M1383 1546l-12 -12l-18 -41l-41 -70l-29 -94l-143 -270l-15 -55l-96 -158q-8 -45 -12 -58.5t-11.5 -18t-41.5 -17.5l12 -23l-12 -31q-25 9 -27 9q-16 0 -16 -39l12 -6q3 -9 3 -13t-3 -10l-15 -25l-38 -63l-31 -76l-17 -29q-8 7 -14 7q-4 0 -18 -17q-2 -5 -13 -14l15 -21
l-10 -20q-37 -3 -37 -20q0 -3 2 -9q6 -12 14 -22l-74 -140l-37 -14q8 -18 8 -28q0 -9 -6 -17l-55 -92l-18 -57l-19 -31l-12 -27l-20 4l-9 -10l-6 -24l-6 -44l-16 -47l-2 -22q-17 -8 -23 -16t-10 -23q-53 -18 -98 -18q-26 0 -39.5 5t-28.5 23l20 27l21 35l57 73h27l8 17
l12 45l66 110l18 47q9 22 17 27l22 14l-4 33l86 127l12 27l11 26q17 3 22.5 7t5.5 16q0 3 -2 25l41 81q8 26 25 43q33 28 33 41q0 8 -11 17l25 37l20 55l29 45q17 35 21 39.5t24 13.5q2 1 8 3.5t11 4.5l-15 25q-2 2 -2 9q0 6 4 24q39 3 39 18l-10 37l23 43l6 21q16 -4 20 -4
q12 0 15.5 10.5t5.5 54.5l12 41l39 72l10 24l12 -4l17 31l-6 45l10 27l14 49l33 69l10 54l4 20l19 4q-4 8 -4 10q-2 4 -2 10t8 11l18 -10v18q-2 7 -22 25q7 33 30.5 45.5t81.5 15.5l43 6l29 -12zM1864 129l-15 -9q-20 -14 -32 -29l-8 3l-14 -14v-18l-12 -4q-2 -11 -15 -19
l-10 2l-37 -2l-56 15l-77 -13l-50 3l-20 -5q-10 -28 -10 -45v-86l-3 -35l7 -23l-20 -3l7 -22l-10 -1q4 -12 8 -16t15 -6l-1 -22q10 -10 10 -37l2 -24l-2 -29q0 -11 7 -23l-4 -13q1 -1 1.5 -2.5t0.5 -4.5l-14 -19l-28 -14l-27 -20l-17 -3l-21 -22l-14 -8q-25 0 -25 26
q0 16 21 31l-4 5l11 25l-2 26l19 35l-3 84l3 93l-3 19l3 10l-2 19l19 47l-7 22l-22 -6q5 11 5 16q0 2 -6 19l-14 1l-90 -6l-62 6l-17 -6l-31 5l-15 -7q-3 -2 -7 -2l-23 3l-38 4l-22 19h-3q-8 0 -11 -5l-14 -15q-3 -6 -14 -6l-37 2l-107 -3h-7q10 41 18 44l17 10l13 12l32 18
l31 28l21 11l25 18l43 21l33 25l38 21l23 23l33 16l34 32l25 15l9 20l25 17l17 34l29 40l8 15q27 8 32 19l10 19l13 12l35 59q10 10 26 10q10 0 25 -12l-4 -14q15 -22 15 -55v-15l-5 -48l2 -10l-5 -5l9 -12l-8 -22l-1 -32l-6 -23l1 -14l6 -4l4 -26l1 -41q0 -20 -5 -32
l-14 -45q-3 -6 -3 -11q0 -12 8.5 -21t19.5 -9q8 0 14 2l8 -15q10 1 14 15l11 3l61 -3l50 7l26 -3l28 6l39 15l9 5l6 2l11 -4l13 4l15 11l11 2h5q13 0 13 -20v-8zM634 876l-3 -29l-7 -24v-23q0 -15 -13 -43l-12 -16l-13 -5l-67 -133l-26 -23l-17 -32l-34 -30q-26 -24 -35 -53
l-20 -16l-29 -16l-14 -15l-24 -14l-52 -44q-15 -11 -28 -14l-29 -6l-19 -26q-6 -9 -45 -23l-25 -13l-11 5q-22 10 -40 10h-10q-13 10 -13 22q0 15 12 17l48 15l20 12h18l43 22l32 5l47 30l51 33l17 22l10 -3q5 0 18 10l-5 13l70 67l-2 12l-5 1l5 13l52 77q27 45 27 89v15
q11 14 14 35l-8 10l-3 5l7 28l-11 29l-9 31q0 3 -9 16q10 16 10 23t-11 13l7 7l-9 22l-10 -3l5 10l-13 7q-13 -5 -18 -21q-35 33 -58 42l-9 31h-8l-9 -13l-10 1l-7 -12q-26 11 -46 11q-13 0 -28 -6q-5 7 -12 9l-24 -2h-25l-71 -50l-20 -4l-41 -13h-15v12l9 13l13 26l32 13
l22 34l46 27q10 9 15 20l7 24l15 16l5 16l7 15l-7 7l5 14l38 47l11 33l15 31q4 10 4 22q0 19 -36 19q-13 0 -36 -4l-87 11l-29 4l-30 3h-1q-8 0 -21 -7q-31 -19 -43 -19q-19 0 -19 16t16 23l54 29l49 32l41 -10l86 3l22 -9l51 3l49 -7l18 6l15 -5l12 9q29 20 38 20
q5 0 7.5 -3t2.5 -7q0 -31 -15.5 -71.5t-37.5 -64.5l-18 -22l-83 -125l-16 -20h17l14 -5l46 1l19 -6l48 -1l36 -21l37 -5l20 -13l42 -18l22 -13l10 -17q10 -19 17.5 -30t10.5 -15.5t3 -7.5q0 -14 -24 -32q14 -8 17 -17q8 -22 8 -69zM1452 247q0 8 -1 9l-22 42l-4 65l-16 12
l-25 -37l-20 -4l-78 -69l-147 -99q-23 -15 -27 -47l17 -10l30 4l96 -19l36 9h2q6 0 58 -12q14 -3 20 -3q18 0 35 20l28 -3l6 15v43l1 13q-7 19 -7 26q0 9 6 24q12 12 12 21z" />
    <glyph glyph-name="questiondown" unicode="&#xbf;" horiz-adv-x="987" 
d="M604 1178l-4 -17l-22 -14l-58 -35l-26 -25l-23 -12l-27 27l-88 65q-5 5 -8 23l-6 22l20 21l15 24l55 37l14 19q23 -6 27 -10l29 -35l39 -37l26 -37l1.5 -1.5l0.5 -0.5zM930 252q0 -40 -17 -59l-30 -35l-15 -21l-34 -22l-70 -60l-66 -30l-43 -23l-39 -4l-45 -21h-45
l-30 -8q-24 11 -27 11l-29 -9l-129 4q-32 0 -47 15l-35 26q-8 10 -57 19l-22 4q-9 18 -44 67q-28 42 -28 68q0 23 24 62h19l20 18l-2 22l21 19l37 43l65 53l19 19l16 -7q12 -6 16 -6q11 0 31 21q-16 5 -16 18q0 6 2 8l94 111q8 8 8 20q0 34 -37 70l19 8q-2 21 -6.5 29.5
t-18.5 19.5q21 37 45 37h4l58 -10q43 -8 45 -22l8 -31l12 -17l2 -16v-8l-18 -10v-17l-2 -14l-33 -31l-61 -92l-64 -59q-26 -24 -41.5 -37.5t-32.5 -22.5q-44 -23 -47 -35l-10 -43l-23 -51l9 -24l6 -11q14 -25 20 -36.5t13 -18.5q6 -3 6 -6l12 -16l20 4l99 -37l22 -4l-6 -27
l19 -8q9 0 26 14l4 15l17 -2l96 6l49 -4q28 2 109 49q26 16 26 26q0 15 -12 33l-8 19l16 20q37 48 41 49l19 8l28 19q4 4 12 4l17 -2q25 -3 32 -9.5t7 -31.5z" />
    <glyph glyph-name="Agrave" unicode="&#xc0;" horiz-adv-x="1503" 
d="M1503 53q0 -4 -4 -12l-39 -33l-41 -59h-33l-20 -4l-2 18l-12 25l2 20l-2 19q-15 28 -17 49h-16l-8 22l-35 68l-6 35l-51 88q-9 18 -9 41q1 4 1.5 7t0.5 9q-18 9 -28 25q-36 60 -43 98l-35 16q-9 -45 -35 -45h-4l-104 19l-37 -2l-27 4l-143 -19l-84 4l-45 -12l-35 12
l-27 7q-13 -17 -22 -22t-23 -5h-6l-88 6l-33 -8l-43 -2q-22 -5 -49 -68l-18 -39l-11 -4q-29 -77 -75 -145l-2 -21l-15 -22l-55 -123q-6 -18 -45 -27l2 -16q-12 -2 -33 -2q-29 0 -61 22l39 68l28 35l23 37l14 22l14 19v8q41 6 41 37v24l31 37l43 94l25 35l28 62l33 63l39 66
l41 39q4 4 4 10q0 8 -10 18q18 13 26 21.5t15 23.5l-12 19l12 20l16 47q3 6 25 25l-2 10l45 115l35 94q10 26 45 64l-8 22l6 27q6 29 11.5 40t19 16t34.5 9l6 15l-10 30q-4 12 -4 17q0 14 12 20l68 45l14 31q21 26 56 29l12 -41h12l-4 -11l14 -30l29 -37l37 -68l20 -55
l25 -45l-25 -8q0 -11 9 -19q36 -21 36 -39l-2 -18l23 -25l27 -45l14 -24l2 -8l-8 -19l4 -20l14 -19l29 -24l35 -70l18 -31v-24q39 -34 39 -52q0 -2 -4 -14l20 -20l45 -76q6 -9 9.5 -15.5t12 -21t11.5 -20.5q17 -26 19.5 -34t3.5 -28q35 -17 35 -39q0 -2 -3 -4l-4 -43
q0 2 4 -14l41 -21l13 -18l6 -19q4 -15 33 -30v-23l34 -35l33 -55l17 -20q12 -15 19 -32t7 -24zM1092 567l-9 8l4 7l-4 10h-20q-12 14 -19 76l-2 20l-38 10l-48 95h-14l-61 120l8 23l-6 25l-47 24l-72 143q-4 11 -47 46l-12 -9l-13 -41l-8 -2q-12 -42 -18 -52t-25 -28
q-26 -23 -29 -47l-4 -24l-45 -99q-7 -18 -13 -31t-8 -17t-7 -11t-11 -12l-8 -21q-8 -20 -13 -24.5t-22 -5.5l-2 -23q-4 -51 -16.5 -75t-42.5 -44l18 -28q-12 -1 -18 -7t-10 -20l-7 -25l17 -2l33 -10l26 4l23 -8l4 8l18 2l129 -8l82 6l33 -14q7 7 10.5 8.5t21.5 3t56 6.5
l27 4l-4 -10l8 -4q9 0 22 16l27 2q53 5 80 7.5t33 4t18.5 8t24.5 15.5zM758 1543l-23 -35q-10 -2 -20 -2q-14 0 -37 10l-9 -4q-6 20 -6 21l-28 45q-10 18 -33 33q-11 30 -28 45.5t-48 25.5l-14 25l-19 29l-24 26l-23 39q26 14 35 14l51 -8l66 -2q35 -2 50.5 -10t25.5 -27
q-15 -9 -23 -20l8 -21l10 -38l46 -70l10 -33l-8 -8q5 -14 10.5 -17.5t17.5 -3.5z" />
    <glyph glyph-name="Aacute" unicode="&#xc1;" horiz-adv-x="1503" 
d="M1503 53q0 -4 -4 -12l-39 -33l-41 -59h-33l-20 -4l-2 18l-12 25l2 20l-2 19q-15 28 -17 49h-16l-8 22l-35 68l-6 35l-51 88q-9 18 -9 41q1 4 1.5 7t0.5 9q-18 9 -28 25q-36 60 -43 98l-35 16q-9 -45 -35 -45h-4l-104 19l-37 -2l-27 4l-143 -19l-84 4l-45 -12l-35 12
l-27 7q-13 -17 -22 -22t-23 -5h-6l-88 6l-33 -8l-43 -2q-22 -5 -49 -68l-18 -39l-11 -4q-29 -77 -75 -145l-2 -21l-15 -22l-55 -123q-6 -18 -45 -27l2 -16q-12 -2 -33 -2q-29 0 -61 22l39 68l28 35l23 37l14 22l14 19v8q41 6 41 37v24l31 37l43 94l25 35l28 62l33 63l39 66
l41 39q4 4 4 10q0 8 -10 18q18 13 26 21.5t15 23.5l-12 19l12 20l16 47q3 6 25 25l-2 10l45 115l35 94q10 26 45 64l-8 22l6 27q6 29 11.5 40t19 16t34.5 9l6 15l-10 30q-4 12 -4 17q0 14 12 20l68 45l14 31q21 26 56 29l12 -41h12l-4 -11l14 -30l29 -37l37 -68l20 -55
l25 -45l-25 -8q0 -11 9 -19q36 -21 36 -39l-2 -18l23 -25l27 -45l14 -24l2 -8l-8 -19l4 -20l14 -19l29 -24l35 -70l18 -31v-24q39 -34 39 -52q0 -2 -4 -14l20 -20l45 -76q6 -9 9.5 -15.5t12 -21t11.5 -20.5q17 -26 19.5 -34t3.5 -28q35 -17 35 -39q0 -2 -3 -4l-4 -43
q0 2 4 -14l41 -21l13 -18l6 -19q4 -15 33 -30v-23l34 -35l33 -55l17 -20q12 -15 19 -32t7 -24zM1092 567l-9 8l4 7l-4 10h-20q-12 14 -19 76l-2 20l-38 10l-48 95h-14l-61 120l8 23l-6 25l-47 24l-72 143q-4 11 -47 46l-12 -9l-13 -41l-8 -2q-12 -42 -18 -52t-25 -28
q-26 -23 -29 -47l-4 -24l-45 -99q-7 -18 -13 -31t-8 -17t-7 -11t-11 -12l-8 -21q-8 -20 -13 -24.5t-22 -5.5l-2 -23q-4 -51 -16.5 -75t-42.5 -44l18 -28q-12 -1 -18 -7t-10 -20l-7 -25l17 -2l33 -10l26 4l23 -8l4 8l18 2l129 -8l82 6l33 -14q7 7 10.5 8.5t21.5 3t56 6.5
l27 4l-4 -10l8 -4q9 0 22 16l27 2q53 5 80 7.5t33 4t18.5 8t24.5 15.5zM1002 1798l-10 -14l-56 -94l-36 -41l-25 -25l4 -12l-12 -25l-41 -59l-39 -35l-12 -18h-6v4h-54l-4 20q22 72 35 93l39 65q27 44 27 53l-5 35l-16 10l21 39l47 2l108 17l1.5 1.5t2.5 0.5q15 0 31 -17z
" />
    <glyph glyph-name="Acircumflex" unicode="&#xc2;" horiz-adv-x="1503" 
d="M1503 53q0 -4 -4 -12l-39 -33l-41 -59h-33l-20 -4l-2 18l-12 25l2 20l-2 19q-15 28 -17 49h-16l-8 22l-35 68l-6 35l-51 88q-9 18 -9 41q1 4 1.5 7t0.5 9q-18 9 -28 25q-36 60 -43 98l-35 16q-9 -45 -35 -45h-4l-104 19l-37 -2l-27 4l-143 -19l-84 4l-45 -12l-35 12
l-27 7q-13 -17 -22 -22t-23 -5h-6l-88 6l-33 -8l-43 -2q-22 -5 -49 -68l-18 -39l-11 -4q-29 -77 -75 -145l-2 -21l-15 -22l-55 -123q-6 -18 -45 -27l2 -16q-12 -2 -33 -2q-29 0 -61 22l39 68l28 35l23 37l14 22l14 19v8q41 6 41 37v24l31 37l43 94l25 35l28 62l33 63l39 66
l41 39q4 4 4 10q0 8 -10 18q18 13 26 21.5t15 23.5l-12 19l12 20l16 47q3 6 25 25l-2 10l45 115l35 94q10 26 45 64l-8 22l6 27q6 29 11.5 40t19 16t34.5 9l6 15l-10 30q-4 12 -4 17q0 14 12 20l68 45l14 31q21 26 56 29l12 -41h12l-4 -11l14 -30l29 -37l37 -68l20 -55
l25 -45l-25 -8q0 -11 9 -19q36 -21 36 -39l-2 -18l23 -25l27 -45l14 -24l2 -8l-8 -19l4 -20l14 -19l29 -24l35 -70l18 -31v-24q39 -34 39 -52q0 -2 -4 -14l20 -20l45 -76q6 -9 9.5 -15.5t12 -21t11.5 -20.5q17 -26 19.5 -34t3.5 -28q35 -17 35 -39q0 -2 -3 -4l-4 -43
q0 2 4 -14l41 -21l13 -18l6 -19q4 -15 33 -30v-23l34 -35l33 -55l17 -20q12 -15 19 -32t7 -24zM1092 567l-9 8l4 7l-4 10h-20q-12 14 -19 76l-2 20l-38 10l-48 95h-14l-61 120l8 23l-6 25l-47 24l-72 143q-4 11 -47 46l-12 -9l-13 -41l-8 -2q-12 -42 -18 -52t-25 -28
q-26 -23 -29 -47l-4 -24l-45 -99q-7 -18 -13 -31t-8 -17t-7 -11t-11 -12l-8 -21q-8 -20 -13 -24.5t-22 -5.5l-2 -23q-4 -51 -16.5 -75t-42.5 -44l18 -28q-12 -1 -18 -7t-10 -20l-7 -25l17 -2l33 -10l26 4l23 -8l4 8l18 2l129 -8l82 6l33 -14q7 7 10.5 8.5t21.5 3t56 6.5
l27 4l-4 -10l8 -4q9 0 22 16l27 2q53 5 80 7.5t33 4t18.5 8t24.5 15.5zM1168 1509q-68 -88 -131 -88l-39 10l-2 22q-35 15 -62 15l-28 43q-16 2 -23.5 4.5t-16 9.5t-28.5 27l-16 16q6 15 6 23q0 9 -8 22h-23l-16 25q-20 31 -31 41t-29 10l-45 -4v-15l-18 -16
q-50 -47 -59 -70l-15 -28l-22 -29l-17 -24l-30 -19l-31 -31q-15 -12 -42.5 -22t-45.5 -10q-11 0 -27 16q25 37 37 43l70 39l26 39l66 61l12 27l62 63l41 45l106 68l27 27l14 10l25 29q32 0 32 -25q0 -8 -6 -16l-26 -43q0 -20 22 -45l-8 -9l2 -18l27 -14l24 -11l62 -61
l14 -19q-6 -16 -6 -38l65 -25l11 -25q5 -18 7 -21.5t9 -8.5l72 12z" />
    <glyph glyph-name="Atilde" unicode="&#xc3;" horiz-adv-x="1503" 
d="M1167 1698l-39 -31l-45 -49q-19 -19 -49 -26l-10 -21l-21 -6l-55 -35l-35 -12l-30 -27l-35 11q-34 22 -86 38q-6 18 -14.5 25t-32.5 12l-11 -14q-16 26 -53 39l-29 10l-34 -12l-45 -15l-19 -18l-37 12h-8l-2 -12l-12 8l-13 -8l-2 -14l9 -4l-2 -19q-50 -22 -72 -22
q-9 0 -19 6t-10 14q0 19 31 37q93 56 133 100l66 29l102 49q2 2 10 2q24 0 51 -12l31 -10q14 -19 17 -35l28 -4l58 -43l26 -12l12 14l9 -2l22 -15q26 0 66 23l20 12l19 39q7 11 24 15l35 6l27 16zM1503 53q0 -4 -4 -12l-39 -33l-41 -58h-33l-20 -4l-2 18l-12 25l2 19l-2 19
q-15 28 -17 49h-16l-8 22l-35 68l-6 35l-51 88q-9 18 -9 41q1 4 1.5 7t0.5 9q-18 9 -28 25q-36 60 -43 98l-35 16q-9 -45 -35 -45h-4l-104 19l-37 -2l-27 4l-143 -19l-84 4l-45 -12l-35 12l-27 7q-13 -17 -22 -22t-23 -5h-6l-88 6l-33 -8l-43 -2q-22 -5 -49 -68l-18 -39
l-11 -4q-29 -77 -75 -145l-2 -21l-15 -22l-55 -123q-6 -17 -45 -26l2 -16q-12 -2 -33 -2q-29 0 -60 22l38 67l28 35l23 37l14 22l14 19v8q41 6 41 37v24l31 37l43 94l25 35l28 62l33 63l39 66l41 39q4 4 4 10q0 8 -10 18q18 13 26 21.5t15 23.5l-12 19l12 20l16 47
q3 6 25 25l-2 10l45 115l35 94q10 26 45 64l-8 22l6 27q6 29 11.5 40t19 16t34.5 9l6 15l-10 30q-4 12 -4 17q0 14 12 20l68 45l14 31q21 26 56 29l12 -41h12l-4 -11l14 -30l29 -37l37 -68l20 -55l25 -45l-25 -8q0 -11 9 -19q36 -21 36 -39l-2 -18l23 -25l27 -45l14 -24
l2 -8l-8 -19l4 -20l14 -19l29 -24l35 -70l18 -31v-24q39 -34 39 -52q0 -2 -4 -14l20 -20l45 -76q6 -9 9.5 -15.5t12 -21t11.5 -20.5q17 -26 19.5 -34t3.5 -28q35 -17 35 -39q0 -2 -3 -4l-4 -43q0 2 4 -14l41 -21l13 -18l6 -19q4 -15 33 -30v-23l34 -35l33 -55l17 -20
q12 -15 19 -32t7 -24zM1092 567l-9 8l4 7l-4 10h-20q-12 14 -19 76l-2 20l-38 10l-48 95h-14l-61 120l8 23l-6 25l-47 24l-72 143q-4 11 -47 46l-12 -9l-13 -41l-8 -2q-12 -42 -18 -52t-25 -28q-26 -23 -29 -47l-4 -24l-45 -99q-7 -18 -13 -31t-8 -17t-7 -11t-11 -12l-8 -21
q-8 -20 -13 -24.5t-22 -5.5l-2 -23q-4 -51 -16.5 -75t-42.5 -44l18 -28q-12 -1 -18 -7t-10 -20l-7 -25l17 -2l33 -10l26 4l23 -8l4 8l18 2l129 -8l82 6l33 -14q7 7 10.5 8.5t21.5 3t56 6.5l27 4l-4 -10l8 -4q9 0 22 16l27 2q53 5 80 7.5t33 4t18.5 8t24.5 15.5z" />
    <glyph glyph-name="Adieresis" unicode="&#xc4;" horiz-adv-x="1503" 
d="M1503 53q0 -4 -4 -12l-39 -33l-41 -59h-33l-20 -4l-2 18l-12 25l2 20l-2 19q-15 28 -17 49h-16l-8 22l-35 68l-6 35l-51 88q-9 18 -9 41q1 4 1.5 7t0.5 9q-18 9 -28 25q-36 60 -43 98l-35 16q-9 -45 -35 -45h-4l-104 19l-37 -2l-27 4l-143 -19l-84 4l-45 -12l-35 12
l-27 7q-13 -17 -22 -22t-23 -5h-6l-88 6l-33 -8l-43 -2q-22 -5 -49 -68l-18 -39l-11 -4q-29 -77 -75 -145l-2 -21l-15 -22l-55 -123q-6 -18 -45 -27l2 -16q-12 -2 -33 -2q-29 0 -61 22l39 68l28 35l23 37l14 22l14 19v8q41 6 41 37v24l31 37l43 94l25 35l28 62l33 63l39 66
l41 39q4 4 4 10q0 8 -10 18q18 13 26 21.5t15 23.5l-12 19l12 20l16 47q3 6 25 25l-2 10l45 115l35 94q10 26 45 64l-8 22l6 27q6 29 11.5 40t19 16t34.5 9l6 15l-10 30q-4 12 -4 17q0 14 12 20l68 45l14 31q21 26 56 29l12 -41h12l-4 -11l14 -30l29 -37l37 -68l20 -55
l25 -45l-25 -8q0 -11 9 -19q36 -21 36 -39l-2 -18l23 -25l27 -45l14 -24l2 -8l-8 -19l4 -20l14 -19l29 -24l35 -70l18 -31v-24q39 -34 39 -52q0 -2 -4 -14l20 -20l45 -76q6 -9 9.5 -15.5t12 -21t11.5 -20.5q17 -26 19.5 -34t3.5 -28q35 -17 35 -39q0 -2 -3 -4l-4 -43
q0 2 4 -14l41 -21l13 -18l6 -19q4 -15 33 -30v-23l34 -35l33 -55l17 -20q12 -15 19 -32t7 -24zM1092 567l-9 8l4 7l-4 10h-20q-12 14 -19 76l-2 20l-38 10l-48 95h-14l-61 120l8 23l-6 25l-47 24l-72 143q-4 11 -47 46l-12 -9l-13 -41l-8 -2q-12 -42 -18 -52t-25 -28
q-26 -23 -29 -47l-4 -24l-45 -99q-7 -18 -13 -31t-8 -17t-7 -11t-11 -12l-8 -21q-8 -20 -13 -24.5t-22 -5.5l-2 -23q-4 -51 -16.5 -75t-42.5 -44l18 -28q-12 -1 -18 -7t-10 -20l-7 -25l17 -2l33 -10l26 4l23 -8l4 8l18 2l129 -8l82 6l33 -14q7 7 10.5 8.5t21.5 3t56 6.5
l27 4l-4 -10l8 -4q9 0 22 16l27 2q53 5 80 7.5t33 4t18.5 8t24.5 15.5zM1098 1620q0 -24 -29 -47l-57 -45l-16 -18l-29 14l-27 31l-39 30l-22 31q-12 6 -43 15l2 12l121 92l22 -16l70 -41q47 -27 47 -58zM600 1626l-12 -22l-12 -35l-54 -47l-18 -18l-25 12l-98 90l-39 10
l4 25l21 14l43 33l22 26l27 23l14 -12l23 -15l61 -28q18 -9 26.5 -20.5t16.5 -35.5z" />
    <glyph glyph-name="Aring" unicode="&#xc5;" horiz-adv-x="1503" 
d="M1503 53q0 -4 -4 -12l-39 -33l-41 -59h-33l-20 -4l-2 18l-12 25l2 20l-2 19q-15 28 -17 49h-16l-8 22l-35 68l-6 35l-51 88q-9 18 -9 41q1 4 1.5 7t0.5 9q-18 9 -28 25q-36 60 -43 98l-35 16q-9 -45 -35 -45h-4l-104 19l-37 -2l-27 4l-143 -19l-84 4l-45 -12l-35 12
l-27 7q-13 -17 -22 -22t-23 -5h-6l-88 6l-33 -8l-43 -2q-22 -5 -49 -68l-18 -39l-11 -4q-29 -77 -75 -145l-2 -21l-15 -22l-55 -123q-6 -18 -45 -27l2 -16q-12 -2 -33 -2q-29 0 -61 22l39 68l28 35l23 37l14 22l14 19v8q41 6 41 37v24l31 37l43 94l25 35l28 62l33 63l39 66
l41 39q4 4 4 10q0 8 -10 18q18 13 26 21.5t15 23.5l-12 19l12 20l16 47q3 6 25 25l-2 10l45 115l35 94q10 26 45 64l-8 22l6 27q6 29 11.5 40t19 16t34.5 9l6 15l-10 30q-4 12 -4 17q0 14 12 20l68 45l14 31q21 26 56 29l12 -41h12l-4 -11l14 -30l29 -37l37 -68l20 -55
l25 -45l-25 -8q0 -11 9 -19q36 -21 36 -39l-2 -18l23 -25l27 -45l14 -24l2 -8l-8 -19l4 -20l14 -19l29 -24l35 -70l18 -31v-24q39 -34 39 -52q0 -2 -4 -14l20 -20l45 -76q6 -9 9.5 -15.5t12 -21t11.5 -20.5q17 -26 19.5 -34t3.5 -28q35 -17 35 -39q0 -2 -3 -4l-4 -43
q0 2 4 -14l41 -21l13 -18l6 -19q4 -15 33 -30v-23l34 -35l33 -55l17 -20q12 -15 19 -32t7 -24zM1092 567l-9 8l4 7l-4 10h-20q-12 14 -19 76l-2 20l-38 10l-48 95h-14l-61 120l8 23l-6 25l-47 24l-72 143q-4 11 -47 46l-12 -9l-13 -41l-8 -2q-12 -42 -18 -52t-25 -28
q-26 -23 -29 -47l-4 -24l-45 -99q-7 -18 -13 -31t-8 -17t-7 -11t-11 -12l-8 -21q-8 -20 -13 -24.5t-22 -5.5l-2 -23q-4 -51 -16.5 -75t-42.5 -44l18 -28q-12 -1 -18 -7t-10 -20l-7 -25l17 -2l33 -10l26 4l23 -8l4 8l18 2l129 -8l82 6l33 -14q7 7 10.5 8.5t21.5 3t56 6.5
l27 4l-4 -10l8 -4q9 0 22 16l27 2q53 5 80 7.5t33 4t18.5 8t24.5 15.5zM921 1614q0 -36 -30.5 -65t-83.5 -46.5t-115 -17.5l-8 10q-8 -4 -19 -4q-8 0 -12 4l-14 11l-35 24l-12 39l-19 14v21l23 35l-2 10q0 21 32 53q39 36 74 45l49 10l23 7l18 -7h33l39 -16q27 -6 35 -27
q24 -56 24 -100zM827 1614q0 31 -33 64l-18 18q-14 0 -25 12q-41 -12 -58 -25.5t-17 -33.5q0 -31 8 -43l14 -19l25 -28l22 -6l19 -13l59 31z" />
    <glyph glyph-name="AE" unicode="&#xc6;" horiz-adv-x="2318" 
d="M2277 123q-5 -38 -24 -51l-15 -9l-10 -14l-30 -22q-21 -21 -44 -21h-12l-16 -18l-15 -4l-14 -11l-61 13l-43 -6l-37 12l-43 -4l-101 6l-14 -2l-4 8l-92 -10l-21 14l-20 -2l-12 -2l-11 2l-18 2l-109 -10l-133 4l-309 -6h-22l-11 16l33 86l8 64l15 28l-13 35l2 60l-4 34
l8 35l2 12l-8 70l-6 27l-16 4l-70 -2l-55 6l-60 -10l-110 2l-51 -15l-78 9l-43 -4l-70 8h-26l-17 -17l-45 -45l-18 -10l-41 -47l2 -10l-25 -37l-41 -58l-10 -12l-16 -22l-23 6q-24 -33 -24 -58q0 -9 6 -24l-17 -17l-14 -16l-35 -63l-18 -9l-25 2q-29 -24 -67 -34h-52l-28 10
q14 53 24 59l49 31l35 37l58 53l38 47q13 23 20.5 32.5t16 13.5t25.5 7q28 50 37.5 61.5t36.5 33.5l-7 16l91 80q33 30 43 49l24 19l12 30l66 72l41 47l14 6l23 27l16 12l-2 10l43 56l51 86l58 53l92 145l102 129l19 52l-15 30l52 29l90 24l22 9l27 -21l37 -4l59 -12l66 2
l88 -25l45 17l37 -4l71 -11l74 9l29 -5l30 5l50 -13h20l-6 6l22 13l72 10l62 16l20 6l8 -12l-12 -20l-25 -25l-18 -37l-37 -16l-16 -6h-133h-62l-35 8l-26 -8l-21 -2l-20 2l-13 -2l-49 -2l-18 10l-21 6l-45 -8h-157l-21 -2l-4 -23l-2 -47l-6 -20l8 -68l-6 -27
q18 -32 24.5 -35.5t49.5 -11.5l61 -10l137 2l144 -16l51 4l47 -2l37 8l65 -10l74 14l47 -6l133 2l21 -2q23 17 40.5 22t61.5 13l12 -23l-18 -20l-37 -31l-18 -22l-29 -11l-29 -16l-71 16h-94l-58 13l-47 -11l-65 -4l-80 -6l-43 2l-86 -2l-21 -2l-65 10q-12 4 -18.5 6
t-13.5 2q-3 0 -9 -2l-37 -18l-10 -2l-23 2l-78 2q-76 0 -76 -33l15 -55l-6 -35l2 -33q0 -18 -13 -30l-34 -37q0 -7 10.5 -14t19.5 -7h19v-10l-4 -72l10 -39l-23 -34q27 -33 27 -49l-31 -82l29 -50v-77l6 -125l-2 -21l18 -4l62 -16l67 -17l60 13l76 -13l59 9h231l31 2l51 -9
h19q15 -18 28 -18q1 0 21 8l2 23l37 2l26 4l50 -8l10 2v10l92 27zM1102 836l-23 24l15 27l-29 43l10 28q4 16 4 48l-6 22l-2 76q-6 22 -18 22q-7 0 -11 -4l-16 -30l-37 -27q-12 -12 -12 -45l-25 -8l-49 -72l-90 -90l-20 -43l-86 -105q-47 -55 -76 -73q-25 -14 -29 -20
t-4 -27l-10 -13q6 -18 15.5 -25t33.5 -7l96 -2l47 -5l31 -18l55 12l70 2l47 2l23 -6l47 13l26 8l-8 18l10 33l9 45l-15 82l6 80z" />
    <glyph glyph-name="Ccedilla" unicode="&#xc7;" horiz-adv-x="1516" 
d="M1509 150q0 -18 -8 -31l-10 -19l-14 -45q-10 -11 -25 -14l-53 -4l-21 -10l-43 -13l-55 -18l-131 -8l-139 -29l-43 -2l-64 2l-2 -98q36 -17 53 -17l23 4l22 -24l41 -25q11 -6 11 -20l-4 -43l16 -35l-19 -45q-18 -35 -37 -51.5t-51 -24.5l-20 -12l-14 4l-21 10l-8 -24
l-25 -4h-41q-61 0 -61 28q0 9 12 27l31 4l65 4q27 2 47.5 36t20.5 75v22l-20 4l-7 21l-20 2l-18 -4l-31 -11q-7 0 -14 12.5t-7 26.5l2 17l9 39v77l6 29l-39 2q-11 45 -49 45q-18 0 -41 -20l4 -13l-195 56l-6 14l-12 -4q-19 0 -60 31l-55 39l-35 28l-16 23l-82 76l-2 26
q20 0 20 13q0 11 -10 15t-41 9l-22 4v25q-20 9 -28.5 19t-20.5 32l8 8l-8 8h-15l-65 176l10 7l2 10l-14 59l-2 60q0 33 24 71q15 0 25 25q-11 26 -11 35q0 13 9 28l65 134q15 15 37 24l16 35l23 16l20 19l48 16l38 53q24 27 68 43l76 29l47 21l41 24l98 35q61 22 82 24h66
l176 19l57 4l25 -4l35 -14l51 2l43 -21l24 2q24 0 39 -11.5t15 -31.5q0 -21 -21 -37l-35 -20l-14 -14l-18 -5l-13 2l-80 37l-20 2v13l-14 14l-11 2l-55 -8l-74 14l-88 -6l-49 4h-14q-32 0 -60 -10l-65 -27l-31 -2l-45 -24l-37 -13l-69 -39l-21 5l-29 -23l2 -31
q-64 -32 -79 -49l-82 -88l-17 -12l8 -8l-8 -21q-9 -32 -14.5 -40t-24.5 -17l15 -15v-20l-13 -39l-2 -125l-6 -24l10 -25l25 -49l-6 -15l-21 -4l9 -20l41 -47l20 -58l14 -18l6 -22l41 -62l11 -20l18 -17l29 -47l18 -12l23 -29l20 -2q21 -18 31 -41l20 -6l78 -35l31 -8l29 -27
l88 -26l141 -31l57 -6h17l78 6l116 -2l52 25l88 20l43 25l77 28l62 35q22 0 22 -24z" />
    <glyph glyph-name="Egrave" unicode="&#xc8;" horiz-adv-x="1479" 
d="M1438 113l-13 -43l-22 2q-12 0 -17 -6l-20 -43l-27 -19l-8 -10l-37 4l-43 -21h-2l-49 15l-6 2l-113 -4l-32 4l-11 16q-61 -12 -69 -12l-37 2l-25 -4l-8 20h-12l-10 -2l-35 -18l-197 -2l-29 -14q-33 22 -51 22l-10 -2l-51 -14l-58 12l-176 -6q-9 0 -75 24l10 23l24 57
l4 54l11 49v75l6 29l-4 232l4 59l-2 22l-6 23l41 2q-11 24 -19 34t-28 25l-5 17l5 74l-9 127l9 49l4 20l-21 6l-8 21l-4 65l-12 21l-2 10l2 25l8 12l55 -14l-16 14q-15 11 -15 20q0 5 4 17l-16 6l-20 -6q-3 49 -6.5 65t-12.5 19l-39 16l10 21q7 8 33 18l19 6q49 23 75 23h2
t3 -2l147 -25l68 -6l38 -12q37 14 50 14q6 0 8 -2l151 -16l133 8l52 -15l30 7v12q69 7 101 18q44 17 53 17l20 -4q-5 -23 -12.5 -32.5t-32.5 -21.5q-2 -18 -7 -25t-29 -20q-52 -24 -86 -24h-11l-53 4l-45 -6l-92 10l-21 2q-28 18 -55 18q-21 -24 -78 -24l-30 2l-5 18l-20 -6
l-29 -12l-137 12l-22 -33l8 -8v-8l4 -53l-8 -78l4 -29l2 -22l20 -6l137 -13q14 0 41 -20l31 6q28 10 41 10h2l107 -6l63 -2h57q18 0 30.5 3t27.5 11l76 -14l18 4l43 10l78 2l82 11q14 -4 28 -15l21 13q20 16 37 16l22 -2l23 2v-31l-27 -18l-61 -53q-11 -9 -21 -9h-4l-67 9
l-86 -3l-47 11l-168 -11l-31 3q-11 20 -25 20q-8 0 -12 -2l-45 -18l-131 14l-64 -23l-45 13l-37 -23l-110 8l-8 -14l4 -53l-17 -54l9 -16l14 -18l-14 -43q15 -28 18 -41l-4 -33l8 -92v-2q0 -13 -22 -41q26 -33 26 -54q0 -6 -4 -14l-27 -57l29 -51l12 -191l31 -6l135 -47
l45 6q16 0 45 -16q20 18 29 18h4l92 -18l56 6l49 -10l119 8l34 -6l58 -2l20 -7l-6 15l23 4l94 2l20 8l117 21q5 1 23 5.5t22 4.5q6 0 25 -6zM725 1543l-23 -35q-10 -2 -20 -2q-14 0 -37 10l-9 -4q-6 20 -6 21l-28 45q-10 18 -33 33q-11 30 -28 45.5t-48 25.5l-14 25l-19 29
l-24 26l-23 39q26 14 35 14l51 -8l66 -2q35 -2 50.5 -10t25.5 -27q-15 -9 -23 -20l8 -21l10 -38l46 -70l10 -33l-8 -8q5 -14 10.5 -17.5t17.5 -3.5z" />
    <glyph glyph-name="Eacute" unicode="&#xc9;" horiz-adv-x="1479" 
d="M1438 113l-13 -43l-22 2q-12 0 -17 -6l-20 -43l-27 -19l-8 -10l-37 4l-43 -21h-2l-49 15l-6 2l-113 -4l-32 4l-11 16q-61 -12 -69 -12l-37 2l-25 -4l-8 20h-12l-10 -2l-35 -18l-197 -2l-29 -14q-33 22 -51 22l-10 -2l-51 -14l-58 12l-176 -6q-9 0 -75 24l10 23l24 57
l4 54l11 49v75l6 29l-4 232l4 59l-2 22l-6 23l41 2q-11 24 -19 34t-28 25l-5 17l5 74l-9 127l9 49l4 20l-21 6l-8 21l-4 65l-12 21l-2 10l2 25l8 12l55 -14l-16 14q-15 11 -15 20q0 5 4 17l-16 6l-20 -6q-3 49 -6.5 65t-12.5 19l-39 16l10 21q7 8 33 18l19 6q49 23 75 23h2
t3 -2l147 -25l68 -6l38 -12q37 14 50 14q6 0 8 -2l151 -16l133 8l52 -15l30 7v12q69 7 101 18q44 17 53 17l20 -4q-5 -23 -12.5 -32.5t-32.5 -21.5q-2 -18 -7 -25t-29 -20q-52 -24 -86 -24h-11l-53 4l-45 -6l-92 10l-21 2q-28 18 -55 18q-21 -24 -78 -24l-30 2l-5 18l-20 -6
l-29 -12l-137 12l-22 -33l8 -8v-8l4 -53l-8 -78l4 -29l2 -22l20 -6l137 -13q14 0 41 -20l31 6q28 10 41 10h2l107 -6l63 -2h57q18 0 30.5 3t27.5 11l76 -14l18 4l43 10l78 2l82 11q14 -4 28 -15l21 13q20 16 37 16l22 -2l23 2v-31l-27 -18l-61 -53q-11 -9 -21 -9h-4l-67 9
l-86 -3l-47 11l-168 -11l-31 3q-11 20 -25 20q-8 0 -12 -2l-45 -18l-131 14l-64 -23l-45 13l-37 -23l-110 8l-8 -14l4 -53l-17 -54l9 -16l14 -18l-14 -43q15 -28 18 -41l-4 -33l8 -92v-2q0 -13 -22 -41q26 -33 26 -54q0 -6 -4 -14l-27 -57l29 -51l12 -191l31 -6l135 -47
l45 6q16 0 45 -16q20 18 29 18h4l92 -18l56 6l49 -10l119 8l34 -6l58 -2l20 -7l-6 15l23 4l94 2l20 8l117 21q5 1 23 5.5t22 4.5q6 0 25 -6zM961 1798l-10 -14l-56 -94l-36 -41l-25 -25l4 -12l-12 -25l-41 -59l-39 -35l-12 -18h-6v4h-54l-4 20q22 72 35 93l39 65
q27 44 27 53l-5 35l-16 10l21 39l47 2l108 17l1.5 1.5t2.5 0.5q15 0 31 -17z" />
    <glyph glyph-name="Ecircumflex" unicode="&#xca;" horiz-adv-x="1479" 
d="M1438 113l-13 -43l-22 2q-12 0 -17 -6l-20 -43l-27 -19l-8 -10l-37 4l-43 -21h-2l-49 15l-6 2l-113 -4l-32 4l-11 16q-61 -12 -69 -12l-37 2l-25 -4l-8 20h-12l-10 -2l-35 -18l-197 -2l-29 -14q-33 22 -51 22l-10 -2l-51 -14l-58 12l-176 -6q-9 0 -75 24l10 23l24 57
l4 54l11 49v75l6 29l-4 232l4 59l-2 22l-6 23l41 2q-11 24 -19 34t-28 25l-5 17l5 74l-9 127l9 49l4 20l-21 6l-8 21l-4 65l-12 21l-2 10l2 25l8 12l55 -14l-16 14q-15 11 -15 20q0 5 4 17l-16 6l-20 -6q-3 49 -6.5 65t-12.5 19l-39 16l10 21q7 8 33 18l19 6q49 23 75 23h2
t3 -2l147 -25l68 -6l38 -12q37 14 50 14q6 0 8 -2l151 -16l133 8l52 -15l30 7v12q69 7 101 18q44 17 53 17l20 -4q-5 -23 -12.5 -32.5t-32.5 -21.5q-2 -18 -7 -25t-29 -20q-52 -24 -86 -24h-11l-53 4l-45 -6l-92 10l-21 2q-28 18 -55 18q-21 -24 -78 -24l-30 2l-5 18l-20 -6
l-29 -12l-137 12l-22 -33l8 -8v-8l4 -53l-8 -78l4 -29l2 -22l20 -6l137 -13q14 0 41 -20l31 6q28 10 41 10h2l107 -6l63 -2h57q18 0 30.5 3t27.5 11l76 -14l18 4l43 10l78 2l82 11q14 -4 28 -15l21 13q20 16 37 16l22 -2l23 2v-31l-27 -18l-61 -53q-11 -9 -21 -9h-4l-67 9
l-86 -3l-47 11l-168 -11l-31 3q-11 20 -25 20q-8 0 -12 -2l-45 -18l-131 14l-64 -23l-45 13l-37 -23l-110 8l-8 -14l4 -53l-17 -54l9 -16l14 -18l-14 -43q15 -28 18 -41l-4 -33l8 -92v-2q0 -13 -22 -41q26 -33 26 -54q0 -6 -4 -14l-27 -57l29 -51l12 -191l31 -6l135 -47
l45 6q16 0 45 -16q20 18 29 18h4l92 -18l56 6l49 -10l119 8l34 -6l58 -2l20 -7l-6 15l23 4l94 2l20 8l117 21q5 1 23 5.5t22 4.5q6 0 25 -6zM1073 1509q-68 -88 -131 -88l-39 10l-2 22q-35 15 -62 15l-28 43q-16 2 -23.5 4.5t-16 9.5t-28.5 27l-16 16q6 15 6 23q0 9 -8 22
h-23l-16 25q-20 31 -31 41t-29 10l-45 -4v-15l-18 -16q-50 -47 -59 -70l-15 -28l-22 -29l-17 -24l-30 -19l-31 -31q-15 -12 -42.5 -22t-45.5 -10q-11 0 -27 16q25 37 37 43l70 39l26 39l66 61l12 27l62 63l41 45l106 68l27 27l14 10l25 29q32 0 32 -25q0 -8 -6 -16l-26 -43
q0 -20 22 -45l-8 -9l2 -18l27 -14l24 -11l62 -61l14 -19q-6 -16 -6 -38l65 -25l11 -25q5 -18 7 -21.5t9 -8.5l72 12z" />
    <glyph glyph-name="Edieresis" unicode="&#xcb;" horiz-adv-x="1479" 
d="M1438 113l-13 -43l-22 2q-12 0 -17 -6l-20 -43l-27 -19l-8 -10l-37 4l-43 -21h-2l-49 15l-6 2l-113 -4l-32 4l-11 16q-61 -12 -69 -12l-37 2l-25 -4l-8 20h-12l-10 -2l-35 -18l-197 -2l-29 -14q-33 22 -51 22l-10 -2l-51 -14l-58 12l-176 -6q-9 0 -75 24l10 23l24 57
l4 54l11 49v75l6 29l-4 232l4 59l-2 22l-6 23l41 2q-11 24 -19 34t-28 25l-5 17l5 74l-9 127l9 49l4 20l-21 6l-8 21l-4 65l-12 21l-2 10l2 25l8 12l55 -14l-16 14q-15 11 -15 20q0 5 4 17l-16 6l-20 -6q-3 49 -6.5 65t-12.5 19l-39 16l10 21q7 8 33 18l19 6q49 23 75 23h2
t3 -2l147 -25l68 -6l38 -12q37 14 50 14q6 0 8 -2l151 -16l133 8l52 -15l30 7v12q69 7 101 18q44 17 53 17l20 -4q-5 -23 -12.5 -32.5t-32.5 -21.5q-2 -18 -7 -25t-29 -20q-52 -24 -86 -24h-11l-53 4l-45 -6l-92 10l-21 2q-28 18 -55 18q-21 -24 -78 -24l-30 2l-5 18l-20 -6
l-29 -12l-137 12l-22 -33l8 -8v-8l4 -53l-8 -78l4 -29l2 -22l20 -6l137 -13q14 0 41 -20l31 6q28 10 41 10h2l107 -6l63 -2h57q18 0 30.5 3t27.5 11l76 -14l18 4l43 10l78 2l82 11q14 -4 28 -15l21 13q20 16 37 16l22 -2l23 2v-31l-27 -18l-61 -53q-11 -9 -21 -9h-4l-67 9
l-86 -3l-47 11l-168 -11l-31 3q-11 20 -25 20q-8 0 -12 -2l-45 -18l-131 14l-64 -23l-45 13l-37 -23l-110 8l-8 -14l4 -53l-17 -54l9 -16l14 -18l-14 -43q15 -28 18 -41l-4 -33l8 -92v-2q0 -13 -22 -41q26 -33 26 -54q0 -6 -4 -14l-27 -57l29 -51l12 -191l31 -6l135 -47
l45 6q16 0 45 -16q20 18 29 18h4l92 -18l56 6l49 -10l119 8l34 -6l58 -2l20 -7l-6 15l23 4l94 2l20 8l117 21q5 1 23 5.5t22 4.5q6 0 25 -6zM1001 1620q0 -24 -29 -47l-57 -45l-16 -18l-29 14l-27 31l-39 30l-22 31q-12 6 -43 15l2 12l121 92l22 -16l70 -41q47 -27 47 -58z
M503 1626l-12 -22l-12 -35l-54 -47l-18 -18l-25 12l-98 90l-39 10l4 25l21 14l43 33l22 26l27 23l14 -12l23 -15l61 -28q18 -9 26.5 -20.5t16.5 -35.5z" />
    <glyph glyph-name="Igrave" unicode="&#xcc;" horiz-adv-x="492" 
d="M356 1315l-4 -31l-6 -33l-20 -34l14 -105q0 -21 -23 -68v-18l15 -6l-2 -31l4 -82q0 -23 -4 -33.5t-19 -25.5l15 -23l-2 -30v-27l-21 -35l10 -26q9 -22 9 -29l-5 -55v-60l-14 -47v-8q0 -15 16 -25v-37l3 -22l2 -43v-16l-19 -56l19 -10l-7 -16l9 -56l-4 -94l6 -39l2 -26
q-91 -82 -125 -82l-12 2l-3 -11l-36 -8l-17 25q19 35 19 55v23l26 88v30v35l45 8l2 9q0 9 -10 26l-24 -2l-5 4l-6 -6l4 33l2 45l7 74l-2 39l18 28q-18 17 -21.5 26.5t-3.5 35.5t15 55l-15 16v29l2 96q0 9 -2 13l-4 20l-2 21q13 12 13 28l-19 21l8 16l-8 74l12 37v4
q0 16 -20 35l-2 20l-6 88l6 37l-14 21l2 32v58q11 18 30 18l52 4q12 2 32 39l35 10l33 13q-2 0 14 -4q6 -22 6 -31zM340 1543l-23 -35q-10 -2 -20 -2q-14 0 -37 10l-9 -4q-6 20 -6 21l-28 45q-10 18 -33 33q-11 30 -28 45.5t-48 25.5l-14 25l-19 29l-24 26l-23 39
q26 14 35 14l51 -8l66 -2q35 -2 50.5 -10t25.5 -27q-15 -9 -23 -20l8 -21l10 -38l46 -70l10 -33l-8 -8q5 -14 10.5 -17.5t17.5 -3.5z" />
    <glyph glyph-name="Iacute" unicode="&#xcd;" horiz-adv-x="492" 
d="M356 1315l-4 -31l-6 -33l-20 -34l14 -105q0 -21 -23 -68v-18l15 -6l-2 -31l4 -82q0 -23 -4 -33.5t-19 -25.5l15 -23l-2 -30v-27l-21 -35l10 -26q9 -22 9 -29l-5 -55v-60l-14 -47v-8q0 -15 16 -25v-37l3 -22l2 -43v-16l-19 -56l19 -10l-7 -16l9 -56l-4 -94l6 -39l2 -26
q-91 -82 -125 -82l-12 2l-3 -11l-36 -8l-17 25q19 35 19 55v23l26 88v30v35l45 8l2 9q0 9 -10 26l-24 -2l-5 4l-6 -6l4 33l2 45l7 74l-2 39l18 28q-18 17 -21.5 26.5t-3.5 35.5t15 55l-15 16v29l2 96q0 9 -2 13l-4 20l-2 21q13 12 13 28l-19 21l8 16l-8 74l12 37v4
q0 16 -20 35l-2 20l-6 88l6 37l-14 21l2 32v58q11 18 30 18l52 4q12 2 32 39l35 10l33 13q-2 0 14 -4q6 -22 6 -31zM455 1798l-10 -14l-56 -94l-36 -41l-25 -25l4 -12l-12 -25l-41 -59l-39 -35l-12 -18h-6v4h-54l-4 20q22 72 35 93l39 65q27 44 27 53l-5 35l-16 10l21 39
l47 2l108 17l1.5 1.5t2.5 0.5q15 0 31 -17z" />
    <glyph glyph-name="Icircumflex" unicode="&#xce;" horiz-adv-x="492" 
d="M356 1315l-4 -31l-6 -33l-20 -34l14 -105q0 -21 -23 -68v-18l15 -6l-2 -31l4 -82q0 -23 -4 -33.5t-19 -25.5l15 -23l-2 -30v-27l-21 -35l10 -26q9 -22 9 -29l-5 -55v-60l-14 -47v-8q0 -15 16 -25v-37l3 -22l2 -43v-16l-19 -56l19 -10l-7 -16l9 -56l-4 -94l6 -39l2 -26
q-91 -82 -125 -82l-12 2l-3 -11l-36 -8l-17 25q19 35 19 55v23l26 88v30v35l45 8l2 9q0 9 -10 26l-24 -2l-5 4l-6 -6l4 33l2 45l7 74l-2 39l18 28q-18 17 -21.5 26.5t-3.5 35.5t15 55l-15 16v29l2 96q0 9 -2 13l-4 20l-2 21q13 12 13 28l-19 21l8 16l-8 74l12 37v4
q0 16 -20 35l-2 20l-6 88l6 37l-14 21l2 32v58q11 18 30 18l52 4q12 2 32 39l35 10l33 13q-2 0 14 -4q6 -22 6 -31zM692 1509q-68 -88 -131 -88l-39 10l-2 22q-35 15 -62 15l-28 43q-16 2 -23.5 4.5t-16 9.5t-28.5 27l-16 16q6 15 6 23q0 9 -8 22h-23l-16 25q-20 31 -31 41
t-29 10l-45 -4v-15l-18 -16q-50 -47 -59 -70l-15 -28l-22 -29l-17 -24l-30 -19l-31 -31q-15 -12 -42.5 -22t-45.5 -10q-11 0 -27 16q25 37 37 43l70 39l26 39l66 61l12 27l62 63l41 45l106 68l27 27l14 10l25 29q32 0 32 -25q0 -8 -6 -16l-26 -43q0 -20 22 -45l-8 -9l2 -18
l27 -14l24 -11l62 -61l14 -19q-6 -16 -6 -38l65 -25l11 -25q5 -18 7 -21.5t9 -8.5l72 12z" />
    <glyph glyph-name="Idieresis" unicode="&#xcf;" horiz-adv-x="492" 
d="M356 1315l-4 -31l-6 -33l-20 -34l14 -105q0 -21 -23 -68v-18l15 -6l-2 -31l4 -82q0 -23 -4 -33.5t-19 -25.5l15 -23l-2 -30v-27l-21 -35l10 -26q9 -22 9 -29l-5 -55v-60l-14 -47v-8q0 -15 16 -25v-37l3 -22l2 -43v-16l-19 -56l19 -10l-7 -16l9 -56l-4 -94l6 -39l2 -26
q-91 -82 -125 -82l-12 2l-3 -11l-36 -8l-17 25q19 35 19 55v23l26 88v30v35l45 8l2 9q0 9 -10 26l-24 -2l-5 4l-6 -6l4 33l2 45l7 74l-2 39l18 28q-18 17 -21.5 26.5t-3.5 35.5t15 55l-15 16v29l2 96q0 9 -2 13l-4 20l-2 21q13 12 13 28l-19 21l8 16l-8 74l12 37v4
q0 16 -20 35l-2 20l-6 88l6 37l-14 21l2 32v58q11 18 30 18l52 4q12 2 32 39l35 10l33 13q-2 0 14 -4q6 -22 6 -31zM620 1620q0 -24 -29 -47l-57 -45l-16 -18l-29 14l-27 31l-39 30l-22 31q-12 6 -43 15l2 12l121 92l22 -16l70 -41q47 -27 47 -58zM122 1626l-12 -22l-12 -35
l-54 -47l-18 -18l-25 12l-98 90l-39 10l4 25l21 14l43 33l22 26l27 23l14 -12l23 -15l61 -28q18 -9 26.5 -20.5t16.5 -35.5z" />
    <glyph glyph-name="Eth" unicode="&#xd0;" horiz-adv-x="1776" 
d="M1710 784l-10 -43l4 -49q-3 -38 -23 -57l-16 -21l-41 -10q-6 -6 -12 -29l4 -4h10l-6 13l20 -15l-10 -14l-6 -25l-16 -26l-23 -33l-78 -49l-39 -62l-34 -24l-68 -72q-26 -23 -45 -28l-74 -25l-18 -8q0 -19 -10 -29l-21 -8l-117 -57l-71 -46q-35 -22 -68 -22q-12 0 -31 10
q-19 -12 -77 -31l-58 -18l-39 -8l-82 -6l-22 -4l-53 20q-40 -22 -76 -24l-6 8q-27 0 -45 16l-37 4v-24q-34 -19 -70 -19q-23 0 -47 6q-84 23 -96 23q-23 0 -23 8v6l15 17l24 6q35 10 41 10l8 -2l17 18q18 20 18 27v31l12 43l2 20v12l13 9q-15 16 -15 37l5 59l2 27l22 22
q-12 18 -12 27l-2 32l-13 25l3 57v70l16 33q4 16 4 22q0 3 -1 6l-29 -1h-2l-63 16l-17 7q-18 0 -24 -2l-35 -9l-14 6l-19 -18q-21 6 -35 6q-17 0 -43 -31q-34 3 -34 23q0 25 36 53l74 56l51 30l60 4l39 6l30 -12l15 -2h8l1 34h-25l-6 21l4 53l-10 78l8 22l-14 29l-2 98
l-27 31l23 45l2 15l-6 57l-2 33q-22 3 -41 12l-27 10v29l35 14h78l43 19q19 8 53 8l66 2l36 -12l25 8l18 -11h33l39 -2l37 -4h2l33 6l67 -22l80 -2l27 -12l112 -13l68 -20l80 -14l55 -19l23 -8l-4 -21l12 -12l-8 -12l4 -4l-6 -8l6 2l35 12l28 8l25 -8l37 -10l22 -15l2 -22
l9 -2l38 2q19 0 43 -35h15q26 0 78 -37q56 -38 94 -90l-15 -14l3 -15l12 -20l20 -14q10 -12 19 -46q-19 -8 -19 -20q0 -6 2 -8l29 -43q4 -8 4 -17zM828 762l-14 -22l-8 -23l-37 -34l-16 -19l-31 -14l-61 -47q-20 -11 -35 -11q-21 0 -29 5l-31 10l-12 2l-45 -6l-18 -2l-26 6
l2 -7l-10 -51l8 -8l-4 -37l4 -55q0 -21 -7 -29t-32 -23l4 -30l35 -21v-24l-4 -121q2 -9 6.5 -27t9.5 -35q6 -12 6 -22q0 -5 -8 -21h-18q-20 0 -33 -33q66 -12 98 -12l133 2l47 -4l150 43l23 2l112 43l76 31l31 12l22 19l74 28l57 56l23 10l12 14l12 37l41 23l23 34l43 50
l8 24q31 0 40 4t9 15q0 14 -26 20q32 32 47.5 74.5t23.5 113.5q6 54 25 103q-19 8 -24 15.5t-7 27.5l-8 2v12q0 10 -12 31l-19 31l2 10l-20 18l-49 37q-8 5 -16 13t-18.5 21.5t-23.5 29.5h-22q-25 0 -41 4l-96 51l-43 8l-27 12l-23 5l-4 22q-27 6 -32 6q-10 0 -25 -12
q-32 17 -51 20q-21 4 -29.5 5.5t-13 5t-11.5 10.5l-16 16q-22 -12 -43 -12q-26 0 -41 12l-24 17l-62 10l-143 18l-70 -6l-14 8l-10 -8l-11 -20l-22 10l-4 -29q-2 -43 -11 -65l5 -21q14 -48 14 -55l-2 -18l-12 8h-7q2 -40 17 -64v-28l-13 2q-10 -9 -18 -9h-10l-4 -20l14 -18
q21 -8 28 -14.5t7 -20.5q-21 -9 -21 -21q0 -8 2 -10l21 -49l-2 -64l3 -1l113 -4l86 -15l86 21l22 -4l39 45z" />
    <glyph glyph-name="Ntilde" unicode="&#xd1;" horiz-adv-x="1337" 
d="M1098 1698l-39 -31l-45 -49q-19 -19 -49 -26l-10 -21l-21 -6l-55 -35l-35 -12l-30 -27l-35 11q-34 22 -86 38q-6 18 -14.5 25t-32.5 12l-11 -14q-16 26 -53 39l-29 10l-34 -12l-45 -15l-19 -18l-37 12h-8l-2 -12l-12 8l-13 -8l-2 -14l9 -4l-2 -19q-50 -22 -72 -22
q-9 0 -19 6t-10 14q0 19 31 37q93 56 133 100l66 29l102 49q2 2 10 2q24 0 51 -12l31 -10q14 -19 17 -35l28 -4l58 -43l26 -12l12 14l9 -2l22 -15q26 0 66 23l20 12l19 39q7 11 24 15l35 6l27 16zM1202 918q-4 -10 -22 -19q14 -31 14 -37l-4 -82l4 -65l-12 -47l4 -66l-6 -92
l6 -53l-6 -35l4 -94l-2 -27l-6 10q-17 -13 -17 -24q0 -20 29 -39q8 -36 8 -55q0 -40 -15.5 -75.5t-56.5 -99.5l-14 -21l-39 -23l-8 23l-47 71l-60 75l-45 78l-16 21l4 22q0 24 -35 51q-49 41 -55 50l-55 98l-29 35l-18 51q-17 41 -64 41l-12 24l-58 95l-16 53l-33 37l-6 -8
l-16 10q-69 117 -131 149q8 25 8 37q0 25 -19 25l-22 -8q-16 16 -27 16l-20 -10l22 -47l-24 -9l6 -16l-8 -43l4 -86l-6 -29l-17 -8l2 -24l17 -58q2 -2 2 -2.5v-1.5q0 -16 -25 -49l8 -41l9 -23v-294l12 -86v-2t-2 -5l-12 -57l2 -12q18 -10 18 -23t-49 -84l-12 -17l-23 2
q-19 -23 -31 -23h-2l-22 2l-17 -4l2 25q3 27 9 36l22 28l17 25l-23 20l6 23l12 29q-10 30 -10 34q1 2 1.5 3.5t0.5 3.5l15 53l-5 115q9 15 31 20v10l-22 27l4 22l-4 21l6 57q0 1 -0.5 2t-1.5 2l-13 43l7 58l-4 41q0 20 28 39l-2 24l-14 33q0 10 6 29q-18 15 -18 32
q0 18 12 62l-10 14l-2 29l-9 69q0 7 9 29v23q0 61 -11 75l-45 56l8 22l25 15q25 14 35 23t16 26l17 10l47 55q4 4 12 4q23 0 35 -28l45 -88l18 -23l17 -31l-6 -6q24 -24 63 -90l51 -86q17 -30 17 -35q0 -12 -9 -22l41 -23l-6 -18l17 -21l41 -59l30 -29l11 -33l90 -96
l-19 -10q5 -20 13 -26.5t32 -10.5l47 -65l-14 -2l27 -19q28 -20 36 -32t11 -38l14 -14l-2 -14q0 -22 14 -47l23 -15q43 -19 45 -22l43 -66l22 -14l29 -25l10 23l-2 121l21 49q-21 22 -21 39q0 10 2 14l13 41l6 143l16 31l-12 31l8 47v2q0 13 -24 23l-5 260q14 1 18.5 7.5
t6.5 26.5l-31 23l-4 35q-5 44 -12.5 58t-30.5 14q-4 16 -4 24q0 37 86 59q14 21 24.5 29t45.5 23q12 -20 12 -37l-4 -29l6 -22l-2 -39l2 -84q0 -25 -6 -43l-8 -41v-2l16 -66l-4 -49z" />
    <glyph glyph-name="Ograve" unicode="&#xd2;" horiz-adv-x="1866" 
d="M1798 662q0 -7 -2 -11l-18 -59l2 -51l-15 -27q-4 2 -14 2q-6 0 -11 -10t-5 -23q0 -4 2 -6q20 -33 20 -43q0 -8 -4 -14q-21 -20 -29 -45l-22 -10l6 -7l-6 -6l16 -12l-2 -6l-18 -17l-23 -38l-16 -17q-14 14 -23 14q-18 0 -18 -20q0 -8 16 -29q-31 -52 -102 -96
q-74 -47 -153 -85t-122 -46l-20 -4q-75 -14 -94 -14h-4l-39 2l-25 -4l-37 22l-28 -12q-19 -13 -27 -13h-8q-8 19 -16 27.5t-25 15.5q-62 -32 -96 -32q-12 0 -23 8q-22 0 -24 2l-70 20l-59 -2l-23 19l-33 -4l-28 4l-41 12l-127 29l-35 28l-45 17l-47 49q-16 12 -47 12l-27 31
q8 19 8 29q0 31 -74 43v8l-12 4l-12 22l-10 11v22l-21 60l-4 20l-16 88l6 86l8 25l6 55l49 129l6 23q21 52 66 77v13l51 57q12 -4 14 -4q15 0 21 12l14 43l19 25q11 22 30 33l31 14l27 33l63 43q63 41 72 41l16 -6l27 32l18 4l189 74q16 8 39 8q21 0 51 -12l16 6l6 19l29 -4
l16 -3h5l49 13l78 -4l38 8l33 -4l31 2l35 -12l59 -11l43 -24l123 -45l12 -11l23 -14v-10l-4 -2q-8 -8 -8 -15t22 -20l4 8q23 0 35 -22q0 -23 4 -30.5t19 -21.5q15 9 28 9q26 0 43 -21l17 -22l36 -33l5 -23l24 -30l6 -27q-16 -21 -16 -35q0 -6 2 -10l61 -62l4 -22l17 -47
q0 -3 -4 -25l-15 -8v-10l17 -2l4 -23zM1638 831q0 45 -57 54l-6 55l-49 76l-8 31l-13 2l-18 22l-45 53l-41 27l-41 33l-19 6l-12 22h-20q-28 0 -43 11l-88 49l-88 12l-64 12l-61 -2h-47l-50 -14l-45 -6l-45 -27l-24 6h-2l-25 -8l-111 -61l-26 -4q-28 -40 -49 -47l-27 -11
l-88 -86l-16 -12q-36 -27 -74 -98l-10 -19l-21 -4l-10 -20l-12 -52l-13 -14l-6 -20l-41 6q-5 -17 -10.5 -22.5t-19.5 -12.5l-3 -10q37 -23 37 -45l-2 -70l15 -102l-2 -25l32 -53q-24 -15 -24 -29q0 -9 9.5 -17.5t23.5 -8.5q5 1 8.5 1.5t11.5 0.5l37 -45q-12 -18 -12 -23
l8 -16h8l41 -39l53 -29l74 -61l57 -11l31 -32l104 -39l86 -37l29 2l184 -27l29 -2l23 2l39 10l100 -6l43 9l76 30l28 8l15 -12q31 9 34 19l9 32l100 86l41 72l16 29h13l12 26l-6 11l6 18l4 82l16 39l5 29l14 10l10 61q-20 36 -20 56v2l4 96l-2 31q30 19 30 40zM1075 1543
l-23 -35q-10 -2 -20 -2q-14 0 -37 10l-9 -4q-6 20 -6 21l-28 45q-10 18 -33 33q-11 30 -28 45.5t-48 25.5l-14 25l-19 29l-24 26l-23 39q26 14 35 14l51 -8l66 -2q35 -2 50.5 -10t25.5 -27q-15 -9 -23 -20l8 -21l10 -38l46 -70l10 -33l-8 -8q5 -14 10.5 -17.5t17.5 -3.5z
" />
    <glyph glyph-name="Oacute" unicode="&#xd3;" horiz-adv-x="1866" 
d="M1798 662q0 -7 -2 -11l-18 -59l2 -51l-15 -27q-4 2 -14 2q-6 0 -11 -10t-5 -23q0 -4 2 -6q20 -33 20 -43q0 -8 -4 -14q-21 -20 -29 -45l-22 -10l6 -7l-6 -6l16 -12l-2 -6l-18 -17l-23 -38l-16 -17q-14 14 -23 14q-18 0 -18 -20q0 -8 16 -29q-31 -52 -102 -96
q-74 -47 -153 -85t-122 -46l-20 -4q-75 -14 -94 -14h-4l-39 2l-25 -4l-37 22l-28 -12q-19 -13 -27 -13h-8q-8 19 -16 27.5t-25 15.5q-62 -32 -96 -32q-12 0 -23 8q-22 0 -24 2l-70 20l-59 -2l-23 19l-33 -4l-28 4l-41 12l-127 29l-35 28l-45 17l-47 49q-16 12 -47 12l-27 31
q8 19 8 29q0 31 -74 43v8l-12 4l-12 22l-10 11v22l-21 60l-4 20l-16 88l6 86l8 25l6 55l49 129l6 23q21 52 66 77v13l51 57q12 -4 14 -4q15 0 21 12l14 43l19 25q11 22 30 33l31 14l27 33l63 43q63 41 72 41l16 -6l27 32l18 4l189 74q16 8 39 8q21 0 51 -12l16 6l6 19l29 -4
l16 -3h5l49 13l78 -4l38 8l33 -4l31 2l35 -12l59 -11l43 -24l123 -45l12 -11l23 -14v-10l-4 -2q-8 -8 -8 -15t22 -20l4 8q23 0 35 -22q0 -23 4 -30.5t19 -21.5q15 9 28 9q26 0 43 -21l17 -22l36 -33l5 -23l24 -30l6 -27q-16 -21 -16 -35q0 -6 2 -10l61 -62l4 -22l17 -47
q0 -3 -4 -25l-15 -8v-10l17 -2l4 -23zM1638 831q0 45 -57 54l-6 55l-49 76l-8 31l-13 2l-18 22l-45 53l-41 27l-41 33l-19 6l-12 22h-20q-28 0 -43 11l-88 49l-88 12l-64 12l-61 -2h-47l-50 -14l-45 -6l-45 -27l-24 6h-2l-25 -8l-111 -61l-26 -4q-28 -40 -49 -47l-27 -11
l-88 -86l-16 -12q-36 -27 -74 -98l-10 -19l-21 -4l-10 -20l-12 -52l-13 -14l-6 -20l-41 6q-5 -17 -10.5 -22.5t-19.5 -12.5l-3 -10q37 -23 37 -45l-2 -70l15 -102l-2 -25l32 -53q-24 -15 -24 -29q0 -9 9.5 -17.5t23.5 -8.5q5 1 8.5 1.5t11.5 0.5l37 -45q-12 -18 -12 -23
l8 -16h8l41 -39l53 -29l74 -61l57 -11l31 -32l104 -39l86 -37l29 2l184 -27l29 -2l23 2l39 10l100 -6l43 9l76 30l28 8l15 -12q31 9 34 19l9 32l100 86l41 72l16 29h13l12 26l-6 11l6 18l4 82l16 39l5 29l14 10l10 61q-20 36 -20 56v2l4 96l-2 31q30 19 30 40zM1233 1798
l-10 -14l-56 -94l-36 -41l-25 -25l4 -12l-12 -25l-41 -59l-39 -35l-12 -18h-6v4h-54l-4 20q22 72 35 93l39 65q27 44 27 53l-5 35l-16 10l21 39l47 2l108 17l1.5 1.5t2.5 0.5q15 0 31 -17z" />
    <glyph glyph-name="Ocircumflex" unicode="&#xd4;" horiz-adv-x="1866" 
d="M1798 662q0 -7 -2 -11l-18 -59l2 -51l-15 -27q-4 2 -14 2q-6 0 -11 -10t-5 -23q0 -4 2 -6q20 -33 20 -43q0 -8 -4 -14q-21 -20 -29 -45l-22 -10l6 -7l-6 -6l16 -12l-2 -6l-18 -17l-23 -38l-16 -17q-14 14 -23 14q-18 0 -18 -20q0 -8 16 -29q-31 -52 -102 -96
q-74 -47 -153 -85t-122 -46l-20 -4q-75 -14 -94 -14h-4l-39 2l-25 -4l-37 22l-28 -12q-19 -13 -27 -13h-8q-8 19 -16 27.5t-25 15.5q-62 -32 -96 -32q-12 0 -23 8q-22 0 -24 2l-70 20l-59 -2l-23 19l-33 -4l-28 4l-41 12l-127 29l-35 28l-45 17l-47 49q-16 12 -47 12l-27 31
q8 19 8 29q0 31 -74 43v8l-12 4l-12 22l-10 11v22l-21 60l-4 20l-16 88l6 86l8 25l6 55l49 129l6 23q21 52 66 77v13l51 57q12 -4 14 -4q15 0 21 12l14 43l19 25q11 22 30 33l31 14l27 33l63 43q63 41 72 41l16 -6l27 32l18 4l189 74q16 8 39 8q21 0 51 -12l16 6l6 19l29 -4
l16 -3h5l49 13l78 -4l38 8l33 -4l31 2l35 -12l59 -11l43 -24l123 -45l12 -11l23 -14v-10l-4 -2q-8 -8 -8 -15t22 -20l4 8q23 0 35 -22q0 -23 4 -30.5t19 -21.5q15 9 28 9q26 0 43 -21l17 -22l36 -33l5 -23l24 -30l6 -27q-16 -21 -16 -35q0 -6 2 -10l61 -62l4 -22l17 -47
q0 -3 -4 -25l-15 -8v-10l17 -2l4 -23zM1638 831q0 45 -57 54l-6 55l-49 76l-8 31l-13 2l-18 22l-45 53l-41 27l-41 33l-19 6l-12 22h-20q-28 0 -43 11l-88 49l-88 12l-64 12l-61 -2h-47l-50 -14l-45 -6l-45 -27l-24 6h-2l-25 -8l-111 -61l-26 -4q-28 -40 -49 -47l-27 -11
l-88 -86l-16 -12q-36 -27 -74 -98l-10 -19l-21 -4l-10 -20l-12 -52l-13 -14l-6 -20l-41 6q-5 -17 -10.5 -22.5t-19.5 -12.5l-3 -10q37 -23 37 -45l-2 -70l15 -102l-2 -25l32 -53q-24 -15 -24 -29q0 -9 9.5 -17.5t23.5 -8.5q5 1 8.5 1.5t11.5 0.5l37 -45q-12 -18 -12 -23
l8 -16h8l41 -39l53 -29l74 -61l57 -11l31 -32l104 -39l86 -37l29 2l184 -27l29 -2l23 2l39 10l100 -6l43 9l76 30l28 8l15 -12q31 9 34 19l9 32l100 86l41 72l16 29h13l12 26l-6 11l6 18l4 82l16 39l5 29l14 10l10 61q-20 36 -20 56v2l4 96l-2 31q30 19 30 40zM1399 1509
q-68 -88 -131 -88l-39 10l-2 22q-35 15 -62 15l-28 43q-16 2 -23.5 4.5t-16 9.5t-28.5 27l-16 16q6 15 6 23q0 9 -8 22h-23l-16 25q-20 31 -31 41t-29 10l-45 -4v-15l-18 -16q-50 -47 -59 -70l-15 -28l-22 -29l-17 -24l-30 -19l-31 -31q-15 -12 -42.5 -22t-45.5 -10
q-11 0 -27 16q25 37 37 43l70 39l26 39l66 61l12 27l62 63l41 45l106 68l27 27l14 10l25 29q32 0 32 -25q0 -8 -6 -16l-26 -43q0 -20 22 -45l-8 -9l2 -18l27 -14l24 -11l62 -61l14 -19q-6 -16 -6 -38l65 -25l11 -25q5 -18 7 -21.5t9 -8.5l72 12z" />
    <glyph glyph-name="Otilde" unicode="&#xd5;" horiz-adv-x="1866" 
d="M1384 1698l-39 -31l-45 -49q-19 -19 -49 -26l-10 -21l-21 -6l-55 -35l-35 -12l-30 -27l-35 11q-34 22 -86 38q-6 18 -14.5 25t-32.5 12l-11 -14q-16 26 -53 39l-29 10l-34 -12l-45 -15l-19 -18l-37 12h-8l-2 -12l-12 8l-13 -8l-2 -14l9 -4l-2 -19q-50 -22 -72 -22
q-9 0 -19 6t-10 14q0 19 31 37q93 56 133 100l66 29l102 49q2 2 10 2q24 0 51 -12l31 -10q14 -19 17 -35l28 -4l58 -43l26 -12l12 14l9 -2l22 -15q26 0 66 23l20 12l19 39q7 11 24 15l35 6l27 16zM1798 662q0 -7 -2 -11l-18 -59l2 -51l-15 -27q-4 2 -14 2q-6 0 -11 -10
t-5 -23q0 -4 2 -6q20 -33 20 -43q0 -8 -4 -14q-21 -20 -29 -45l-22 -10l6 -7l-6 -6l16 -12l-2 -6l-18 -17l-23 -38l-16 -17q-14 14 -23 14q-18 0 -18 -20q0 -8 16 -29q-31 -52 -102 -96q-74 -47 -153 -85t-122 -46l-20 -3q-75 -14 -94 -14h-4l-39 2l-25 -4l-37 21l-28 -11
q-19 -13 -27 -13h-8q-8 19 -16 27t-25 15q-62 -31 -96 -31q-12 0 -23 8q-22 0 -24 2l-70 19l-59 -2l-23 19l-33 -4l-28 4l-41 12l-127 29l-35 28l-45 17l-47 49q-16 12 -47 12l-27 31q8 19 8 29q0 31 -74 43v8l-12 4l-12 22l-10 11v22l-21 60l-4 20l-16 88l6 86l8 25l6 55
l49 129l6 23q21 52 66 77v13l51 57q12 -4 14 -4q15 0 21 12l14 43l19 25q11 22 30 33l31 14l27 33l63 43q63 41 72 41l16 -6l27 32l18 4l189 74q16 8 39 8q21 0 51 -12l16 6l6 19l29 -4l16 -3h5l49 13l78 -4l38 8l33 -4l31 2l35 -12l59 -11l43 -24l123 -45l12 -11l23 -14
v-10l-4 -2q-8 -8 -8 -15t22 -20l4 8q23 0 35 -22q0 -23 4 -30.5t19 -21.5q15 9 28 9q26 0 43 -21l17 -22l36 -33l5 -23l24 -30l6 -27q-16 -21 -16 -35q0 -6 2 -10l61 -62l4 -22l17 -47q0 -3 -4 -25l-15 -8v-10l17 -2l4 -23zM1638 831q0 45 -57 54l-6 55l-49 76l-8 31l-13 2
l-18 22l-45 53l-41 27l-41 33l-19 6l-12 22h-20q-28 0 -43 11l-88 49l-88 12l-64 12l-61 -2h-47l-50 -14l-45 -6l-45 -27l-24 6h-2l-25 -8l-111 -61l-26 -4q-28 -40 -49 -47l-27 -11l-88 -86l-16 -12q-36 -27 -74 -98l-10 -19l-21 -4l-10 -20l-12 -52l-13 -14l-6 -20l-41 6
q-5 -17 -10.5 -22.5t-19.5 -12.5l-3 -10q37 -23 37 -45l-2 -70l15 -102l-2 -25l32 -53q-24 -15 -24 -29q0 -9 9.5 -17.5t23.5 -8.5q5 1 8.5 1.5t11.5 0.5l37 -45q-12 -18 -12 -23l8 -16h8l41 -39l53 -29l74 -61l57 -11l31 -32l104 -39l86 -37l29 2l184 -27l29 -2l23 2l39 10
l100 -6l43 9l76 30l28 8l15 -12q31 9 34 19l9 32l100 86l41 72l16 29h13l12 26l-6 11l6 18l4 82l16 39l5 29l14 10l10 61q-20 36 -20 56v2l4 96l-2 31q30 19 30 40z" />
    <glyph glyph-name="Odieresis" unicode="&#xd6;" horiz-adv-x="1866" 
d="M1798 662q0 -7 -2 -11l-18 -59l2 -51l-15 -27q-4 2 -14 2q-6 0 -11 -10t-5 -23q0 -4 2 -6q20 -33 20 -43q0 -8 -4 -14q-21 -20 -29 -45l-22 -10l6 -7l-6 -6l16 -12l-2 -6l-18 -17l-23 -38l-16 -17q-14 14 -23 14q-18 0 -18 -20q0 -8 16 -29q-31 -52 -102 -96
q-74 -47 -153 -85t-122 -46l-20 -4q-75 -14 -94 -14h-4l-39 2l-25 -4l-37 22l-28 -12q-19 -13 -27 -13h-8q-8 19 -16 27.5t-25 15.5q-62 -32 -96 -32q-12 0 -23 8q-22 0 -24 2l-70 20l-59 -2l-23 19l-33 -4l-28 4l-41 12l-127 29l-35 28l-45 17l-47 49q-16 12 -47 12l-27 31
q8 19 8 29q0 31 -74 43v8l-12 4l-12 22l-10 11v22l-21 60l-4 20l-16 88l6 86l8 25l6 55l49 129l6 23q21 52 66 77v13l51 57q12 -4 14 -4q15 0 21 12l14 43l19 25q11 22 30 33l31 14l27 33l63 43q63 41 72 41l16 -6l27 32l18 4l189 74q16 8 39 8q21 0 51 -12l16 6l6 19l29 -4
l16 -3h5l49 13l78 -4l38 8l33 -4l31 2l35 -12l59 -11l43 -24l123 -45l12 -11l23 -14v-10l-4 -2q-8 -8 -8 -15t22 -20l4 8q23 0 35 -22q0 -23 4 -30.5t19 -21.5q15 9 28 9q26 0 43 -21l17 -22l36 -33l5 -23l24 -30l6 -27q-16 -21 -16 -35q0 -6 2 -10l61 -62l4 -22l17 -47
q0 -3 -4 -25l-15 -8v-10l17 -2l4 -23zM1638 831q0 45 -57 54l-6 55l-49 76l-8 31l-13 2l-18 22l-45 53l-41 27l-41 33l-19 6l-12 22h-20q-28 0 -43 11l-88 49l-88 12l-64 12l-61 -2h-47l-50 -14l-45 -6l-45 -27l-24 6h-2l-25 -8l-111 -61l-26 -4q-28 -40 -49 -47l-27 -11
l-88 -86l-16 -12q-36 -27 -74 -98l-10 -19l-21 -4l-10 -20l-12 -52l-13 -14l-6 -20l-41 6q-5 -17 -10.5 -22.5t-19.5 -12.5l-3 -10q37 -23 37 -45l-2 -70l15 -102l-2 -25l32 -53q-24 -15 -24 -29q0 -9 9.5 -17.5t23.5 -8.5q5 1 8.5 1.5t11.5 0.5l37 -45q-12 -18 -12 -23
l8 -16h8l41 -39l53 -29l74 -61l57 -11l31 -32l104 -39l86 -37l29 2l184 -27l29 -2l23 2l39 10l100 -6l43 9l76 30l28 8l15 -12q31 9 34 19l9 32l100 86l41 72l16 29h13l12 26l-6 11l6 18l4 82l16 39l5 29l14 10l10 61q-20 36 -20 56v2l4 96l-2 31q30 19 30 40zM1315 1620
q0 -24 -29 -47l-57 -45l-16 -18l-29 14l-27 31l-39 30l-22 31q-12 6 -43 15l2 12l121 92l22 -16l70 -41q47 -27 47 -58zM817 1626l-12 -22l-12 -35l-54 -47l-18 -18l-25 12l-98 90l-39 10l4 25l21 14l43 33l22 26l27 23l14 -12l23 -15l61 -28q18 -9 26.5 -20.5t16.5 -35.5z
" />
    <glyph glyph-name="multiply" unicode="&#xd7;" horiz-adv-x="1044" 
d="M879 816l-32 -32l-13 -28l-8 -11l-21 -18l-54 -48l-25 -28q-15 -15 -24 -18l-53 -19l-17 -13q14 -16 13 -22v-1l16 -10l24 -26l93 -71l8 -5l4 -4l19 -28l23 -33l-28 -99l-7 -52l-10 -14l-24 5l-32 32l-28 13l-11 8l-18 21l-48 54l-28 25q-15 15 -18 24l-19 53l-13 17
q-12 -10 -19 -13l-2 -12l-138 -130l-28 -24l-93 -55l-76 71l88 97q14 14 66 29l30 8q-15 38 -5 48q6 6 33 22l-4 28l27 30l2 2l-19 4l-130 138l-24 28l-55 93l71 76l97 -88q14 -14 29 -66l8 -30q38 15 48 5q6 -6 22 -33l28 4l30 -27l2 -3l16 24l26 24l71 93l5 8l4 4l28 19
l33 23l99 -28l52 -7l14 -10z" />
    <glyph glyph-name="Oslash" unicode="&#xd8;" horiz-adv-x="1866" 
d="M1798 657l-16 -47l4 -49l-17 -43l-20 6l-12 -28l18 -35v-35l-31 -45l-16 -8l-2 -13l14 -20l-20 -16l-17 -31l-18 -25q-16 15 -27 15q-16 0 -16 -19q0 -3 10 -41l-88 -86l-180 -94l-25 -6l-88 -33q-45 -16 -108 -16l-41 2l-25 -4l-30 24l-58 -28l-16 6l-33 37l-20 -9
l-60 -16l-22 -6l-39 12l-54 6l-22 11h-12l-19 -3h-35l-43 21h-24h-8l-86 18l-64 23l-49 -37l-47 -61l-31 -31l-18 -21l-31 -4l-18 -34l-54 -74l-14 -25l-29 -16l-18 -23l-55 -14l-21 -4l-22 4q-33 3 -48.5 8.5t-15.5 16.5v4l19 16l63 49l41 37l25 27l34 6l39 55l131 133
l23 25l-23 24l-26 31l-56 16l-20 27q8 16 8 29l-4 16l-27 19l-57 24l-22 55l-19 58l-14 88l-6 16l6 43v47l12 41l2 41l49 129l6 19l54 73l14 21l12 8l37 47h17h8q5 3 26 58q13 25 31 40t57 29q18 37 86 76l58 33l18 2l31 26l65 23l142 57l41 4l63 -4l13 23l20 -10l74 12
l75 -2l33 8l49 -4l29 2l25 -10l67 -13l39 -26l37 -4l23 -13l28 29l33 35l27 47l12 18q15 3 19.5 10t7.5 25l24 -8l6 16l-18 29q35 32 58 42t69 11l63 2l23 -6l6 -26l-18 -15l-33 -39l-72 -71l-61 -92l-72 -68l-14 -18l16 -23l23 14l22 -26l6 -31l10 -18l35 8l29 -13l29 -30
l22 -15l17 -16l4 -22l24 -35l6 -25q-19 -25 -19 -31q0 -3 3 -6l61 -67l4 -21l15 -33l2 -20l-4 -43l10 -29v-53zM1638 838q0 44 -55 53q0 39 -6 53.5t-41 63.5l-12 22l-2 17l-19 12l-61 76l-31 10l-22 -27l-78 -80l-35 -53l-158 -154q-38 -58 -48 -66t-58 -28l8 -22l-27 -27
l-24 6q-15 -6 -20.5 -13.5t-10.5 -25.5l12 -2l-4 -16l-16 -19l-125 -126l-23 -37l-20 -11l-17 2l-32 -28v-15q0 -23 -19 -26l-37 -12l-4 -41l-53 -54l-37 -47l-20 -24l28 -11l31 -32l129 -47l51 -27l25 4l188 -27l103 9l94 -5l43 9l90 34l23 5l4 -13l22 8l21 21l2 23l94 73
l55 96l29 27l8 57l-6 48l25 73l2 21l12 4l12 65l-20 54l2 104v23q28 20 28 43zM1341 1210l-28 7l-45 10l-88 49l-84 14l-80 15l-55 -5l-46 -2l-49 -12l-45 -8l-45 -23l-22 5l-115 -60l-47 -14l-47 -49l-31 -9l-45 -47l-59 -53l-72 -96l-33 -27l-14 -31l-10 -40l-9 -11
l-8 -20l-39 4l-32 -37l24 -27q16 -13 16 -59v-12l-4 -70l13 -70v-16l28 -47l-20 -35l4 -16l47 -4l35 -45q-10 -15 -10 -21t6 -18h14q24 -32 41 -39l53 -33l19 -12l45 43q50 57 59 65t43 19q5 20 12.5 31t28.5 36l47 54l35 34q34 23 40.5 30.5t6.5 25.5l39 39l14 22l78 80
l21 27l65 28l-10 27l12 27q47 3 47 18l5 31q2 8 43 49l16 16l16 -2q15 0 23 12l14 41l35 50l129 129z" />
    <glyph glyph-name="Ugrave" unicode="&#xd9;" horiz-adv-x="1640" 
d="M1503 1300l-2 -61l-20 -74l2 -37l-4 -28l12 -47v-2q0 -18 -23 -56l-14 -26l-22 -6l14 -21q23 -31 30 -42.5t7 -22.5l-10 -60v-33l-13 -4l8 -10l-8 -33v-4l19 -121l-6 -24q-25 -11 -25 -27t27 -37l2 -86l-9 -24q-4 -16 -4 -15q0 -11 13 -34q10 -22 10 -41q0 -17 -14 -39
q20 -22 24 -29l-2 -80l4 -100v-13q-25 -5 -41 -14.5t-63 -46.5l-9 -14l-18 2l-39 -31q-10 22 -10 41q0 35 16 53h15q-1 16 -6 22t-23 11l2 100l8 7l-6 47q-9 6 -16 6q-2 0 -4.5 -0.5t-6.5 -1.5l-10 -11h-16q-13 0 -19 -6l-24 -16l-41 -18l-150 -103l-49 -18l-65 -35l-88 -31
l-68 -20q-39 -19 -61 -19h-37l-62 -20l-55 -2l-35 -4l-31 4l-73 14l-45 21l-33 10l-41 39l-16 18l-33 -4l-21 16l-10 21l-37 29q-10 15 -10 63v16l-31 17l-12 35l-14 61l-11 23l29 51q-26 22 -36.5 40.5t-10.5 43.5q0 24 8 41l25 59l2 80l16 16q20 -4 27 -4q14 0 14 13
t-20 22v41l-21 6l25 123l10 23l10 18l23 70l16 24l8 23l25 24q-4 17 -4 33q0 36 45 100l-19 13l-22 -13q-8 34 -8 39q0 16 16.5 28.5t38.5 12.5l25 -2l8 19l26 4l99 47l28 12q21 -25 21 -43q0 -11 -8 -16l-21 -17l-43 -63l-14 -10l-2 -31l-27 -41l-37 -51l-22 -35l-25 -98
l-24 -76l-5 -59l-28 -80l-2 -37l-17 -76l9 -49l-11 -37l35 -113l2 -22q-12 -1 -20 -12.5t-8 -26.5q0 -19 34 -25l11 -24l18 -47l47 -66l8 -22l21 -9l37 -30l94 -29l61 -16l37 -13q26 -30 39 -30q11 0 29 36l116 7l21 -19l22 10l72 27l27 21l76 34l51 43l24 4l68 43l47 13
l8 12l-18 12l22 15l33 26l62 99l30 24q8 11 8 41v12v60l2 74q15 12 19 20.5t4 32.5l-35 26l-10 224l12 20q-10 18 -10 29q0 17 10 43l-10 8l-2 25l-8 86q0 12 16 39l-45 47l12 32h19q31 32 51 39l23 8l20 13l27 -4q17 29 25 35t32 6l10 -27v-23zM940 1543l-23 -35
q-10 -2 -20 -2q-14 0 -37 10l-9 -4q-6 20 -6 21l-28 45q-10 18 -33 33q-11 30 -28 45.5t-48 25.5l-14 25l-19 29l-24 26l-23 39q26 14 35 14l51 -8l66 -2q35 -2 50.5 -10t25.5 -27q-15 -9 -23 -20l8 -21l10 -38l46 -70l10 -33l-8 -8q5 -14 10.5 -17.5t17.5 -3.5z" />
    </font>
</defs>
</svg>
